{
.appVersion = "3151";
.formatVersion = 3;
customParameters = (
{
name = vendorID;
value = "1BOU";
},
{
name = panose;
value = (
0,
0,
9,
0,
0,
0,
0,
0,
0,
0
);
},
{
name = unicodeRanges;
value = (
0,
1,
2,
3,
5,
13,
31,
33,
35,
38,
45,
60,
63,
67
);
},
{
name = codePageRanges;
value = (
"1252"
);
},
{
name = glyphOrder;
value = (
.notdef,
uni000D,
space,
exclam,
quotedbl,
numbersign,
dollar,
percent,
ampersand,
quotesingle,
parenleft,
parenright,
asterisk,
plus,
comma,
hyphen,
period,
slash,
zero,
one,
two,
three,
four,
five,
six,
seven,
eight,
nine,
colon,
semicolon,
less,
equal,
greater,
question,
at,
A,
B,
C,
D,
E,
F,
G,
H,
I,
J,
K,
L,
M,
N,
O,
P,
Q,
R,
S,
T,
U,
V,
W,
X,
Y,
Z,
bracketleft,
backslash,
bracketright,
asciicircum,
underscore,
grave,
a,
b,
c,
d,
e,
f,
g,
h,
i,
j,
k,
l,
m,
n,
o,
p,
q,
r,
s,
t,
u,
v,
w,
x,
y,
z,
braceleft,
bar,
braceright,
asciitilde,
exclamdown,
cent,
sterling,
yen,
brokenbar,
section,
dieresis,
copyright,
ordfeminine,
guillemotleft,
uni00AD,
registered,
macron,
degree,
plusminus,
twosuperior,
threesuperior,
acute,
paragraph,
periodcentered,
cedilla,
onesuperior,
ordmasculine,
guillemotright,
onequarter,
onehalf,
threequarters,
questiondown,
Agrave,
Aacute,
Acircumflex,
Atilde,
Adieresis,
Aring,
AE,
Ccedilla,
Egrave,
Eacute,
Ecircumflex,
Edieresis,
Igrave,
Iacute,
Icircumflex,
Idieresis,
Eth,
Ntilde,
Ograve,
Oacute,
Ocircumflex,
Otilde,
Odieresis,
multiply,
Oslash,
Ugrave,
Uacute,
Ucircumflex,
Udieresis,
Yacute,
Thorn,
germandbls,
agrave,
aacute,
acircumflex,
atilde,
adieresis,
aring,
ae,
ccedilla,
egrave,
eacute,
ecircumflex,
edieresis,
igrave,
iacute,
icircumflex,
idieresis,
eth,
ntilde,
ograve,
oacute,
ocircumflex,
otilde,
odieresis,
divide,
oslash,
ugrave,
uacute,
ucircumflex,
udieresis,
yacute,
thorn,
ydieresis,
dotlessi,
Lslash,
lslash,
OE,
oe,
Scaron,
scaron,
Ydieresis,
Zcaron,
zcaron,
florin,
circumflex,
caron,
breve,
dotaccent,
ring,
ogonek,
tilde,
hungarumlaut,
uni03BC,
uni060C,
uni061B,
uni061F,
uni0621,
uni0622,
uni0623,

glyphs = (
{
glyphname = .notdef;
layers = (
{
layerId = m01;
shapes = (
{
closed = 1;
nodes = (
(195,3,o),
(220,27,o),
(251,27,cs),
(282,27,o),
(305,3,o),
(305,-29,cs),
(305,-62,o),
(282,-85,o),
(251,-85,cs),
(220,-85,o),
(195,-62,o),
(195,-29,cs)
);
},
{
closed = 1;
nodes = (
(211,88,ls),
(211,165,o),
(317,183,o),
(317,247,cs),
(317,276,o),
(295,294,o),
(258,294,cs),
(217,294,o),
(192,284,o),
(153,265,cs),
(149,263,o),
(145,262,o),
(143,262,cs),
(139,262,o),
(137,264,o),
(135,269,cs),
(129,290,ls),
(118,323,o),
(125,344,o),
(163,360,cs),
(193,371,o),
(220,379,o),
(261,379,cs),
(348,379,o),
(414,339,o),
(414,263,cs),
(414,191,o),
(371,152,o),
(302,101,cs),
(290,92,o),
(288,86,o),
(288,75,cs),
(288,64,ls),
(288,57,o),
(285,54,o),
(277,54,cs),
(221,54,ls),
(214,54,o),
(211,57,o),
(211,64,cs)
);
},
{
closed = 1;
nodes = (
(509,559,l),
(509,-268,l),
(21,-268,l),
(21,559,l)
);
},
{
closed = 1;
nodes = (
(96,-193,l),
(434,-193,l),
(434,484,l),
(96,484,l)
);
}
);
width = 531;
}
);
note = ".notdef";
},
{
glyphname = exclam;
layers = (
{
layerId = m01;
shapes = (
{
closed = 1;
nodes = (
(24,23,o),
(59,-9,o),
(101,-9,cs),
(146,-9,o),
(178,23,o),
(178,68,cs),
(178,113,o),
(146,146,o),
(101,146,cs),
(59,146,o),
(24,113,o),
(24,68,cs)
);
},
{
closed = 1;
nodes = (
(45,171,o),
(49,167,o),
(58,167,cs),
(145,167,ls),
(154,167,o),
(158,171,o),
(158,180,cs),
(167,456,ls),
(169,528,o),
(136,556,o),
(73,556,cs),
(45,556,ls),
(36,556,o),
(32,551,o),
(32,542,cs),
(45,180,ls)
);
}
);
width = 206;
}
);
note = exclam;
unicode = 33;
},
{
glyphname = quotedbl;
layers = (
{
layerId = m01;
shapes = (
{
closed = 1;
nodes = (
(44,347,o),
(47,343,o),
(56,343,cs),
(128,343,ls),
(137,343,o),
(140,347,o),
(141,356,cs),
(152,462,ls),
(160,538,o),
(140,556,o),
(77,556,cs),
(37,556,ls),
(29,556,o),
(23,551,o),
(24,542,cs),
(43,356,ls)
);
},
{
closed = 1;
nodes = (
(200,347,o),
(203,343,o),
(212,343,cs),
(284,343,ls),
(293,343,o),
(296,347,o),
(297,356,cs),
(308,462,ls),
(316,538,o),
(296,556,o),
(233,556,cs),
(193,556,ls),
(184,556,o),
(179,551,o),
(180,542,cs),
(199,356,ls)
);
}
);
width = 334;
}
);
note = quotedbl;
unicode = 34;
},
{
glyphname = numbersign;
layers = (
{
layerId = m01;
shapes = (
{
closed = 1;
nodes = (
(263,329,l),
(358,329,l),
(332,226,l),
(237,226,l)
);
},
{
closed = 1;
nodes = (
(62,13,ls),
(60,6,o),
(64,0,o),
(71,0,cs),
(172,0,ls),
(179,0,o),
(184,5,o),
(186,13,cs),
(215,134,l),
(310,134,l),
(282,13,ls),
(280,6,o),
(283,0,o),
(291,0,cs),
(393,0,ls),
(400,0,o),
(405,5,o),
(407,13,cs),
(435,134,l),
(493,134,ls),
(502,134,o),
(506,138,o),
(508,147,cs),
(526,213,ls),
(528,221,o),
(525,226,o),
(516,226,cs),
(457,226,l),
(482,329,l),
(541,329,ls),
(550,329,o),
(555,334,o),
(557,343,cs),
(573,408,ls),
(576,417,o),
(572,422,o),
(563,422,cs),
(503,422,l),
(521,487,ls),
(532,529,o),
(519,556,o),
(473,556,cs),
(427,556,ls),
(418,556,o),
(412,551,o),
(410,542,cs),
(380,422,l),
(284,422,l),
(301,487,ls),
(311,529,o),
(299,556,o),
(254,556,cs),
(207,556,ls),
(198,556,o),
(192,551,o),
(190,542,cs),
(160,422,l),
(101,422,ls),
(93,422,o),
(88,417,o),
(86,408,cs),
(69,343,ls),
(67,334,o),
(70,329,o),
(79,329,cs),
(138,329,l),
(112,226,l),
(54,226,ls),
(45,226,o),
(41,221,o),
(38,213,c),
(21,147,ls),
(19,138,o),
(22,134,o),
(31,134,cs),
(91,134,l)
);
}
);
width = 592;
}
);
note = numbersign;
unicode = 35;
},
{
glyphname = dollar;
layers = (
{
layerId = m01;
shapes = (
{
closed = 1;
nodes = (
(136,113,o),
(90,138,o),
(50,174,cs),
(47,177,o),
(44,178,o),
(40,178,cs),
(30,178,o),
(22,168,o),
(22,152,cs),
(22,80,o),
(81,-3,o),
(208,-10,c),
(208,-52,ls),
(208,-61,o),
(211,-65,o),
(220,-65,cs),
(274,-65,ls),
(282,-65,o),
(286,-61,o),
(286,-52,cs),
(286,-6,l),
(388,14,o),
(452,82,o),
(452,171,cs),
(452,278,o),
(366,314,o),
(286,339,c),
(286,448,l),
(324,444,o),
(358,433,o),
(390,418,cs),
(396,416,o),
(403,413,o),
(408,413,cs),
(415,413,o),
(416,418,o),
(419,427,cs),
(429,461,ls),
(441,503,o),
(433,531,o),
(385,547,cs),
(355,557,o),
(324,563,o),
(286,566,c),
(286,611,ls),
(286,619,o),
(282,623,o),
(274,623,cs),
(220,623,ls),
(211,623,o),
(208,619,o),
(208,611,cs),
(208,566,l),
(114,554,o),
(39,499,o),
(39,402,cs),
(39,292,o),
(128,255,o),
(208,228,c),
(208,109,l)
);
},
{
closed = 1;
nodes = (
(310,193,o),
(324,179,o),
(324,161,cs),
(324,142,o),
(313,126,o),
(286,117,c),
(286,203,l)
);
},
{
closed = 1;
nodes = (
(180,376,o),
(166,389,o),
(166,408,cs),
(166,429,o),
(180,443,o),
(208,449,c),
(208,363,l)
);
}
);
width = 477;
}
);
note = dollar;
unicode = 36;
},
{
glyphname = percent;
layers = (
{
layerId = m01;
shapes = (
{
closed = 1;
nodes = (
(331,0,ls),
(340,0,o),
(345,4,o),
(350,13,cs),
(610,483,ls),
(631,521,o),
(617,556,o),
(571,556,cs),
(525,556,ls),
(516,556,o),
(510,552,o),
(505,542,cs),
(214,13,ls),
(211,7,o),
(213,0,o),
(221,0,cs)
);
},
{
closed = 1;
nodes = (
(774,-8,o),
(839,64,o),
(839,169,cs),
(839,274,o),
(774,344,o),
(677,344,cs),
(582,344,o),
(520,274,o),
(520,169,cs),
(520,64,o),
(582,-8,o),
(677,-8,cs)
);
},
{
closed = 1;
nodes = (
(652,90,o),
(626,106,o),
(626,167,cs),
(626,228,o),
(652,248,o),
(677,248,cs),
(705,248,o),
(734,228,o),
(734,167,cs),
(734,106,o),
(705,90,o),
(677,90,cs)
);
},
{
closed = 1;
nodes = (
(277,214,o),
(342,284,o),
(342,391,cs),
(342,494,o),
(277,566,o),
(181,566,cs),
(86,566,o),
(23,494,o),
(23,391,cs),
(23,284,o),
(86,214,o),
(181,214,cs)
);
},
{
closed = 1;
nodes = (
(156,311,o),
(128,327,o),
(128,388,cs),
(128,450,o),
(156,468,o),
(181,468,cs),
(208,468,o),
(237,450,o),
(237,388,cs),
(237,327,o),
(208,311,o),
(181,311,cs)
);
}
);
width = 861;
}
);
note = percent;
unicode = 37;
},
{
glyphname = ampersand;
layers = (
{
layerId = m01;
shapes = (
{
closed = 1;
nodes = (
(380,309,o),
(443,361,o),
(443,427,cs),
(443,516,o),
(380,566,o),
(265,566,cs),
(158,566,o),
(86,508,o),
(86,422,cs),
(86,371,o),
(105,338,o),
(136,304,c),
(76,274,o),
(27,233,o),
(27,155,cs),
(27,61,o),
(96,-10,o),
(213,-10,cs),
(268,-10,o),
(317,6,o),
(354,47,c),
(358,42,ls),
(379,16,o),
(405,0,o),
(456,0,cs),
(540,0,ls),
(548,0,o),
(550,8,o),
(546,13,cs),
(443,152,l),
(539,279,ls),
(543,284,o),
(540,292,o),
(533,292,cs),
(428,292,ls),
(417,292,o),
(410,288,o),
(403,279,cs),
(365,231,l),
(324,277,l)
);
},
{
closed = 1;
nodes = (
(268,111,o),
(253,99,o),
(224,99,cs),
(194,99,o),
(164,121,o),
(164,156,cs),
(164,187,o),
(185,204,o),
(210,220,c),
(285,129,l)
);
},
{
closed = 1;
nodes = (
(243,374,o),
(224,398,o),
(224,421,cs),
(224,447,o),
(243,463,o),
(269,463,cs),
(298,463,o),
(319,447,o),
(319,422,cs),
(319,392,o),
(288,371,o),
(260,357,c)
);
}
);
width = 561;
}
);
note = ampersand;
unicode = 38;
},
{
glyphname = quotesingle;
layers = (
{
layerId = m01;
shapes = (
{
closed = 1;
nodes = (
(44,347,o),
(47,343,o),
(56,343,cs),
(128,343,ls),
(137,343,o),
(140,347,o),
(141,356,cs),
(152,462,ls),
(160,538,o),
(140,556,o),
(77,556,cs),
(37,556,ls),
(29,556,o),
(23,551,o),
(24,542,cs),
(43,356,ls)
);
}
);
width = 179;
}
);
note = quotesingle;
unicode = 39;
},
{
glyphname = parenleft;
layers = (
{
layerId = m01;
shapes = (
{
closed = 1;
nodes = (
(39,-6,o),
(193,-136,o),
(291,-145,cs),
(297,-146,o),
(301,-148,o),
(301,-138,cs),
(301,-132,o),
(302,-121,o),
(302,-114,cs),
(302,-42,o),
(278,-35,o),
(260,-16,cs),
(183,63,o),
(155,146,o),
(155,276,cs),
(155,406,o),
(183,489,o),
(260,568,cs),
(278,587,o),
(302,594,o),
(302,667,cs),
(302,673,o),
(301,684,o),
(301,690,cs),
(301,700,o),
(297,698,o),
(291,697,cs),
(193,688,o),
(39,558,o),
(39,276,cs)
);
}
);
width = 341;
}
);
note = parenleft;
unicode = 40;
},
{
glyphname = parenright;
layers = (
{
layerId = m01;
shapes = (
{
closed = 1;
nodes = (
(319,558,o),
(165,688,o),
(68,697,cs),
(62,698,o),
(58,700,o),
(57,690,cs),
(57,684,o),
(56,673,o),
(56,667,cs),
(56,594,o),
(80,587,o),
(99,568,cs),
(175,489,o),
(203,406,o),
(203,276,cs),
(203,146,o),
(175,63,o),
(99,-16,cs),
(80,-35,o),
(56,-42,o),
(56,-114,cs),
(56,-121,o),
(57,-132,o),
(57,-138,cs),
(58,-148,o),
(62,-146,o),
(68,-145,cs),
(165,-136,o),
(319,-6,o),
(319,276,cs)
);
}
);
width = 358;
}
);
note = parenright;
unicode = 41;
},
{
glyphname = asterisk;
layers = (
{
layerId = m01;
shapes = (
{
closed = 1;
nodes = (
(68,284,ls),
(62,277,o),
(63,273,o),
(70,268,cs),
(138,218,ls),
(145,213,o),
(150,213,o),
(155,221,cs),
(198,289,l),
(242,221,ls),
(247,213,o),
(252,213,o),
(259,218,cs),
(326,268,ls),
(333,273,o),
(335,277,o),
(329,284,cs),
(276,351,l),
(360,372,ls),
(368,374,o),
(371,379,o),
(368,388,cs),
(342,467,ls),
(339,477,o),
(333,478,o),
(326,476,c),
(247,444,l),
(253,529,ls),
(254,538,o),
(249,542,o),
(240,542,cs),
(157,542,ls),
(148,542,o),
(142,538,o),
(143,529,cs),
(149,444,l),
(70,476,l),
(63,478,o),
(57,477,o),
(54,467,cs),
(29,388,ls),
(26,379,o),
(29,374,o),
(37,372,cs),
(120,351,l)
);
}
);
width = 393;
}
);
note = asterisk;
unicode = 42;
},
{
glyphname = plus;
layers = (
{
layerId = m01;
shapes = (
{
closed = 1;
nodes = (
(156,90,ls),
(156,81,o),
(160,77,o),
(169,77,cs),
(263,77,ls),
(272,77,o),
(276,81,o),
(276,90,cs),
(276,217,l),
(393,217,ls),
(402,217,o),
(407,221,o),
(407,230,cs),
(407,316,ls),
(407,324,o),
(402,329,o),
(393,329,cs),
(276,329,l),
(276,386,ls),
(276,447,o),
(252,468,o),
(187,468,cs),
(169,468,ls),
(160,468,o),
(156,464,o),
(156,457,cs),
(156,329,l),
(38,329,ls),
(29,329,o),
(25,324,o),
(25,316,cs),
(25,230,ls),
(25,221,o),
(29,217,o),
(38,217,cs),
(156,217,l)
);
}
);
width = 432;
}
);
note = plus;
unicode = 43;
},
{
glyphname = comma;
layers = (
{
layerId = m01;
shapes = (
{
closed = 1;
nodes = (
(67,-22,o),
(50,-41,o),
(38,-52,cs),
(24,-66,o),
(30,-89,o),
(52,-109,cs),
(55,-112,o),
(61,-113,o),
(66,-109,cs),
(131,-60,o),
(172,-5,o),
(172,68,cs),
(172,116,o),
(140,146,o),
(95,146,cs),
(53,146,o),
(18,113,o),
(18,68,cs),
(18,31,o),
(41,3,o),
(74,-6,c)
);
}
);
width = 190;
}
);
note = comma;
unicode = 44;
},
{
glyphname = hyphen;
layers = (
{
layerId = m01;
shapes = (
{
closed = 1;
nodes = (
(265,145,ls),
(274,145,o),
(277,149,o),
(277,158,cs),
(277,257,ls),
(277,266,o),
(274,269,o),
(265,269,cs),
(41,269,ls),
(32,269,o),
(28,266,o),
(28,257,cs),
(28,158,ls),
(28,149,o),
(32,145,o),
(41,145,cs)
);
}
);
width = 304;
}
);
note = hyphen;
unicode = 45;
},
{
glyphname = period;
layers = (
{
layerId = m01;
shapes = (
{
closed = 1;
nodes = (
(62,146,o),
(28,111,o),
(28,68,cs),
(28,24,o),
(62,-10,o),
(104,-10,cs),
(146,-10,o),
(180,24,o),
(180,68,cs),
(180,111,o),
(146,146,o),
(104,146,cs)
);
}
);
width = 208;
}
);
note = period;
unicode = 46;
},
{
glyphname = slash;
layers = (
{
layerId = m01;
shapes = (
{
closed = 1;
nodes = (
(112,0,ls),
(122,0,o),
(128,4,o),
(132,13,cs),
(326,473,ls),
(345,518,o),
(329,556,o),
(283,556,cs),
(250,556,ls),
(240,556,o),
(233,551,o),
(229,542,cs),
(5,13,ls),
(2,7,o),
(4,0,o),
(13,0,cs)
);
}
);
width = 334;
}
);
note = slash;
unicode = 47;
},
{
glyphname = zero;
layers = (
{
layerId = m01;
shapes = (
{
closed = 1;
nodes = (
(214,115,o),
(169,159,o),
(169,279,cs),
(169,398,o),
(215,442,o),
(271,442,cs),
(326,442,o),
(373,398,o),
(373,279,cs),
(373,159,o),
(328,115,o),
(271,115,cs)
);
},
{
closed = 1;
nodes = (
(413,-10,o),
(510,92,o),
(510,279,cs),
(510,466,o),
(411,566,o),
(271,566,cs),
(130,566,o),
(32,466,o),
(32,279,cs),
(32,92,o),
(129,-10,o),
(271,-10,cs)
);
}
);
width = 542;
}
);
note = zero;
unicode = 48;
},
{
glyphname = one;
layers = (
{
layerId = m01;
shapes = (
{
closed = 1;
nodes = (
(35,123,ls),
(26,123,o),
(22,119,o),
(22,110,cs),
(22,13,ls),
(22,4,o),
(26,0,o),
(35,0,cs),
(351,0,ls),
(361,0,o),
(368,7,o),
(368,17,cs),
(368,57,ls),
(368,99,o),
(344,123,o),
(298,123,cs),
(255,123,l),
(255,488,ls),
(255,531,o),
(231,556,o),
(185,556,cs),
(146,556,ls),
(128,556,o),
(106,551,o),
(93,546,cs),
(38,526,ls),
(28,522,o),
(23,516,o),
(23,506,cs),
(23,403,ls),
(23,394,o),
(30,391,o),
(38,393,c),
(121,424,l),
(121,123,l)
);
}
);
width = 378;
}
);
note = one;
unicode = 49;
},
{
glyphname = two;
layers = (
{
layerId = m01;
shapes = (
{
closed = 1;
nodes = (
(226,196,o),
(425,234,o),
(425,401,cs),
(425,512,o),
(337,566,o),
(224,566,cs),
(173,566,o),
(127,557,o),
(89,542,cs),
(43,524,o),
(31,498,o),
(45,457,cs),
(58,419,ls),
(60,412,o),
(64,408,o),
(70,408,cs),
(76,408,o),
(80,411,o),
(85,413,cs),
(134,435,o),
(167,448,o),
(215,448,cs),
(260,448,o),
(287,433,o),
(287,396,cs),
(287,273,o),
(23,294,o),
(23,13,cs),
(23,4,o),
(27,0,o),
(36,0,cs),
(416,0,ls),
(426,0,o),
(432,7,o),
(432,17,cs),
(432,59,ls),
(432,101,o),
(408,123,o),
(362,123,cs),
(189,123,l)
);
}
);
width = 462;
}
);
note = two;
unicode = 50;
},
{
glyphname = three;
layers = (
{
layerId = m01;
shapes = (
{
closed = 1;
nodes = (
(377,316,o),
(407,357,o),
(407,414,cs),
(407,522,o),
(321,566,o),
(214,566,cs),
(159,566,o),
(116,559,o),
(76,543,cs),
(30,526,o),
(19,499,o),
(32,458,cs),
(46,418,l),
(49,412,o),
(51,408,o),
(56,408,cs),
(61,408,o),
(66,411,o),
(71,413,cs),
(109,433,o),
(145,449,o),
(200,449,cs),
(247,449,o),
(272,433,o),
(272,401,cs),
(272,371,o),
(254,346,o),
(203,346,cs),
(107,346,ls),
(97,346,o),
(92,337,o),
(92,327,cs),
(92,281,ls),
(92,238,o),
(111,224,o),
(157,224,cs),
(220,224,ls),
(260,224,o),
(290,212,o),
(290,176,cs),
(290,133,o),
(258,108,o),
(203,108,cs),
(129,108,o),
(85,139,o),
(51,168,cs),
(44,175,o),
(39,177,o),
(34,177,cs),
(21,177,o),
(13,164,o),
(13,148,cs),
(13,81,o),
(76,-10,o),
(217,-10,cs),
(346,-10,o),
(426,66,o),
(426,167,cs),
(426,228,o),
(401,276,o),
(332,293,c)
);
}
);
width = 452;
}
);
note = three;
unicode = 51;
},
{
glyphname = four;
layers = (
{
layerId = m01;
shapes = (
{
closed = 1;
nodes = (
(264,13,ls),
(264,4,o),
(268,0,o),
(275,0,cs),
(383,0,ls),
(392,0,o),
(394,4,o),
(394,13,cs),
(394,106,l),
(470,106,ls),
(480,106,o),
(487,113,o),
(487,123,cs),
(487,163,ls),
(487,206,o),
(463,230,o),
(418,230,cs),
(394,230,l),
(394,488,ls),
(394,531,o),
(370,556,o),
(324,556,cs),
(253,556,ls),
(227,556,o),
(217,544,o),
(208,531,cs),
(16,224,ls),
(8,211,o),
(6,206,o),
(6,193,cs),
(6,119,ls),
(6,110,o),
(10,106,o),
(19,106,cs),
(264,106,l)
);
},
{
closed = 1;
nodes = (
(264,404,l),
(264,230,l),
(155,230,l)
);
}
);
width = 498;
}
);
note = four;
unicode = 52;
},
{
glyphname = five;
layers = (
{
layerId = m01;
shapes = (
{
closed = 1;
nodes = (
(388,433,ls),
(398,433,o),
(404,439,o),
(404,449,cs),
(404,488,ls),
(404,531,o),
(380,556,o),
(334,556,cs),
(53,556,ls),
(44,556,o),
(40,551,o),
(40,542,cs),
(40,248,ls),
(40,238,o),
(46,234,o),
(56,237,cs),
(91,248,o),
(140,259,o),
(201,259,cs),
(255,259,o),
(299,239,o),
(299,192,cs),
(299,137,o),
(266,108,o),
(203,108,cs),
(131,108,o),
(87,137,o),
(56,164,cs),
(48,171,o),
(41,173,o),
(38,173,cs),
(25,173,o),
(17,163,o),
(17,143,cs),
(17,69,o),
(90,-10,o),
(218,-10,cs),
(339,-10,o),
(434,65,o),
(434,193,cs),
(434,309,o),
(360,377,o),
(236,377,cs),
(208,377,o),
(180,373,o),
(161,369,c),
(161,433,l)
);
}
);
width = 461;
}
);
note = five;
unicode = 53;
},
{
glyphname = six;
layers = (
{
layerId = m01;
shapes = (
{
closed = 1;
nodes = (
(288,443,ls),
(326,508,o),
(288,566,o),
(230,566,cs),
(218,566,o),
(213,562,o),
(208,554,cs),
(100,381,ls),
(47,294,o),
(27,252,o),
(27,191,cs),
(27,74,o),
(120,-9,o),
(250,-9,cs),
(381,-9,o),
(463,83,o),
(463,203,cs),
(463,298,o),
(391,394,o),
(268,394,cs),
(265,394,o),
(261,394,o),
(259,394,c)
);
},
{
closed = 1;
nodes = (
(161,242,o),
(196,279,o),
(246,279,cs),
(294,279,o),
(329,242,o),
(329,194,cs),
(329,145,o),
(295,110,o),
(249,110,cs),
(199,110,o),
(161,144,o),
(161,194,cs)
);
}
);
width = 486;
}
);
note = six;
unicode = 54;
},
{
glyphname = seven;
layers = (
{
layerId = m01;
shapes = (
{
closed = 1;
nodes = (
(59,13,ls),
(56,7,o),
(59,0,o),
(67,0,cs),
(183,0,ls),
(193,0,o),
(198,4,o),
(202,13,cs),
(383,419,ls),
(393,442,o),
(396,454,o),
(396,476,cs),
(396,488,ls),
(396,531,o),
(372,556,o),
(326,556,cs),
(28,556,ls),
(19,556,o),
(15,551,o),
(15,542,cs),
(15,446,ls),
(15,437,o),
(19,433,o),
(28,433,cs),
(247,433,l)
);
}
);
width = 421;
}
);
note = seven;
unicode = 55;
},
{
glyphname = eight;
layers = (
{
layerId = m01;
shapes = (
{
closed = 1;
nodes = (
(46,262,o),
(22,215,o),
(22,164,cs),
(22,66,o),
(100,-9,o),
(244,-9,cs),
(386,-9,o),
(464,66,o),
(464,164,cs),
(464,218,o),
(445,262,o),
(384,289,c),
(425,314,o),
(453,355,o),
(453,413,cs),
(453,508,o),
(368,566,o),
(244,566,cs),
(119,566,o),
(34,508,o),
(34,413,cs),
(34,354,o),
(60,314,o),
(100,291,c)
);
},
{
closed = 1;
nodes = (
(156,209,o),
(188,233,o),
(244,233,cs),
(299,233,o),
(329,209,o),
(329,165,cs),
(329,130,o),
(299,100,o),
(244,100,cs),
(188,100,o),
(156,130,o),
(156,165,cs)
);
},
{
closed = 1;
nodes = (
(165,432,o),
(193,458,o),
(244,458,cs),
(294,458,o),
(320,432,o),
(320,398,cs),
(320,364,o),
(294,339,o),
(244,339,cs),
(193,339,o),
(165,364,o),
(165,398,cs)
);
}
);
width = 487;
}
);
note = eight;
unicode = 56;
},
{
glyphname = nine;
layers = (
{
layerId = m01;
shapes = (
{
closed = 1;
nodes = (
(195,114,ls),
(159,54,o),
(195,-10,o),
(253,-10,cs),
(265,-10,o),
(273,-5,o),
(276,3,c),
(388,181,ls),
(441,267,o),
(458,315,o),
(458,367,cs),
(458,486,o),
(370,566,o),
(239,566,cs),
(109,566,o),
(22,477,o),
(22,351,cs),
(22,259,o),
(91,163,o),
(213,163,cs),
(218,163,o),
(221,163,o),
(225,163,c)
);
},
{
closed = 1;
nodes = (
(187,277,o),
(155,312,o),
(155,363,cs),
(155,412,o),
(189,448,o),
(236,448,cs),
(285,448,o),
(323,413,o),
(323,363,cs),
(323,316,o),
(288,277,o),
(239,277,cs)
);
}
);
width = 484;
}
);
note = nine;
unicode = 57;
},
{
glyphname = colon;
layers = (
{
layerId = m01;
shapes = (
{
closed = 1;
nodes = (
(67,374,o),
(33,340,o),
(33,297,cs),
(33,253,o),
(67,219,o),
(109,219,cs),
(151,219,o),
(185,253,o),
(185,297,cs),
(185,340,o),
(151,374,o),
(109,374,cs)
);
},
{
closed = 1;
nodes = (
(67,146,o),
(33,111,o),
(33,68,cs),
(33,24,o),
(67,-10,o),
(109,-10,cs),
(151,-10,o),
(185,24,o),
(185,68,cs),
(185,111,o),
(151,146,o),
(109,146,cs)
);
}
);
width = 219;
}
);
note = colon;
unicode = 58;
},
{
glyphname = semicolon;
layers = (
{
layerId = m01;
shapes = (
{
closed = 1;
nodes = (
(78,-22,o),
(60,-41,o),
(49,-52,cs),
(34,-66,o),
(41,-89,o),
(63,-109,cs),
(66,-112,o),
(71,-113,o),
(77,-109,cs),
(141,-60,o),
(183,-5,o),
(183,68,cs),
(183,116,o),
(151,146,o),
(106,146,cs),
(64,146,o),
(29,113,o),
(29,68,cs),
(29,31,o),
(52,3,o),
(85,-6,c)
);
},
{
closed = 1;
nodes = (
(28,251,o),
(64,219,o),
(106,219,cs),
(151,219,o),
(183,251,o),
(183,296,cs),
(183,341,o),
(151,373,o),
(106,373,cs),
(64,373,o),
(28,341,o),
(28,296,cs)
);
}
);
width = 212;
}
);
note = semicolon;
unicode = 59;
},
{
glyphname = less;
layers = (
{
layerId = m01;
shapes = (
{
closed = 1;
nodes = (
(413,363,ls),
(424,368,o),
(428,376,o),
(428,386,cs),
(428,477,ls),
(428,484,o),
(421,488,o),
(413,484,cs),
(43,322,ls),
(34,318,o),
(30,312,o),
(30,303,cs),
(30,242,ls),
(30,231,o),
(34,224,o),
(43,221,c),
(417,58,ls),
(424,55,o),
(428,58,o),
(428,65,cs),
(428,82,ls),
(428,146,o),
(413,182,o),
(348,209,cs),
(199,272,l)
);
}
);
width = 462;
}
);
note = less;
unicode = 60;
},
{
glyphname = equal;
layers = (
{
layerId = m01;
shapes = (
{
closed = 1;
nodes = (
(25,318,o),
(29,314,o),
(38,314,cs),
(393,314,ls),
(402,314,o),
(407,318,o),
(407,327,cs),
(407,359,ls),
(407,402,o),
(383,427,o),
(337,427,cs),
(38,427,ls),
(29,427,o),
(25,422,o),
(25,413,cs),
(25,327,ls)
);
},
{
closed = 1;
nodes = (
(25,122,o),
(29,118,o),
(38,118,cs),
(393,118,ls),
(402,118,o),
(407,122,o),
(407,131,cs),
(407,164,ls),
(407,207,o),
(383,231,o),
(337,231,cs),
(38,231,ls),
(29,231,o),
(25,227,o),
(25,218,cs),
(25,131,ls)
);
}
);
width = 432;
}
);
note = equal;
unicode = 61;
},
{
glyphname = greater;
layers = (
{
layerId = m01;
shapes = (
{
closed = 1;
nodes = (
(115,209,ls),
(51,182,o),
(35,146,o),
(35,82,cs),
(35,65,ls),
(35,58,o),
(40,55,o),
(47,58,cs),
(421,221,ls),
(429,224,o),
(433,231,o),
(433,242,cs),
(433,303,ls),
(433,312,o),
(429,318,o),
(421,322,cs),
(50,484,ls),
(42,488,o),
(35,484,o),
(35,477,cs),
(35,386,ls),
(35,376,o),
(39,368,o),
(50,363,cs),
(264,272,l)
);
}
);
width = 462;
}
);
note = greater;
unicode = 62;
},
{
glyphname = question;
layers = (
{
layerId = m01;
shapes = (
{
closed = 1;
nodes = (
(107,23,o),
(142,-9,o),
(186,-9,cs),
(231,-9,o),
(262,23,o),
(262,68,cs),
(262,113,o),
(231,146,o),
(186,146,cs),
(142,146,o),
(107,113,o),
(107,68,cs)
);
},
{
closed = 1;
nodes = (
(127,171,o),
(131,167,o),
(140,167,cs),
(227,167,ls),
(236,167,o),
(241,171,o),
(241,180,cs),
(241,190,ls),
(241,203,o),
(242,209,o),
(257,220,cs),
(342,282,o),
(394,328,o),
(394,417,cs),
(394,518,o),
(309,566,o),
(201,566,cs),
(150,566,o),
(105,557,o),
(68,539,cs),
(21,518,o),
(13,493,o),
(27,453,cs),
(40,414,ls),
(42,408,o),
(45,406,o),
(50,406,cs),
(52,406,o),
(57,407,o),
(63,409,c),
(102,429,o),
(143,446,o),
(195,446,cs),
(234,446,o),
(255,429,o),
(255,398,cs),
(255,330,o),
(127,309,o),
(127,210,cs),
(127,180,ls)
);
}
);
width = 416;
}
);
note = question;
unicode = 63;
},
{
glyphname = at;
layers = (
{
layerId = m01;
shapes = (
{
closed = 1;
nodes = (
(492,55,o),
(523,33,o),
(577,33,cs),
(688,33,o),
(770,143,o),
(770,269,cs),
(770,477,o),
(598,571,o),
(411,571,cs),
(204,571,o),
(35,429,o),
(35,215,cs),
(35,-9,o),
(191,-142,o),
(404,-142,cs),
(598,-142,o),
(669,-36,o),
(669,11,cs),
(669,18,o),
(665,23,o),
(660,23,cs),
(653,23,o),
(651,19,o),
(643,15,cs),
(579,-19,o),
(533,-42,o),
(427,-42,cs),
(250,-42,o),
(153,56,o),
(153,218,cs),
(153,367,o),
(264,467,o),
(408,467,cs),
(550,467,o),
(656,409,o),
(656,264,cs),
(656,178,o),
(622,133,o),
(592,133,cs),
(579,133,o),
(573,143,o),
(573,151,cs),
(573,157,o),
(574,168,o),
(576,175,c),
(596,386,ls),
(597,394,o),
(593,399,o),
(586,399,cs),
(567,399,ls),
(533,399,o),
(506,391,o),
(489,366,c),
(468,392,o),
(433,409,o),
(391,409,cs),
(291,409,o),
(212,326,o),
(212,218,cs),
(212,99,o),
(279,33,o),
(366,33,cs),
(423,33,o),
(457,60,o),
(476,85,c)
);
},
{
closed = 1;
nodes = (
(358,143,o),
(339,177,o),
(339,213,cs),
(339,260,o),
(364,298,o),
(407,298,cs),
(443,298,o),
(461,274,o),
(461,239,cs),
(461,185,o),
(438,143,o),
(396,143,cs)
);
}
);
width = 805;
}
);
note = at;
unicode = 64;
},
{
glyphname = A;
kernLeft = A;
kernRight = A;
layers = (
{
layerId = m01;
shapes = (
{
closed = 1;
nodes = (
(266,384,l),
(315,241,l),
(219,241,l)
);
},
{
closed = 1;
nodes = (
(352,125,l),
(390,13,l),
(394,5,o),
(399,0,o),
(410,0,cs),
(525,0,ls),
(534,0,o),
(536,7,o),
(535,13,c),
(372,466,ls),
(347,537,o),
(321,556,o),
(265,556,cs),
(206,556,ls),
(197,556,o),
(194,552,o),
(191,544,cs),
(5,13,ls),
(3,7,o),
(6,0,o),
(14,0,cs),
(127,0,ls),
(135,0,o),
(139,4,o),
(142,13,cs),
(180,125,l)
);
}
);
width = 538;
}
);
note = A;
unicode = 65;
},
{
glyphname = B;
layers = (
{
layerId = m01;
shapes = (
{
closed = 1;
nodes = (
(417,312,o),
(448,349,o),
(448,406,cs),
(448,504,o),
(379,556,o),
(257,556,cs),
(59,556,ls),
(50,556,o),
(46,551,o),
(46,542,cs),
(46,13,ls),
(46,4,o),
(50,0,o),
(59,0,cs),
(274,0,ls),
(403,0,o),
(465,59,o),
(465,162,cs),
(465,222,o),
(432,267,o),
(380,289,c)
);
},
{
closed = 1;
nodes = (
(180,235,l),
(262,235,ls),
(307,235,o),
(328,207,o),
(328,176,cs),
(328,119,o),
(284,118,o),
(262,118,cs),
(180,118,l)
);
},
{
closed = 1;
nodes = (
(180,438,l),
(260,438,ls),
(298,438,o),
(312,416,o),
(312,392,cs),
(312,369,o),
(301,342,o),
(264,342,cs),
(180,342,l)
);
}
);
width = 484;
}
);
note = B;
unicode = 66;
},
{
glyphname = C;
kernLeft = C;
kernRight = C;
layers = (
{
layerId = m01;
shapes = (
{
closed = 1;
nodes = (
(430,148,o),
(388,118,o),
(318,118,cs),
(235,118,o),
(173,169,o),
(173,276,cs),
(173,389,o),
(230,439,o),
(309,439,cs),
(363,439,o),
(397,428,o),
(436,408,c),
(442,406,o),
(452,401,o),
(458,401,cs),
(463,401,o),
(468,403,o),
(471,413,cs),
(482,457,ls),
(493,498,o),
(481,526,o),
(440,543,cs),
(400,561,o),
(352,566,o),
(305,566,cs),
(148,566,o),
(34,458,o),
(34,276,cs),
(34,99,o),
(139,-9,o),
(291,-9,cs),
(450,-9,o),
(497,100,o),
(497,159,cs),
(497,182,o),
(486,186,o),
(478,186,cs),
(471,186,o),
(465,179,o),
(461,177,c)
);
}
);
width = 507;
}
);
note = C;
unicode = 67;
},
{
glyphname = D;
layers = (
{
layerId = m01;
shapes = (
{
closed = 1;
nodes = (
(180,431,l),
(230,431,ls),
(327,431,o),
(383,394,o),
(383,284,cs),
(383,179,o),
(328,125,o),
(235,125,cs),
(180,125,l)
);
},
{
closed = 1;
nodes = (
(46,4,o),
(50,0,o),
(59,0,cs),
(224,0,ls),
(407,0,o),
(523,90,o),
(523,288,cs),
(523,501,o),
(378,556,o),
(230,556,cs),
(59,556,ls),
(50,556,o),
(46,551,o),
(46,542,cs),
(46,13,ls)
);
}
);
width = 557;
}
);
note = D;
unicode = 68;
},
{
glyphname = E;
kernRight = E;
layers = (
{
layerId = m01;
shapes = (
{
closed = 1;
nodes = (
(182,221,l),
(364,221,ls),
(374,221,o),
(380,228,o),
(380,237,cs),
(380,277,ls),
(380,320,o),
(356,344,o),
(310,344,cs),
(182,344,l),
(182,430,l),
(383,430,ls),
(393,430,o),
(399,437,o),
(399,447,cs),
(399,489,ls),
(399,532,o),
(375,556,o),
(329,556,cs),
(59,556,ls),
(50,556,o),
(46,552,o),
(46,542,cs),
(46,13,ls),
(46,4,o),
(50,0,o),
(59,0,cs),
(391,0,ls),
(401,0,o),
(407,7,o),
(407,17,cs),
(407,59,ls),
(407,101,o),
(383,125,o),
(337,125,cs),
(182,125,l)
);
}
);
width = 424;
}
);
note = E;
unicode = 69;
},
{
glyphname = F;
layers = (
{
layerId = m01;
shapes = (
{
closed = 1;
nodes = (
(359,215,ls),
(369,215,o),
(375,222,o),
(375,232,cs),
(375,272,ls),
(375,314,o),
(352,338,o),
(305,338,cs),
(180,338,l),
(180,431,l),
(383,431,ls),
(393,431,o),
(398,438,o),
(398,448,cs),
(398,488,ls),
(398,531,o),
(375,556,o),
(329,556,cs),
(59,556,ls),
(50,556,o),
(46,551,o),
(46,542,cs),
(46,13,ls),
(46,4,o),
(50,0,o),
(59,0,cs),
(168,0,ls),
(177,0,o),
(180,4,o),
(180,13,cs),
(180,215,l)
);
}
);
width = 412;
}
);
note = F;
unicode = 70;
},
{
glyphname = G;
layers = (
{
layerId = m01;
shapes = (
{
closed = 1;
nodes = (
(367,123,o),
(343,117,o),
(311,117,cs),
(226,117,o),
(176,174,o),
(176,274,cs),
(176,394,o),
(234,439,o),
(328,439,cs),
(382,439,o),
(413,428,o),
(452,408,c),
(458,406,o),
(468,401,o),
(475,401,cs),
(481,401,o),
(485,403,o),
(487,413,cs),
(498,457,ls),
(510,498,o),
(498,526,o),
(457,543,cs),
(417,561,o),
(366,566,o),
(318,566,cs),
(142,566,o),
(34,459,o),
(34,282,cs),
(34,66,o),
(164,-9,o),
(313,-9,cs),
(386,-9,o),
(438,4,o),
(502,52,cs),
(520,64,o),
(525,75,o),
(525,95,cs),
(525,307,ls),
(525,317,o),
(518,324,o),
(508,324,cs),
(290,324,ls),
(280,324,o),
(275,317,o),
(275,307,cs),
(275,266,ls),
(275,223,o),
(298,199,o),
(344,199,cs),
(395,199,l),
(395,138,l)
);
}
);
width = 557;
}
);
note = G;
unicode = 71;
},
{
glyphname = H;
layers = (
{
layerId = m01;
shapes = (
{
closed = 1;
nodes = (
(350,215,l),
(350,13,ls),
(350,4,o),
(354,0,o),
(363,0,cs),
(472,0,ls),
(481,0,o),
(485,4,o),
(485,13,cs),
(485,456,ls),
(485,528,o),
(455,556,o),
(392,556,cs),
(363,556,ls),
(354,556,o),
(350,551,o),
(350,542,cs),
(350,339,l),
(180,339,l),
(180,456,ls),
(180,528,o),
(149,556,o),
(87,556,cs),
(59,556,ls),
(50,556,o),
(46,551,o),
(46,542,cs),
(46,13,ls),
(46,4,o),
(50,0,o),
(59,0,cs),
(168,0,ls),
(177,0,o),
(180,4,o),
(180,13,cs),
(180,215,l)
);
}
);
width = 532;
}
);
note = H;
unicode = 72;
},
{
glyphname = I;
kernRight = I;
layers = (
{
layerId = m01;
shapes = (
{
closed = 1;
nodes = (
(46,4,o),
(50,0,o),
(59,0,cs),
(168,0,ls),
(177,0,o),
(182,4,o),
(182,13,cs),
(182,455,ls),
(182,528,o),
(150,556,o),
(87,556,cs),
(59,556,ls),
(50,556,o),
(46,552,o),
(46,542,cs),
(46,13,ls)
);
}
);
width = 227;
}
);
note = I;
unicode = 73;
},
{
glyphname = J;
layers = (
{
layerId = m01;
shapes = (
{
closed = 1;
nodes = (
(0,52,o),
(45,-10,o),
(135,-10,cs),
(228,-10,o),
(278,47,o),
(278,153,cs),
(278,456,ls),
(278,528,o),
(248,556,o),
(184,556,cs),
(156,556,ls),
(147,556,o),
(143,551,o),
(143,542,cs),
(143,157,ls),
(143,119,o),
(124,99,o),
(92,99,cs),
(71,99,o),
(55,104,o),
(40,118,cs),
(33,124,o),
(30,129,o),
(19,129,cs),
(7,129,o),
(0,117,o),
(0,104,cs)
);
}
);
width = 322;
}
);
note = J;
unicode = 74;
},
{
glyphname = K;
layers = (
{
layerId = m01;
shapes = (
{
closed = 1;
nodes = (
(225,233,l),
(354,16,l),
(362,5,o),
(370,0,o),
(385,0,cs),
(503,0,ls),
(512,0,o),
(515,8,o),
(512,14,cs),
(318,343,l),
(484,542,ls),
(489,548,o),
(487,556,o),
(477,556,cs),
(362,556,ls),
(349,556,o),
(340,552,o),
(330,539,cs),
(180,359,l),
(180,456,ls),
(180,528,o),
(149,556,o),
(87,556,cs),
(59,556,ls),
(50,556,o),
(46,551,o),
(46,542,cs),
(46,13,ls),
(46,4,o),
(50,0,o),
(59,0,cs),
(168,0,ls),
(177,0,o),
(180,4,o),
(180,13,cs),
(180,181,l)
);
}
);
width = 517;
}
);
note = K;
unicode = 75;
},
{
glyphname = L;
layers = (
{
layerId = m01;
shapes = (
{
closed = 1;
nodes = (
(180,456,ls),
(180,528,o),
(149,556,o),
(87,556,cs),
(59,556,ls),
(50,556,o),
(46,551,o),
(46,542,cs),
(46,13,ls),
(46,4,o),
(50,0,o),
(59,0,cs),
(360,0,ls),
(370,0,o),
(377,7,o),
(377,17,cs),
(377,59,ls),
(377,101,o),
(353,125,o),
(307,125,cs),
(180,125,l)
);
}
);
width = 386;
}
);
note = L;
unicode = 76;
},
{
glyphname = M;
layers = (
{
layerId = m01;
shapes = (
{
closed = 1;
nodes = (
(261,13,ls),
(263,6,o),
(268,0,o),
(276,0,cs),
(378,0,ls),
(387,0,o),
(391,5,o),
(393,13,cs),
(477,319,l),
(492,13,ls),
(492,5,o),
(497,0,o),
(505,0,cs),
(617,0,ls),
(625,0,o),
(627,4,o),
(627,13,cs),
(601,487,ls),
(599,527,o),
(567,556,o),
(522,556,cs),
(428,556,ls),
(420,556,o),
(414,550,o),
(412,542,cs),
(329,227,l),
(257,503,ls),
(246,546,o),
(213,556,o),
(168,556,cs),
(72,556,ls),
(65,556,o),
(60,549,o),
(60,542,cs),
(29,13,ls),
(29,5,o),
(33,0,o),
(40,0,cs),
(153,0,ls),
(160,0,o),
(164,5,o),
(164,13,cs),
(180,318,l)
);
}
);
width = 655;
}
);
note = M;
unicode = 77;
},
{
glyphname = N;
kernRight = N;
layers = (
{
layerId = m01;
shapes = (
{
closed = 1;
nodes = (
(354,18,ls),
(362,4,o),
(370,0,o),
(385,0,cs),
(479,0,ls),
(488,0,o),
(492,4,o),
(492,13,cs),
(492,455,ls),
(492,528,o),
(462,556,o),
(398,556,cs),
(370,556,ls),
(361,556,o),
(357,552,o),
(357,542,cs),
(357,261,l),
(209,500,ls),
(183,542,o),
(159,556,o),
(111,556,cs),
(59,556,ls),
(50,556,o),
(46,552,o),
(46,542,cs),
(46,13,ls),
(46,4,o),
(50,0,o),
(59,0,cs),
(168,0,ls),
(177,0,o),
(182,4,o),
(182,13,cs),
(182,297,l)
);
}
);
width = 537;
}
);
note = N;
unicode = 78;
},
{
glyphname = O;
kernLeft = O;
kernRight = O;
layers = (
{
layerId = m01;
shapes = (
{
closed = 1;
nodes = (
(228,118,o),
(172,160,o),
(172,277,cs),
(172,397,o),
(228,439,o),
(303,439,cs),
(377,439,o),
(434,397,o),
(434,277,cs),
(434,160,o),
(377,118,o),
(303,118,cs)
);
},
{
closed = 1;
nodes = (
(475,-9,o),
(572,101,o),
(572,277,cs),
(572,454,o),
(473,566,o),
(303,566,cs),
(133,566,o),
(34,454,o),
(34,277,cs),
(34,101,o),
(131,-9,o),
(303,-9,cs)
);
}
);
width = 606;
}
);
note = O;
unicode = 79;
},
{
glyphname = P;
layers = (
{
layerId = m01;
shapes = (
{
closed = 1;
nodes = (
(180,431,l),
(267,431,ls),
(308,431,o),
(338,411,o),
(338,368,cs),
(338,312,o),
(299,303,o),
(267,303,cs),
(180,303,l)
);
},
{
closed = 1;
nodes = (
(273,178,ls),
(394,178,o),
(472,262,o),
(472,372,cs),
(472,483,o),
(410,556,o),
(258,556,cs),
(59,556,ls),
(50,556,o),
(46,551,o),
(46,542,cs),
(46,13,ls),
(46,4,o),
(50,0,o),
(59,0,cs),
(168,0,ls),
(177,0,o),
(180,4,o),
(180,13,cs),
(180,178,l)
);
}
);
width = 494;
}
);
note = P;
unicode = 80;
},
{
glyphname = Q;
layers = (
{
layerId = m01;
shapes = (
{
closed = 1;
nodes = (
(300,-77,o),
(347,-113,o),
(433,-113,cs),
(513,-113,o),
(561,-56,o),
(561,-8,cs),
(561,7,o),
(554,22,o),
(537,22,cs),
(532,22,o),
(526,21,o),
(522,18,cs),
(505,6,o),
(485,0,o),
(468,0,cs),
(453,0,o),
(440,6,o),
(428,15,c),
(522,56,o),
(572,149,o),
(572,277,cs),
(572,454,o),
(473,566,o),
(303,566,cs),
(133,566,o),
(34,454,o),
(34,277,cs),
(34,116,o),
(115,12,o),
(260,-6,c)
);
},
{
closed = 1;
nodes = (
(229,118,o),
(172,160,o),
(172,277,cs),
(172,397,o),
(229,439,o),
(303,439,cs),
(378,439,o),
(435,397,o),
(435,277,cs),
(435,160,o),
(378,118,o),
(303,118,cs)
);
}
);
width = 606;
}
);
note = Q;
unicode = 81;
},
{
glyphname = R;
layers = (
{
layerId = m01;
shapes = (
{
closed = 1;
nodes = (
(180,431,l),
(267,431,ls),
(308,431,o),
(338,409,o),
(338,367,cs),
(338,311,o),
(299,299,o),
(267,299,cs),
(180,299,l)
);
},
{
closed = 1;
nodes = (
(237,179,l),
(327,15,ls),
(334,2,o),
(340,0,o),
(355,0,cs),
(473,0,ls),
(483,0,o),
(487,7,o),
(482,15,cs),
(370,200,l),
(434,232,o),
(472,293,o),
(472,369,cs),
(472,481,o),
(409,556,o),
(257,556,cs),
(59,556,ls),
(50,556,o),
(46,551,o),
(46,542,cs),
(46,13,ls),
(46,4,o),
(50,0,o),
(59,0,cs),
(168,0,ls),
(177,0,o),
(180,4,o),
(180,13,cs),
(180,179,l)
);
}
);
width = 504;
}
);
note = R;
unicode = 82;
},
{
glyphname = S;
kernLeft = S;
kernRight = S;
layers = (
{
layerId = m01;
shapes = (
{
closed = 1;
nodes = (
(10,86,o),
(82,-10,o),
(227,-10,cs),
(361,-10,o),
(441,63,o),
(441,170,cs),
(441,371,o),
(166,327,o),
(166,408,cs),
(166,434,o),
(189,448,o),
(237,448,cs),
(290,448,o),
(333,435,o),
(377,416,cs),
(383,413,o),
(389,411,o),
(394,411,cs),
(401,411,o),
(404,416,o),
(406,424,cs),
(416,460,ls),
(428,503,o),
(419,529,o),
(373,546,cs),
(331,559,o),
(289,566,o),
(233,566,cs),
(121,566,o),
(27,512,o),
(27,401,cs),
(27,203,o),
(301,238,o),
(301,162,cs),
(301,135,o),
(276,115,o),
(218,115,cs),
(140,115,o),
(84,140,o),
(48,177,cs),
(43,182,o),
(38,187,o),
(28,187,cs),
(18,187,o),
(10,176,o),
(10,162,cs)
);
}
);
width = 457;
}
);
note = S;
unicode = 83;
},
{
glyphname = T;
layers = (
{
layerId = m01;
shapes = (
{
closed = 1;
nodes = (
(161,13,ls),
(161,4,o),
(165,0,o),
(174,0,cs),
(283,0,ls),
(292,0,o),
(296,4,o),
(296,13,cs),
(296,431,l),
(442,431,ls),
(452,431,o),
(457,438,o),
(457,448,cs),
(457,488,ls),
(457,531,o),
(434,556,o),
(388,556,cs),
(18,556,ls),
(9,556,o),
(5,551,o),
(5,542,cs),
(5,443,ls),
(5,434,o),
(9,431,o),
(18,431,cs),
(161,431,l)
);
}
);
width = 462;
}
);
note = T;
unicode = 84;
},
{
glyphname = U;
kernLeft = U;
kernRight = U;
layers = (
{
layerId = m01;
shapes = (
{
closed = 1;
nodes = (
(43,139,o),
(68,-9,o),
(262,-9,cs),
(460,-9,o),
(486,139,o),
(486,211,cs),
(486,455,ls),
(486,528,o),
(455,556,o),
(392,556,cs),
(364,556,ls),
(355,556,o),
(351,552,o),
(351,542,cs),
(351,232,ls),
(351,163,o),
(327,117,o),
(262,117,cs),
(200,117,o),
(178,163,o),
(178,233,cs),
(178,455,ls),
(178,528,o),
(147,556,o),
(84,556,cs),
(56,556,ls),
(47,556,o),
(43,552,o),
(43,542,cs),
(43,211,ls)
);
}
);
width = 528;
}
);
note = U;
unicode = 85;
},
{
glyphname = V;
layers = (
{
layerId = m01;
shapes = (
{
closed = 1;
nodes = (
(181,466,ls),
(158,539,o),
(130,556,o),
(74,556,cs),
(16,556,ls),
(8,556,o),
(6,548,o),
(8,542,cs),
(184,13,ls),
(187,5,o),
(192,0,o),
(202,0,cs),
(325,0,ls),
(333,0,o),
(338,4,o),
(340,13,c),
(517,542,ls),
(519,549,o),
(515,556,o),
(507,556,cs),
(400,556,ls),
(389,556,o),
(383,551,o),
(380,542,cs),
(268,182,l)
);
}
);
width = 522;
}
);
note = V;
unicode = 86;
},
{
glyphname = W;
layers = (
{
layerId = m01;
shapes = (
{
closed = 1;
nodes = (
(171,466,ls),
(157,541,o),
(121,556,o),
(64,556,cs),
(23,556,ls),
(14,556,o),
(12,548,o),
(13,542,cs),
(136,13,l),
(139,5,o),
(144,0,o),
(153,0,cs),
(275,0,ls),
(283,0,o),
(288,5,o),
(290,13,cs),
(375,358,l),
(460,13,l),
(461,5,o),
(467,0,o),
(475,0,cs),
(596,0,ls),
(605,0,o),
(609,5,o),
(611,13,cs),
(741,542,l),
(744,550,o),
(740,556,o),
(733,556,cs),
(618,556,ls),
(609,556,o),
(604,550,o),
(601,542,c),
(530,196,l),
(473,466,ls),
(458,541,o),
(424,556,o),
(366,556,cs),
(313,556,ls),
(305,556,o),
(300,550,o),
(298,542,cs),
(222,197,l)
);
}
);
width = 754;
}
);
note = W;
unicode = 87;
},
{
glyphname = X;
layers = (
{
layerId = m01;
shapes = (
{
closed = 1;
nodes = (
(369,13,ls),
(374,4,o),
(383,0,o),
(391,0,cs),
(513,0,ls),
(521,0,o),
(524,7,o),
(520,13,cs),
(351,299,l),
(493,542,l),
(496,549,o),
(493,556,o),
(485,556,cs),
(365,556,ls),
(355,556,o),
(350,550,o),
(345,542,cs),
(258,393,l),
(204,483,ls),
(165,550,o),
(149,556,o),
(92,556,cs),
(25,556,ls),
(17,556,o),
(15,547,o),
(18,542,cs),
(166,291,l),
(5,13,ls),
(2,8,o),
(4,0,o),
(13,0,cs),
(135,0,ls),
(144,0,o),
(149,4,o),
(154,13,cs),
(260,199,l)
);
}
);
width = 522;
}
);
note = X;
unicode = 88;
},
{
glyphname = Y;
kernLeft = Y;
kernRight = Y;
layers = (
{
layerId = m01;
shapes = (
{
closed = 1;
nodes = (
(183,13,ls),
(183,4,o),
(187,0,o),
(196,0,cs),
(305,0,ls),
(314,0,o),
(318,4,o),
(318,13,cs),
(318,199,l),
(500,542,ls),
(503,548,o),
(501,556,o),
(492,556,cs),
(374,556,ls),
(366,556,o),
(359,552,o),
(354,542,cs),
(256,346,l),
(180,495,ls),
(157,539,o),
(128,556,o),
(81,556,cs),
(11,556,ls),
(2,556,o),
(0,548,o),
(3,542,cs),
(183,203,l)
);
}
);
width = 501;
}
);
note = Y;
unicode = 89;
},
{
glyphname = Z;
kernLeft = Z;
kernRight = Z;
layers = (
{
layerId = m01;
shapes = (
{
closed = 1;
nodes = (
(421,429,ls),
(431,442,o),
(436,453,o),
(436,467,cs),
(436,489,ls),
(436,532,o),
(413,556,o),
(366,556,cs),
(46,556,ls),
(37,556,o),
(33,552,o),
(33,542,cs),
(33,443,ls),
(33,434,o),
(37,430,o),
(46,430,cs),
(258,430,l),
(42,136,ls),
(31,121,o),
(27,109,o),
(27,94,cs),
(27,13,ls),
(27,4,o),
(31,0,o),
(40,0,cs),
(420,0,ls),
(430,0,o),
(436,7,o),
(436,17,cs),
(436,59,ls),
(436,101,o),
(413,125,o),
(366,125,cs),
(199,125,l)
);
}
);
width = 459;
}
);
note = Z;
unicode = 90;
},
{
glyphname = bracketleft;
layers = (
{
layerId = m01;
shapes = (
{
closed = 1;
nodes = (
(257,-144,o),
(268,-133,o),
(268,-118,cs),
(268,-109,ls),
(268,-61,o),
(239,-33,o),
(188,-33,cs),
(167,-33,ls),
(163,-33,o),
(162,-31,o),
(162,-29,cs),
(162,581,ls),
(162,583,o),
(163,585,o),
(167,585,cs),
(188,585,ls),
(239,585,o),
(268,612,o),
(268,661,cs),
(268,670,ls),
(268,685,o),
(257,696,o),
(242,696,cs),
(123,696,ls),
(73,696,o),
(44,668,o),
(44,620,cs),
(44,-68,ls),
(44,-117,o),
(73,-144,o),
(123,-144,cs),
(242,-144,ls)
);
}
);
width = 313;
}
);
note = bracketleft;
unicode = 91;
},
{
glyphname = backslash;
layers = (
{
layerId = m01;
shapes = (
{
closed = 1;
nodes = (
(233,4,o),
(239,0,o),
(249,0,cs),
(348,0,ls),
(357,0,o),
(358,7,o),
(356,13,cs),
(156,484,ls),
(137,529,o),
(120,556,o),
(55,556,cs),
(14,556,ls),
(5,556,o),
(3,548,o),
(5,542,cs),
(229,13,ls)
);
}
);
width = 358;
}
);
note = backslash;
unicode = 92;
},
{
glyphname = bracketright;
layers = (
{
layerId = m01;
shapes = (
{
closed = 1;
nodes = (
(239,-144,o),
(268,-117,o),
(268,-68,cs),
(268,620,ls),
(268,668,o),
(239,696,o),
(189,696,cs),
(70,696,ls),
(55,696,o),
(44,685,o),
(44,670,cs),
(44,661,ls),
(44,612,o),
(73,585,o),
(123,585,cs),
(145,585,ls),
(149,585,o),
(150,583,o),
(150,581,cs),
(150,-29,ls),
(150,-31,o),
(149,-33,o),
(145,-33,cs),
(123,-33,ls),
(73,-33,o),
(44,-61,o),
(44,-109,cs),
(44,-118,ls),
(44,-133,o),
(55,-144,o),
(70,-144,cs),
(189,-144,ls)
);
}
);
width = 313;
}
);
note = bracketright;
unicode = 93;
},
{
glyphname = asciicircum;
layers = (
{
layerId = m01;
shapes = (
{
closed = 1;
nodes = (
(299,274,ls),
(304,264,o),
(312,259,o),
(320,259,cs),
(420,259,ls),
(428,259,o),
(432,267,o),
(429,273,cs),
(297,504,ls),
(277,542,o),
(254,556,o),
(210,556,cs),
(195,556,ls),
(184,556,o),
(177,551,o),
(172,542,cs),
(24,273,ls),
(21,267,o),
(25,259,o),
(33,259,cs),
(132,259,ls),
(140,259,o),
(147,264,o),
(152,274,cs),
(227,417,l)
);
}
);
width = 449;
}
);
note = asciicircum;
unicode = 94;
},
{
glyphname = underscore;
layers = (
{
layerId = m01;
shapes = (
{
closed = 1;
nodes = (
(467,-199,ls),
(476,-199,o),
(481,-194,o),
(481,-186,cs),
(481,-94,ls),
(481,-86,o),
(476,-82,o),
(467,-82,cs),
(7,-82,ls),
(-2,-82,o),
(-6,-86,o),
(-6,-94,cs),
(-6,-186,ls),
(-6,-194,o),
(-2,-199,o),
(7,-199,cs)
);
}
);
width = 474;
}
);
note = underscore;
unicode = 95;
},
{
glyphname = grave;
layers = (
{
layerId = m01;
shapes = (
{
closed = 1;
nodes = (
(113,438,ls),
(123,429,o),
(135,426,o),
(149,426,cs),
(251,426,ls),
(260,426,o),
(263,436,o),
(257,441,cs),
(157,532,ls),
(147,541,o),
(140,543,o),
(127,543,cs),
(12,543,ls),
(3,543,o),
(0,533,o),
(7,528,cs)
);
}
);
width = 259;
}
);
note = grave;
unicode = 96;
},
{
glyphname = a;
kernLeft = a;
layers = (
{
layerId = m01;
shapes = (
{
closed = 1;
nodes = (
(297,13,ls),
(297,4,o),
(301,0,o),
(310,0,cs),
(417,0,ls),
(426,0,o),
(430,4,o),
(430,13,cs),
(430,373,ls),
(430,382,o),
(426,386,o),
(417,386,cs),
(400,386,ls),
(361,386,o),
(333,377,o),
(318,353,c),
(292,381,o),
(252,397,o),
(203,397,cs),
(92,397,o),
(24,309,o),
(24,196,cs),
(24,83,o),
(84,-8,o),
(201,-8,cs),
(242,-8,o),
(273,6,o),
(297,28,c)
);
},
{
closed = 1;
nodes = (
(209,114,o),
(161,125,o),
(161,195,cs),
(161,264,o),
(210,272,o),
(231,272,cs),
(253,272,o),
(297,264,o),
(297,195,cs),
(297,125,o),
(252,114,o),
(231,114,cs)
);
}
);
width = 464;
}
);
note = a;
unicode = 97;
},
{
glyphname = b;
layers = (
{
layerId = m01;
shapes = (
{
closed = 1;
nodes = (
(213,114,o),
(168,125,o),
(168,195,cs),
(168,265,o),
(213,273,o),
(235,273,cs),
(257,273,o),
(304,265,o),
(304,195,cs),
(304,125,o),
(258,114,o),
(235,114,cs)
);
},
{
closed = 1;
nodes = (
(190,8,o),
(224,-8,o),
(269,-8,cs),
(380,-8,o),
(442,84,o),
(442,196,cs),
(442,319,o),
(373,398,o),
(268,398,cs),
(225,398,o),
(190,381,o),
(168,357,c),
(168,458,ls),
(168,529,o),
(134,556,o),
(72,556,cs),
(49,556,ls),
(40,556,o),
(36,551,o),
(36,542,cs),
(36,13,ls),
(36,4,o),
(40,0,o),
(49,0,cs),
(155,0,ls),
(164,0,o),
(168,4,o),
(168,13,cs),
(168,33,l)
);
}
);
width = 464;
}
);
note = b;
unicode = 98;
},
{
glyphname = c;
kernLeft = c;
kernRight = c;
layers = (
{
layerId = m01;
shapes = (
{
closed = 1;
nodes = (
(297,-9,o),
(357,44,o),
(357,117,cs),
(357,126,o),
(352,136,o),
(342,136,cs),
(336,136,o),
(332,134,o),
(325,129,cs),
(310,118,o),
(282,104,o),
(244,104,cs),
(188,104,o),
(161,139,o),
(161,191,cs),
(161,249,o),
(195,274,o),
(233,274,cs),
(266,274,o),
(285,269,o),
(315,254,cs),
(320,252,o),
(323,251,o),
(326,251,cs),
(331,251,o),
(332,253,o),
(335,261,cs),
(345,299,ls),
(356,346,o),
(346,371,o),
(306,384,cs),
(283,392,o),
(256,397,o),
(224,397,cs),
(105,397,o),
(24,321,o),
(24,194,cs),
(24,66,o),
(99,-9,o),
(212,-9,cs)
);
}
);
width = 364;
}
);
note = c;
unicode = 99;
},
{
glyphname = d;
layers = (
{
layerId = m01;
shapes = (
{
closed = 1;
nodes = (
(208,114,o),
(161,125,o),
(161,195,cs),
(161,265,o),
(210,273,o),
(231,273,cs),
(253,273,o),
(297,265,o),
(297,195,cs),
(297,125,o),
(252,114,o),
(231,114,cs)
);
},
{
closed = 1;
nodes = (
(278,383,o),
(247,398,o),
(203,398,cs),
(91,398,o),
(24,306,o),
(24,196,cs),
(24,87,o),
(87,-8,o),
(194,-8,cs),
(238,-8,o),
(270,4,o),
(297,31,c),
(297,13,ls),
(297,4,o),
(301,0,o),
(310,0,cs),
(417,0,ls),
(426,0,o),
(430,4,o),
(430,13,cs),
(430,458,ls),
(430,529,o),
(397,556,o),
(333,556,cs),
(310,556,ls),
(301,556,o),
(297,551,o),
(297,542,cs),
(297,363,l)
);
}
);
width = 464;
}
);
note = d;
unicode = 100;
},
{
glyphname = e;
kernLeft = e;
kernRight = e;
layers = (
{
layerId = m01;
shapes = (
{
closed = 1;
nodes = (
(159,262,o),
(177,291,o),
(216,291,cs),
(260,291,o),
(273,261,o),
(270,237,c),
(158,237,l)
);
},
{
closed = 1;
nodes = (
(379,152,ls),
(391,152,o),
(397,157,o),
(398,167,cs),
(398,179,o),
(400,197,o),
(400,222,cs),
(400,309,o),
(346,397,o),
(220,397,cs),
(97,397,o),
(24,308,o),
(24,193,cs),
(24,68,o),
(103,-10,o),
(224,-10,cs),
(352,-10,o),
(392,67,o),
(392,113,cs),
(392,122,o),
(388,128,o),
(380,128,cs),
(376,128,o),
(369,126,o),
(363,123,cs),
(323,106,o),
(296,94,o),
(246,94,cs),
(196,94,o),
(165,119,o),
(159,152,c)
);
}
);
width = 422;
}
);
note = e;
unicode = 101;
},
{
glyphname = f;
kernLeft = f;
layers = (
{
layerId = m01;
shapes = (
{
closed = 1;
nodes = (
(69,13,ls),
(69,4,o),
(73,0,o),
(82,0,cs),
(189,0,ls),
(198,0,o),
(202,4,o),
(202,13,cs),
(202,269,l),
(292,269,ls),
(301,269,o),
(305,273,o),
(305,282,cs),
(305,373,ls),
(305,382,o),
(301,386,o),
(292,386,cs),
(202,386,l),
(202,392,ls),
(202,434,o),
(209,449,o),
(238,449,cs),
(257,449,o),
(269,443,o),
(290,434,cs),
(293,433,o),
(296,431,o),
(301,431,cs),
(311,431,o),
(316,441,o),
(316,452,cs),
(316,502,o),
(272,561,o),
(196,561,cs),
(119,561,o),
(69,511,o),
(69,402,cs),
(69,386,l),
(18,386,ls),
(9,386,o),
(5,382,o),
(5,373,cs),
(5,282,ls),
(5,273,o),
(9,269,o),
(18,269,cs),
(69,269,l)
);
}
);
width = 326;
}
);
note = f;
unicode = 102;
},
{
glyphname = g;
layers = (
{
layerId = m01;
shapes = (
{
closed = 1;
nodes = (
(66,-7,o),
(62,-3,o),
(57,-3,cs),
(48,-3,o),
(43,-13,o),
(43,-26,cs),
(43,-95,o),
(117,-171,o),
(229,-171,cs),
(363,-171,o),
(430,-95,o),
(430,21,cs),
(430,373,ls),
(430,382,o),
(426,386,o),
(417,386,cs),
(397,386,ls),
(360,386,o),
(334,377,o),
(318,356,c),
(293,379,o),
(256,398,o),
(203,398,cs),
(92,398,o),
(24,308,o),
(24,196,cs),
(24,84,o),
(84,0,o),
(201,0,cs),
(241,0,o),
(273,14,o),
(297,36,c),
(297,20,ls),
(297,-23,o),
(270,-53,o),
(193,-53,cs),
(134,-53,o),
(94,-28,o),
(71,-10,cs)
);
},
{
closed = 1;
nodes = (
(208,114,o),
(161,125,o),
(161,195,cs),
(161,265,o),
(210,273,o),
(231,273,cs),
(253,273,o),
(297,265,o),
(297,195,cs),
(297,125,o),
(252,114,o),
(231,114,cs)
);
}
);
width = 464;
}
);
note = g;
unicode = 103;
},
{
glyphname = h;
layers = (
{
layerId = m01;
shapes = (
{
closed = 1;
nodes = (
(168,458,ls),
(168,529,o),
(134,556,o),
(72,556,cs),
(49,556,ls),
(40,556,o),
(36,551,o),
(36,542,cs),
(36,13,ls),
(36,4,o),
(40,0,o),
(49,0,cs),
(155,0,ls),
(164,0,o),
(168,4,o),
(168,13,cs),
(168,207,ls),
(168,252,o),
(190,276,o),
(224,276,cs),
(254,276,o),
(279,257,o),
(279,201,cs),
(279,13,ls),
(279,4,o),
(283,0,o),
(292,0,cs),
(398,0,ls),
(407,0,o),
(412,4,o),
(412,13,cs),
(412,222,ls),
(412,341,o),
(347,396,o),
(258,396,cs),
(220,396,o),
(190,385,o),
(168,363,c)
);
}
);
width = 446;
}
);
note = h;
unicode = 104;
},
{
glyphname = i;
kernLeft = i;
kernRight = i;
layers = (
{
layerId = m01;
shapes = (
{
closed = 1;
nodes = (
(35,4,o),
(39,0,o),
(48,0,cs),
(154,0,ls),
(163,0,o),
(168,4,o),
(168,13,cs),
(168,288,ls),
(168,359,o),
(135,386,o),
(71,386,cs),
(48,386,ls),
(39,386,o),
(35,382,o),
(35,373,cs),
(35,13,ls)
);
},
{
closed = 1;
nodes = (
(27,444,o),
(59,412,o),
(99,412,cs),
(139,412,o),
(170,444,o),
(170,484,cs),
(170,523,o),
(139,556,o),
(99,556,cs),
(59,556,o),
(27,523,o),
(27,484,cs)
);
}
);
width = 204;
}
);
note = i;
unicode = 105;
},
{
glyphname = j;
layers = (
{
layerId = m01;
shapes = (
{
closed = 1;
nodes = (
(-81,-110,o),
(-41,-171,o),
(39,-171,cs),
(113,-171,o),
(167,-123,o),
(167,-17,cs),
(167,288,ls),
(167,359,o),
(134,386,o),
(71,386,cs),
(48,386,ls),
(39,386,o),
(35,382,o),
(35,373,cs),
(35,3,ls),
(35,-40,o),
(26,-56,o),
(-5,-56,cs),
(-23,-56,o),
(-41,-49,o),
(-56,-40,cs),
(-60,-38,o),
(-63,-36,o),
(-68,-36,cs),
(-77,-36,o),
(-81,-50,o),
(-81,-61,cs)
);
},
{
closed = 1;
nodes = (
(27,444,o),
(59,413,o),
(98,413,cs),
(138,413,o),
(170,444,o),
(170,483,cs),
(170,523,o),
(138,556,o),
(98,556,cs),
(59,556,o),
(27,523,o),
(27,483,cs)
);
}
);
width = 204;
}
);
note = j;
unicode = 106;
},
{
glyphname = k;
layers = (
{
layerId = m01;
shapes = (
{
closed = 1;
nodes = (
(192,142,l),
(259,13,ls),
(263,5,o),
(273,0,o),
(283,0,cs),
(403,0,ls),
(410,0,o),
(413,7,o),
(410,13,cs),
(282,243,l),
(399,373,ls),
(404,378,o),
(402,386,o),
(394,386,cs),
(270,386,ls),
(262,386,o),
(254,382,o),
(247,373,cs),
(168,283,l),
(168,458,ls),
(168,529,o),
(134,556,o),
(72,556,cs),
(49,556,ls),
(40,556,o),
(36,551,o),
(36,542,cs),
(36,13,ls),
(36,4,o),
(40,0,o),
(49,0,cs),
(155,0,ls),
(164,0,o),
(168,4,o),
(168,13,cs),
(168,116,l)
);
}
);
width = 416;
}
);
note = k;
unicode = 107;
},
{
glyphname = l;
kernRight = l;
layers = (
{
layerId = m01;
shapes = (
{
closed = 1;
nodes = (
(234,-8,o),
(265,54,o),
(265,106,cs),
(265,112,o),
(262,125,o),
(253,125,cs),
(248,125,o),
(243,122,o),
(240,120,cs),
(228,111,o),
(215,103,o),
(200,103,cs),
(180,103,o),
(168,111,o),
(168,144,cs),
(168,458,ls),
(168,529,o),
(135,556,o),
(72,556,cs),
(49,556,ls),
(40,556,o),
(36,552,o),
(36,542,cs),
(36,129,ls),
(36,35,o),
(84,-8,o),
(153,-8,cs)
);
}
);
width = 261;
}
);
note = l;
unicode = 108;
},
{
glyphname = m;
layers = (
{
layerId = m01;
shapes = (
{
closed = 1;
nodes = (
(135,376,o),
(107,386,o),
(67,386,cs),
(49,386,ls),
(40,386,o),
(36,382,o),
(36,373,cs),
(36,13,ls),
(36,4,o),
(40,0,o),
(49,0,cs),
(155,0,ls),
(164,0,o),
(168,4,o),
(168,13,cs),
(168,203,ls),
(168,254,o),
(188,276,o),
(220,276,cs),
(253,276,o),
(273,258,o),
(273,205,cs),
(273,13,ls),
(273,4,o),
(275,0,o),
(284,0,cs),
(392,0,ls),
(400,0,o),
(404,4,o),
(404,13,cs),
(404,203,ls),
(404,254,o),
(425,276,o),
(457,276,cs),
(488,276,o),
(509,258,o),
(509,205,cs),
(509,13,ls),
(509,4,o),
(514,0,o),
(523,0,cs),
(628,0,ls),
(637,0,o),
(641,4,o),
(641,13,cs),
(641,222,ls),
(641,341,o),
(589,396,o),
(494,396,cs),
(438,396,o),
(399,367,o),
(372,331,c),
(350,373,o),
(309,396,o),
(253,396,cs),
(209,396,o),
(175,376,o),
(150,349,c)
);
}
);
width = 674;
}
);
note = m;
unicode = 109;
},
{
glyphname = n;
kernLeft = n;
kernRight = n;
layers = (
{
layerId = m01;
shapes = (
{
closed = 1;
nodes = (
(137,376,o),
(108,386,o),
(69,386,cs),
(49,386,ls),
(40,386,o),
(36,382,o),
(36,373,cs),
(36,13,ls),
(36,4,o),
(40,0,o),
(49,0,cs),
(155,0,ls),
(164,0,o),
(168,4,o),
(168,13,cs),
(168,207,ls),
(168,251,o),
(190,275,o),
(224,275,cs),
(253,275,o),
(279,258,o),
(279,202,cs),
(279,13,ls),
(279,4,o),
(283,0,o),
(292,0,cs),
(398,0,ls),
(408,0,o),
(412,4,o),
(412,13,cs),
(412,222,ls),
(412,341,o),
(349,396,o),
(253,396,cs),
(213,396,o),
(176,374,o),
(152,349,c)
);
}
);
width = 446;
}
);
note = n;
unicode = 110;
},
{
glyphname = o;
kernLeft = o;
kernRight = o;
layers = (
{
layerId = m01;
shapes = (
{
closed = 1;
nodes = (
(188,109,o),
(159,132,o),
(159,193,cs),
(159,256,o),
(189,278,o),
(226,278,cs),
(262,278,o),
(292,256,o),
(292,193,cs),
(292,132,o),
(263,109,o),
(225,109,cs)
);
},
{
closed = 1;
nodes = (
(351,-9,o),
(427,72,o),
(427,194,cs),
(427,316,o),
(349,397,o),
(225,397,cs),
(101,397,o),
(24,317,o),
(24,195,cs),
(24,73,o),
(102,-9,o),
(227,-9,cs)
);
}
);
width = 452;
}
);
note = o;
unicode = 111;
},
{
glyphname = p;
layers = (
{
layerId = m01;
shapes = (
{
closed = 1;
nodes = (
(189,5,o),
(227,-8,o),
(264,-8,cs),
(381,-8,o),
(442,84,o),
(442,196,cs),
(442,308,o),
(383,397,o),
(260,397,cs),
(205,397,o),
(171,373,o),
(149,352,c),
(133,376,o),
(104,386,o),
(67,386,cs),
(49,386,ls),
(40,386,o),
(36,382,o),
(36,373,cs),
(36,-147,ls),
(36,-156,o),
(40,-160,o),
(49,-160,cs),
(155,-160,ls),
(164,-160,o),
(168,-156,o),
(168,-147,cs),
(168,27,l)
);
},
{
closed = 1;
nodes = (
(213,114,o),
(168,125,o),
(168,195,cs),
(168,265,o),
(213,273,o),
(235,273,cs),
(257,273,o),
(304,265,o),
(304,195,cs),
(304,125,o),
(258,114,o),
(235,114,cs)
);
}
);
width = 464;
}
);
note = p;
unicode = 112;
},
{
glyphname = q;
layers = (
{
layerId = m01;
shapes = (
{
closed = 1;
nodes = (
(297,-147,ls),
(297,-156,o),
(301,-160,o),
(310,-160,cs),
(417,-160,ls),
(426,-160,o),
(430,-156,o),
(430,-147,cs),
(430,373,ls),
(430,382,o),
(426,386,o),
(417,386,cs),
(398,386,ls),
(361,386,o),
(334,377,o),
(319,354,c),
(294,377,o),
(258,398,o),
(203,398,cs),
(92,398,o),
(24,308,o),
(24,196,cs),
(24,84,o),
(84,-8,o),
(201,-8,cs),
(238,-8,o),
(272,4,o),
(297,25,c)
);
},
{
closed = 1;
nodes = (
(208,114,o),
(161,125,o),
(161,195,cs),
(161,265,o),
(210,273,o),
(231,273,cs),
(253,273,o),
(297,265,o),
(297,195,cs),
(297,125,o),
(252,114,o),
(231,114,cs)
);
}
);
width = 464;
}
);
note = q;
unicode = 113;
},
{
glyphname = r;
kernLeft = r;
layers = (
{
layerId = m01;
shapes = (
{
closed = 1;
nodes = (
(137,373,o),
(108,386,o),
(67,386,cs),
(49,386,ls),
(40,386,o),
(36,382,o),
(36,373,cs),
(36,13,ls),
(36,4,o),
(40,0,o),
(49,0,cs),
(155,0,ls),
(164,0,o),
(168,4,o),
(168,13,cs),
(168,170,ls),
(168,235,o),
(176,264,o),
(250,264,cs),
(274,264,ls),
(282,264,o),
(285,269,o),
(285,277,cs),
(285,373,ls),
(285,382,o),
(282,386,o),
(274,386,cs),
(247,386,ls),
(197,386,o),
(173,377,o),
(152,346,c)
);
}
);
width = 301;
}
);
note = r;
unicode = 114;
},
{
glyphname = s;
kernLeft = s;
kernRight = s;
layers = (
{
layerId = m01;
shapes = (
{
closed = 1;
nodes = (
(11,49,o),
(82,-10,o),
(172,-10,cs),
(262,-10,o),
(322,46,o),
(322,125,cs),
(322,246,o),
(157,234,o),
(157,274,cs),
(157,282,o),
(163,290,o),
(183,290,cs),
(212,290,o),
(242,283,o),
(275,269,cs),
(280,267,o),
(284,265,o),
(289,265,cs),
(293,265,o),
(296,267,o),
(298,273,cs),
(305,296,ls),
(319,343,o),
(305,364,o),
(267,381,cs),
(245,389,o),
(210,397,o),
(172,397,cs),
(99,397,o),
(23,359,o),
(23,270,cs),
(23,142,o),
(188,155,o),
(188,117,cs),
(188,106,o),
(177,96,o),
(150,96,cs),
(97,96,o),
(65,116,o),
(46,128,cs),
(37,134,o),
(31,138,o),
(26,138,cs),
(19,138,o),
(11,132,o),
(11,116,cs)
);
}
);
width = 333;
}
);
note = s;
unicode = 115;
},
{
glyphname = t;
layers = (
{
layerId = m01;
shapes = (
{
closed = 1;
nodes = (
(83,13,ls),
(83,4,o),
(87,0,o),
(95,0,cs),
(201,0,ls),
(210,0,o),
(215,4,o),
(215,13,cs),
(215,269,l),
(293,269,ls),
(301,269,o),
(305,274,o),
(305,282,cs),
(305,373,ls),
(305,382,o),
(301,386,o),
(293,386,cs),
(215,386,l),
(215,422,ls),
(215,493,o),
(181,518,o),
(118,518,cs),
(95,518,ls),
(87,518,o),
(83,514,o),
(83,506,cs),
(83,386,l),
(20,386,ls),
(11,386,o),
(7,382,o),
(7,373,cs),
(7,282,ls),
(7,274,o),
(11,269,o),
(20,269,cs),
(83,269,l)
);
}
);
width = 319;
}
);
note = t;
unicode = 116;
},
{
glyphname = u;
kernLeft = u;
kernRight = u;
layers = (
{
layerId = m01;
shapes = (
{
closed = 1;
nodes = (
(356,-9,o),
(411,68,o),
(411,188,cs),
(411,288,ls),
(411,359,o),
(378,386,o),
(314,386,cs),
(291,386,ls),
(282,386,o),
(278,382,o),
(278,373,cs),
(278,174,ls),
(278,124,o),
(251,108,o),
(222,108,cs),
(193,108,o),
(167,124,o),
(167,175,cs),
(167,288,ls),
(167,359,o),
(134,386,o),
(71,386,cs),
(48,386,ls),
(39,386,o),
(35,382,o),
(35,373,cs),
(35,194,ls),
(35,73,o),
(88,-9,o),
(222,-9,cs)
);
}
);
width = 446;
}
);
note = u;
unicode = 117;
},
{
glyphname = v;
layers = (
{
layerId = m01;
shapes = (
{
closed = 1;
nodes = (
(167,288,ls),
(144,366,o),
(119,386,o),
(50,386,cs),
(12,386,ls),
(5,386,o),
(2,381,o),
(5,373,cs),
(127,13,ls),
(130,3,o),
(135,0,o),
(145,0,cs),
(269,0,ls),
(278,0,o),
(282,3,o),
(285,13,cs),
(409,373,ls),
(411,380,o),
(408,386,o),
(400,386,cs),
(290,386,ls),
(281,386,o),
(277,381,o),
(275,373,cs),
(208,148,l)
);
}
);
width = 409;
}
);
note = v;
unicode = 118;
},
{
glyphname = w;
layers = (
{
layerId = m01;
shapes = (
{
closed = 1;
nodes = (
(166,288,ls),
(146,368,o),
(120,386,o),
(51,386,cs),
(15,386,ls),
(8,386,o),
(4,380,o),
(6,373,cs),
(118,13,ls),
(121,5,o),
(126,0,o),
(136,0,cs),
(243,0,ls),
(251,0,o),
(257,4,o),
(259,13,cs),
(308,204,l),
(360,13,ls),
(362,4,o),
(368,0,o),
(377,0,cs),
(481,0,ls),
(490,0,o),
(495,4,o),
(498,13,cs),
(603,373,ls),
(606,381,o),
(602,386,o),
(595,386,cs),
(498,386,ls),
(488,386,o),
(483,382,o),
(481,373,cs),
(429,174,l),
(403,288,ls),
(385,368,o),
(349,386,o),
(279,386,cs),
(261,386,ls),
(252,386,o),
(245,382,o),
(243,373,cs),
(193,179,l)
);
}
);
width = 607;
}
);
note = w;
unicode = 119;
},
{
glyphname = x;
layers = (
{
layerId = m01;
shapes = (
{
closed = 1;
nodes = (
(271,13,ls),
(277,3,o),
(282,0,o),
(294,0,cs),
(405,0,ls),
(412,0,o),
(416,7,o),
(412,13,cs),
(291,209,l),
(391,373,ls),
(395,380,o),
(392,386,o),
(384,386,cs),
(281,386,ls),
(272,386,o),
(264,382,o),
(258,373,cs),
(208,294,l),
(196,314,ls),
(157,376,o),
(142,386,o),
(86,386,cs),
(26,386,ls),
(18,386,o),
(16,379,o),
(19,373,cs),
(126,202,l),
(9,13,ls),
(5,7,o),
(7,0,o),
(14,0,cs),
(124,0,ls),
(133,0,o),
(139,4,o),
(146,13,c),
(208,118,l)
);
}
);
width = 418;
}
);
note = x;
unicode = 120;
},
{
glyphname = y;
kernLeft = y;
kernRight = y;
layers = (
{
layerId = m01;
shapes = (
{
closed = 1;
nodes = (
(127,-40,o),
(109,-59,o),
(74,-59,cs),
(56,-59,o),
(41,-53,o),
(21,-40,cs),
(18,-38,o),
(15,-37,o),
(12,-37,cs),
(0,-37,o),
(-4,-49,o),
(-4,-59,cs),
(-4,-113,o),
(37,-171,o),
(114,-171,cs),
(209,-171,o),
(240,-108,o),
(277,-9,cs),
(413,373,l),
(414,379,o),
(413,386,o),
(405,386,cs),
(299,386,ls),
(290,386,o),
(287,382,o),
(283,373,c),
(212,162,l),
(168,288,ls),
(142,364,o),
(120,386,o),
(51,386,cs),
(10,386,ls),
(4,386,o),
(0,379,o),
(3,373,c),
(142,-5,l)
);
}
);
width = 416;
}
);
note = y;
unicode = 121;
},
{
glyphname = z;
kernLeft = z;
kernRight = z;
layers = (
{
layerId = m01;
shapes = (
{
closed = 1;
nodes = (
(320,267,ls),
(332,281,o),
(336,294,o),
(336,313,cs),
(336,368,o),
(316,386,o),
(266,386,cs),
(39,386,ls),
(30,386,o),
(26,382,o),
(26,373,cs),
(26,282,ls),
(26,273,o),
(30,269,o),
(39,269,cs),
(168,269,l),
(32,106,ls),
(21,93,o),
(19,87,o),
(19,71,cs),
(19,13,ls),
(19,4,o),
(23,0,o),
(32,0,cs),
(329,0,ls),
(338,0,o),
(342,4,o),
(342,13,cs),
(342,103,ls),
(342,112,o),
(338,116,o),
(329,116,cs),
(195,116,l)
);
}
);
width = 361;
}
);
note = z;
unicode = 122;
},
{
glyphname = braceleft;
layers = (
{
layerId = m01;
shapes = (
{
closed = 1;
nodes = (
(311,-144,o),
(322,-133,o),
(322,-118,cs),
(322,-109,ls),
(322,-61,o),
(293,-33,o),
(242,-33,cs),
(221,-33,ls),
(217,-33,o),
(216,-31,o),
(216,-29,cs),
(216,157,ls),
(216,217,o),
(205,253,o),
(176,276,c),
(205,301,o),
(216,336,o),
(216,394,cs),
(216,581,ls),
(216,583,o),
(217,585,o),
(221,585,cs),
(242,585,ls),
(293,585,o),
(322,612,o),
(322,661,cs),
(322,670,ls),
(322,685,o),
(311,696,o),
(296,696,cs),
(177,696,ls),
(127,696,o),
(98,668,o),
(98,620,cs),
(98,402,ls),
(98,356,o),
(86,334,o),
(57,328,c),
(46,327,o),
(39,318,o),
(39,308,cs),
(39,245,ls),
(39,233,o),
(46,226,o),
(57,223,cs),
(86,218,o),
(98,196,o),
(98,151,cs),
(98,-68,ls),
(98,-117,o),
(127,-144,o),
(177,-144,cs),
(296,-144,ls)
);
}
);
width = 366;
}
);
note = braceleft;
unicode = 123;
},
{
glyphname = bar;
layers = (
{
layerId = m01;
shapes = (
{
closed = 1;
nodes = (
(45,-145,o),
(49,-149,o),
(58,-149,cs),
(150,-149,ls),
(159,-149,o),
(163,-145,o),
(163,-136,cs),
(163,468,ls),
(163,540,o),
(130,566,o),
(76,566,cs),
(58,566,ls),
(49,566,o),
(45,562,o),
(45,553,cs),
(45,-136,ls)
);
}
);
width = 208;
}
);
note = bar;
unicode = 124;
},
{
glyphname = braceright;
layers = (
{
layerId = m01;
shapes = (
{
closed = 1;
nodes = (
(239,-144,o),
(268,-117,o),
(268,-68,cs),
(268,151,ls),
(268,196,o),
(280,218,o),
(309,223,cs),
(320,226,o),
(327,233,o),
(327,245,cs),
(327,308,ls),
(327,318,o),
(320,327,o),
(309,328,c),
(280,334,o),
(268,356,o),
(268,402,cs),
(268,620,ls),
(268,668,o),
(239,696,o),
(189,696,cs),
(70,696,ls),
(55,696,o),
(44,685,o),
(44,670,cs),
(44,661,ls),
(44,612,o),
(73,585,o),
(123,585,cs),
(145,585,ls),
(149,585,o),
(150,583,o),
(150,581,cs),
(150,394,ls),
(150,336,o),
(161,301,o),
(190,276,c),
(161,253,o),
(150,217,o),
(150,157,cs),
(150,-29,ls),
(150,-31,o),
(149,-33,o),
(145,-33,cs),
(123,-33,ls),
(73,-33,o),
(44,-61,o),
(44,-109,cs),
(44,-118,ls),
(44,-133,o),
(55,-144,o),
(70,-144,cs),
(189,-144,ls)
);
}
);
width = 366;
}
);
note = braceright;
unicode = 125;
},
{
glyphname = asciitilde;
layers = (
{
layerId = m01;
shapes = (
{
closed = 1;
nodes = (
(73,247,o),
(104,254,o),
(136,254,cs),
(198,254,o),
(249,208,o),
(326,208,cs),
(358,208,o),
(387,218,o),
(413,242,cs),
(422,249,o),
(423,256,o),
(423,271,cs),
(423,356,ls),
(423,364,o),
(416,363,o),
(412,359,cs),
(386,331,o),
(358,323,o),
(326,323,cs),
(266,323,o),
(210,369,o),
(136,369,cs),
(103,369,o),
(72,361,o),
(45,336,cs),
(37,328,o),
(35,322,o),
(35,307,cs),
(35,222,ls),
(35,213,o),
(43,214,o),
(46,218,cs)
);
}
);
width = 457;
}
);
note = asciitilde;
unicode = 126;
},
{
glyphname = exclamdown;
layers = (
{
layerId = m01;
shapes = (
{
closed = 1;
nodes = (
(147,242,o),
(182,274,o),
(182,319,cs),
(182,364,o),
(147,397,o),
(103,397,cs),
(60,397,o),
(28,364,o),
(28,319,cs),
(28,274,o),
(60,242,o),
(103,242,cs)
);
},
{
closed = 1;
nodes = (
(38,-168,o),
(42,-172,o),
(51,-172,cs),
(163,-172,ls),
(172,-172,o),
(176,-168,o),
(176,-159,cs),
(166,120,ls),
(163,192,o),
(135,221,o),
(81,221,cs),
(63,221,ls),
(54,221,o),
(50,217,o),
(50,208,cs),
(38,-159,ls)
);
}
);
width = 217;
}
);
note = exclamdown;
unicode = 161;
},
{
glyphname = cent;
layers = (
{
layerId = m01;
shapes = (
{
closed = 1;
nodes = (
(326,17,o),
(357,58,o),
(357,112,cs),
(357,121,o),
(352,131,o),
(342,131,cs),
(336,131,o),
(332,129,o),
(325,124,cs),
(315,117,o),
(298,108,o),
(276,103,c),
(276,276,l),
(288,273,o),
(301,268,o),
(316,261,cs),
(321,258,o),
(324,258,o),
(327,258,cs),
(332,258,o),
(333,261,o),
(336,268,c),
(345,299,ls),
(357,346,o),
(346,371,o),
(306,384,cs),
(297,387,o),
(287,391,o),
(276,393,c),
(276,452,ls),
(276,459,o),
(273,463,o),
(264,463,cs),
(215,463,ls),
(206,463,o),
(202,459,o),
(202,452,cs),
(202,396,l),
(95,387,o),
(24,313,o),
(24,194,cs),
(24,73,o),
(98,-1,o),
(202,-8,c),
(202,-52,ls),
(202,-61,o),
(206,-65,o),
(215,-65,cs),
(264,-65,ls),
(273,-65,o),
(276,-61,o),
(276,-52,cs),
(276,0,l)
);
},
{
closed = 1;
nodes = (
(168,120,o),
(153,152,o),
(153,191,cs),
(153,236,o),
(172,264,o),
(202,276,c),
(202,106,l)
);
}
);
width = 368;
}
);
note = cent;
unicode = 162;
},
{
glyphname = sterling;
layers = (
{
layerId = m01;
shapes = (
{
closed = 1;
nodes = (
(143,214,o),
(144,204,o),
(144,196,cs),
(144,173,o),
(136,147,o),
(129,123,c),
(45,123,ls),
(36,123,o),
(32,119,o),
(32,110,cs),
(32,13,ls),
(32,4,o),
(36,0,o),
(45,0,cs),
(423,0,ls),
(433,0,o),
(439,7,o),
(439,17,cs),
(439,57,ls),
(439,99,o),
(415,123,o),
(369,123,cs),
(261,123,l),
(269,146,o),
(274,171,o),
(274,196,cs),
(274,204,o),
(275,214,o),
(274,223,c),
(376,223,ls),
(386,223,o),
(393,230,o),
(393,240,cs),
(393,279,ls),
(393,322,o),
(369,346,o),
(323,346,cs),
(230,346,l),
(223,366,o),
(218,383,o),
(218,398,cs),
(218,431,o),
(239,451,o),
(276,451,cs),
(323,451,o),
(358,438,o),
(398,419,c),
(404,417,o),
(409,414,o),
(413,414,cs),
(418,414,o),
(420,417,o),
(423,423,c),
(431,452,ls),
(434,462,o),
(438,473,o),
(438,484,cs),
(438,552,o),
(325,566,o),
(275,566,cs),
(161,566,o),
(81,517,o),
(81,404,cs),
(81,384,o),
(84,364,o),
(91,346,c),
(45,346,ls),
(36,346,o),
(32,342,o),
(32,333,cs),
(32,236,ls),
(32,227,o),
(36,223,o),
(45,223,cs),
(141,223,l)
);
}
);
width = 467;
}
);
note = sterling;
unicode = 163;
},
{
glyphname = yen;
layers = (
{
layerId = m01;
shapes = (
{
closed = 1;
nodes = (
(183,13,ls),
(183,4,o),
(188,0,o),
(197,0,cs),
(305,0,ls),
(314,0,o),
(318,4,o),
(318,13,cs),
(318,114,l),
(447,114,ls),
(456,114,o),
(460,118,o),
(460,127,cs),
(460,200,ls),
(460,209,o),
(456,213,o),
(447,213,cs),
(325,213,l),
(346,252,l),
(447,252,ls),
(456,252,o),
(460,256,o),
(460,264,cs),
(460,337,ls),
(460,346,o),
(456,349,o),
(447,349,cs),
(398,349,l),
(500,542,ls),
(503,548,o),
(501,556,o),
(492,556,cs),
(375,556,ls),
(366,556,o),
(359,551,o),
(355,542,cs),
(258,349,l),
(254,349,l),
(180,494,ls),
(158,539,o),
(129,556,o),
(82,556,cs),
(12,556,ls),
(3,556,o),
(1,548,o),
(4,542,cs),
(105,349,l),
(55,349,ls),
(47,349,o),
(43,346,o),
(43,337,cs),
(43,264,ls),
(43,256,o),
(47,252,o),
(55,252,cs),
(157,252,l),
(178,213,l),
(55,213,ls),
(47,213,o),
(43,209,o),
(43,200,cs),
(43,127,ls),
(43,118,o),
(47,114,o),
(55,114,cs),
(183,114,l)
);
}
);
width = 501;
}
);
note = yen;
unicode = 165;
},
{
glyphname = brokenbar;
layers = (
{
layerId = m01;
shapes = (
{
closed = 1;
nodes = (
(45,249,o),
(49,245,o),
(58,245,cs),
(150,245,ls),
(159,245,o),
(163,249,o),
(163,258,cs),
(163,468,ls),
(163,540,o),
(130,566,o),
(76,566,cs),
(58,566,ls),
(49,566,o),
(45,562,o),
(45,553,cs),
(45,258,ls)
);
},
{
closed = 1;
nodes = (
(45,-145,o),
(49,-149,o),
(58,-149,cs),
(150,-149,ls),
(159,-149,o),
(163,-145,o),
(163,-136,cs),
(163,160,ls),
(163,169,o),
(159,173,o),
(150,173,cs),
(58,173,ls),
(49,173,o),
(45,169,o),
(45,160,cs),
(45,-136,ls)
);
}
);
width = 208;
}
);
note = brokenbar;
unicode = 166;
},
{
glyphname = section;
layers = (
{
layerId = m01;
shapes = (
{
closed = 1;
nodes = (
(76,70,o),
(68,68,o),
(66,63,cs),
(54,34,ls),
(38,-4,o),
(49,-32,o),
(84,-58,cs),
(117,-83,o),
(170,-99,o),
(223,-99,cs),
(339,-99,o),
(399,-33,o),
(399,44,cs),
(399,79,o),
(389,104,o),
(366,128,c),
(396,152,o),
(421,189,o),
(421,241,cs),
(421,373,o),
(213,383,o),
(213,442,cs),
(213,459,o),
(227,469,o),
(256,469,cs),
(284,469,o),
(315,462,o),
(345,442,cs),
(350,439,o),
(352,434,o),
(357,434,cs),
(361,434,o),
(364,437,o),
(366,443,cs),
(374,462,ls),
(387,501,o),
(384,528,o),
(342,547,cs),
(322,557,o),
(287,566,o),
(241,566,cs),
(150,566,o),
(78,517,o),
(78,439,cs),
(78,401,o),
(92,375,o),
(111,353,c),
(79,329,o),
(48,294,o),
(48,246,cs),
(48,109,o),
(262,98,o),
(262,36,cs),
(262,17,o),
(250,1,o),
(211,1,cs),
(154,1,o),
(102,41,o),
(80,65,cs)
);
},
{
closed = 1;
nodes = (
(225,209,o),
(176,227,o),
(176,259,cs),
(176,276,o),
(182,286,o),
(191,297,c),
(237,274,o),
(289,259,o),
(289,223,cs),
(289,209,o),
(281,197,o),
(272,187,c)
);
}
);
width = 451;
}
);
note = section;
unicode = 167;
},
{
glyphname = dieresis;
layers = (
{
layerId = m01;
shapes = (
{
closed = 1;
nodes = (
(0,444,o),
(32,412,o),
(72,412,cs),
(111,412,o),
(143,444,o),
(143,484,cs),
(143,523,o),
(111,556,o),
(72,556,cs),
(32,556,o),
(0,523,o),
(0,484,cs)
);
},
{
closed = 1;
nodes = (
(171,444,o),
(203,412,o),
(242,412,cs),
(282,412,o),
(314,444,o),
(314,484,cs),
(314,523,o),
(282,556,o),
(242,556,cs),
(203,556,o),
(171,523,o),
(171,484,cs)
);
}
);
width = 314;
}
);
note = dieresis;
unicode = 168;
},
{
glyphname = copyright;
layers = (
{
layerId = m01;
shapes = (
{
closed = 1;
nodes = (
(24,203,o),
(114,113,o),
(252,113,cs),
(388,113,o),
(478,203,o),
(478,339,cs),
(478,476,o),
(388,567,o),
(252,567,cs),
(114,567,o),
(24,476,o),
(24,339,cs)
);
},
{
closed = 1;
nodes = (
(158,182,o),
(95,244,o),
(95,339,cs),
(95,434,o),
(158,498,o),
(252,498,cs),
(346,498,o),
(408,434,o),
(408,339,cs),
(408,244,o),
(346,182,o),
(252,182,cs)
);
},
{
closed = 1;
nodes = (
(319,297,o),
(295,282,o),
(268,282,cs),
(234,282,o),
(214,302,o),
(214,338,cs),
(214,376,o),
(233,398,o),
(266,398,cs),
(288,398,o),
(305,392,o),
(322,383,cs),
(330,379,o),
(333,381,o),
(335,387,cs),
(342,417,ls),
(346,434,o),
(343,444,o),
(325,452,cs),
(307,459,o),
(289,463,o),
(264,463,cs),
(196,463,o),
(135,416,o),
(135,338,cs),
(135,265,o),
(183,216,o),
(254,216,cs),
(329,216,o),
(346,277,o),
(346,299,cs),
(346,306,o),
(343,311,o),
(338,311,cs),
(336,311,o),
(333,308,o),
(329,306,c)
);
}
);
width = 502;
}
);
note = copyright;
unicode = 169;
},
{
glyphname = ordfeminine;
layers = (
{
layerId = m01;
shapes = (
{
closed = 1;
nodes = (
(246,258,ls),
(246,252,o),
(248,248,o),
(254,248,cs),
(351,248,ls),
(357,248,o),
(359,252,o),
(359,258,cs),
(359,546,ls),
(359,552,o),
(356,556,o),
(349,556,cs),
(334,556,ls),
(298,556,o),
(282,547,o),
(266,529,c),
(246,547,o),
(217,564,o),
(169,564,cs),
(78,564,o),
(15,493,o),
(15,403,cs),
(15,313,o),
(71,241,o),
(167,241,cs),
(198,241,o),
(224,249,o),
(246,266,c)
);
},
{
closed = 1;
nodes = (
(156,343,o),
(133,367,o),
(133,404,cs),
(133,441,o),
(155,463,o),
(190,463,cs),
(225,463,o),
(246,442,o),
(246,404,cs),
(246,367,o),
(223,343,o),
(190,343,cs)
);
}
);
width = 379;
}
);
note = ordfeminine;
unicode = 170;
},
{
glyphname = guillemotleft;
layers = (
{
layerId = m01;
shapes = (
{
closed = 1;
nodes = (
(262,349,l),
(265,355,o),
(263,362,o),
(255,362,cs),
(160,362,ls),
(148,362,o),
(139,359,o),
(132,349,cs),
(28,214,ls),
(24,209,o),
(21,205,o),
(21,200,cs),
(21,195,o),
(24,191,o),
(28,186,cs),
(133,51,ls),
(140,41,o),
(148,38,o),
(160,38,cs),
(257,38,ls),
(264,38,o),
(267,45,o),
(263,51,cs),
(148,200,l)
);
},
{
closed = 1;
nodes = (
(449,349,ls),
(453,355,o),
(450,362,o),
(443,362,cs),
(348,362,ls),
(335,362,o),
(327,359,o),
(319,349,cs),
(215,214,l),
(212,209,o),
(209,205,o),
(209,200,cs),
(209,195,o),
(212,191,o),
(215,186,c),
(320,51,ls),
(328,41,o),
(337,38,o),
(349,38,cs),
(444,38,ls),
(452,38,o),
(454,45,o),
(450,51,cs),
(335,200,l)
);
}
);
width = 472;
}
);
note = guillemotleft;
unicode = 171;
},
{
glyphname = uni00AD;
layers = (
{
layerId = m01;
shapes = (
{
closed = 1;
nodes = (
(267,145,ls),
(276,145,o),
(279,149,o),
(279,158,cs),
(279,257,ls),
(279,266,o),
(276,269,o),
(267,269,cs),
(43,269,ls),
(34,269,o),
(30,266,o),
(30,257,cs),
(30,158,ls),
(30,149,o),
(34,145,o),
(43,145,cs)
);
}
);
width = 309;
}
);
note = uni00AD;
unicode = 173;
},
{
glyphname = registered;
layers = (
{
layerId = m01;
shapes = (
{
closed = 1;
nodes = (
(24,203,o),
(114,113,o),
(252,113,cs),
(388,113,o),
(478,203,o),
(478,339,cs),
(478,476,o),
(388,567,o),
(252,567,cs),
(114,567,o),
(24,476,o),
(24,339,cs)
);
},
{
closed = 1;
nodes = (
(246,297,l),
(285,230,l),
(287,224,o),
(293,222,o),
(299,222,cs),
(358,222,ls),
(362,222,o),
(365,227,o),
(362,231,cs),
(312,309,l),
(341,322,o),
(355,349,o),
(355,381,cs),
(355,426,o),
(327,462,o),
(259,462,cs),
(163,462,ls),
(159,462,o),
(156,459,o),
(156,454,cs),
(156,230,ls),
(156,225,o),
(159,222,o),
(163,222,cs),
(218,222,ls),
(222,222,o),
(225,225,o),
(225,230,cs),
(225,297,l)
);
},
{
closed = 1;
nodes = (
(158,182,o),
(95,244,o),
(95,339,cs),
(95,434,o),
(158,498,o),
(252,498,cs),
(346,498,o),
(408,434,o),
(408,339,cs),
(408,244,o),
(346,182,o),
(252,182,cs)
);
},
{
closed = 1;
nodes = (
(225,412,l),
(250,412,ls),
(273,412,o),
(288,402,o),
(288,381,cs),
(288,353,o),
(268,348,o),
(250,348,cs),
(225,348,l)
);
}
);
width = 502;
}
);
note = registered;
unicode = 174;
},
{
glyphname = macron;
layers = (
{
layerId = m01;
shapes = (
{
closed = 1;
nodes = (
(277,427,ls),
(286,427,o),
(289,431,o),
(289,439,cs),
(289,512,ls),
(289,521,o),
(286,526,o),
(277,526,cs),
(13,526,ls),
(4,526,o),
(0,521,o),
(0,512,cs),
(0,439,ls),
(0,431,o),
(4,427,o),
(13,427,cs)
);
}
);
width = 289;
}
);
note = macron;
unicode = 175;
},
{
glyphname = degree;
layers = (
{
layerId = m01;
shapes = (
{
closed = 1;
nodes = (
(17,407,o),
(62,358,o),
(130,358,cs),
(199,358,o),
(245,407,o),
(245,471,cs),
(245,537,o),
(199,584,o),
(130,584,cs),
(62,584,o),
(17,537,o),
(17,471,cs)
);
},
{
closed = 1;
nodes = (
(106,426,o),
(91,448,o),
(91,472,cs),
(91,497,o),
(106,517,o),
(130,517,cs),
(155,517,o),
(170,497,o),
(170,472,cs),
(170,448,o),
(155,426,o),
(130,426,cs)
);
}
);
width = 262;
}
);
note = degree;
unicode = 176;
},
{
glyphname = plusminus;
layers = (
{
layerId = m01;
shapes = (
{
closed = 1;
nodes = (
(156,164,ls),
(156,155,o),
(160,151,o),
(169,151,cs),
(263,151,ls),
(272,151,o),
(276,155,o),
(276,164,cs),
(276,291,l),
(393,291,ls),
(402,291,o),
(407,295,o),
(407,304,cs),
(407,391,ls),
(407,399,o),
(402,403,o),
(393,403,cs),
(276,403,l),
(276,459,ls),
(276,521,o),
(252,543,o),
(187,543,cs),
(169,543,ls),
(160,543,o),
(156,539,o),
(156,531,cs),
(156,403,l),
(38,403,ls),
(29,403,o),
(25,399,o),
(25,391,cs),
(25,304,ls),
(25,295,o),
(29,291,o),
(38,291,cs),
(156,291,l)
);
},
{
closed = 1;
nodes = (
(25,4,o),
(29,0,o),
(38,0,cs),
(393,0,ls),
(402,0,o),
(407,4,o),
(407,13,cs),
(407,46,ls),
(407,89,o),
(383,112,o),
(337,112,cs),
(38,112,ls),
(29,112,o),
(25,108,o),
(25,99,cs),
(25,13,ls)
);
}
);
width = 432;
}
);
note = plusminus;
unicode = 177;
},
{
glyphname = twosuperior;
layers = (
{
layerId = m01;
shapes = (
{
closed = 1;
nodes = (
(182,339,o),
(300,361,o),
(300,466,cs),
(300,534,o),
(247,566,o),
(165,566,cs),
(121,566,o),
(87,557,o),
(64,547,cs),
(34,534,o),
(25,519,o),
(36,494,cs),
(56,451,ls),
(59,443,o),
(64,441,o),
(74,447,cs),
(97,459,o),
(124,473,o),
(154,473,cs),
(175,473,o),
(189,466,o),
(189,448,cs),
(189,396,o),
(28,388,o),
(28,228,cs),
(28,221,o),
(32,217,o),
(39,217,cs),
(298,217,ls),
(305,217,o),
(309,221,o),
(309,228,cs),
(309,269,ls),
(309,294,o),
(294,308,o),
(266,308,cs),
(172,308,l)
);
}
);
width = 331;
}
);
note = twosuperior;
unicode = 178;
},
{
glyphname = threesuperior;
layers = (
{
layerId = m01;
shapes = (
{
closed = 1;
nodes = (
(276,415,o),
(289,439,o),
(289,474,cs),
(289,536,o),
(233,566,o),
(159,566,cs),
(121,566,o),
(87,558,o),
(64,549,cs),
(34,538,o),
(26,521,o),
(36,497,cs),
(51,461,ls),
(54,454,o),
(61,453,o),
(70,458,cs),
(92,468,o),
(113,479,o),
(147,479,cs),
(174,479,o),
(187,473,o),
(187,457,cs),
(187,440,o),
(173,433,o),
(138,433,cs),
(97,433,ls),
(91,433,o),
(88,427,o),
(88,421,cs),
(88,382,ls),
(88,357,o),
(99,348,o),
(128,348,cs),
(160,348,ls),
(183,348,o),
(199,343,o),
(199,327,cs),
(199,306,o),
(181,297,o),
(148,297,cs),
(104,297,o),
(68,318,o),
(55,331,cs),
(50,336,o),
(46,338,o),
(41,338,cs),
(33,338,o),
(28,331,o),
(28,322,cs),
(28,268,o),
(75,209,o),
(167,209,cs),
(251,209,o),
(301,256,o),
(301,318,cs),
(301,354,o),
(287,382,o),
(254,398,c)
);
}
);
width = 324;
}
);
note = threesuperior;
unicode = 179;
},
{
glyphname = acute;
layers = (
{
layerId = m01;
shapes = (
{
closed = 1;
nodes = (
(115,426,ls),
(129,426,o),
(141,429,o),
(151,438,cs),
(257,528,ls),
(264,533,o),
(261,543,o),
(252,543,cs),
(137,543,ls),
(124,543,o),
(117,541,o),
(107,532,cs),
(7,441,ls),
(1,436,o),
(4,426,o),
(13,426,cs)
);
}
);
width = 259;
}
);
note = acute;
unicode = 180;
},
{
glyphname = paragraph;
layers = (
{
layerId = m01;
shapes = (
{
closed = 1;
nodes = (
(317,484,l),
(317,12,ls),
(317,4,o),
(321,0,o),
(329,0,cs),
(392,0,ls),
(400,0,o),
(403,4,o),
(403,12,cs),
(403,458,ls),
(403,529,o),
(371,556,o),
(307,556,cs),
(215,556,ls),
(80,556,o),
(24,487,o),
(24,391,cs),
(24,298,o),
(85,229,o),
(183,222,c),
(183,12,ls),
(183,4,o),
(187,0,o),
(195,0,cs),
(258,0,ls),
(266,0,o),
(270,4,o),
(270,12,cs),
(270,484,l)
);
}
);
width = 449;
}
);
note = paragraph;
unicode = 182;
},
{
glyphname = periodcentered;
layers = (
{
layerId = m01;
shapes = (
{
closed = 1;
nodes = (
(20,237,o),
(54,205,o),
(97,205,cs),
(142,205,o),
(174,237,o),
(174,281,cs),
(174,327,o),
(142,359,o),
(97,359,cs),
(54,359,o),
(20,327,o),
(20,281,cs)
);
}
);
width = 194;
}
);
note = periodcentered;
unicode = 183;
},
{
glyphname = cedilla;
layers = (
{
layerId = m01;
shapes = (
{
closed = 1;
nodes = (
(104,-127,ls),
(118,-127,o),
(129,-123,o),
(135,-110,cs),
(180,-7,ls),
(183,0,o),
(180,5,o),
(173,5,cs),
(101,5,ls),
(89,5,o),
(79,4,o),
(72,-7,cs),
(5,-112,ls),
(1,-119,o),
(2,-127,o),
(11,-127,cs)
);
}
);
width = 180;
}
);
note = cedilla;
unicode = 184;
},
{
glyphname = onesuperior;
layers = (
{
layerId = m01;
shapes = (
{
closed = 1;
nodes = (
(99,228,ls),
(99,221,o),
(103,217,o),
(110,217,cs),
(200,217,ls),
(207,217,o),
(211,221,o),
(211,228,cs),
(211,516,ls),
(211,542,o),
(196,556,o),
(167,556,cs),
(112,556,ls),
(101,556,o),
(88,552,o),
(80,549,cs),
(50,539,ls),
(39,536,o),
(35,528,o),
(35,519,cs),
(35,439,ls),
(35,432,o),
(41,429,o),
(48,432,cs),
(99,449,l)
);
}
);
width = 256;
}
);
note = onesuperior;
unicode = 185;
},
{
glyphname = ordmasculine;
layers = (
{
layerId = m01;
shapes = (
{
closed = 1;
nodes = (
(153,341,o),
(133,363,o),
(133,402,cs),
(133,441,o),
(153,462,o),
(187,462,cs),
(219,462,o),
(241,441,o),
(241,402,cs),
(241,363,o),
(219,341,o),
(186,341,cs)
);
},
{
closed = 1;
nodes = (
(15,305,o),
(83,240,o),
(188,240,cs),
(292,240,o),
(358,305,o),
(358,403,cs),
(358,501,o),
(291,564,o),
(186,564,cs),
(81,564,o),
(15,501,o),
(15,403,cs)
);
}
);
width = 373;
}
);
note = ordmasculine;
unicode = 186;
},
{
glyphname = guillemotright;
layers = (
{
layerId = m01;
shapes = (
{
closed = 1;
nodes = (
(213,51,ls),
(208,45,o),
(212,38,o),
(219,38,cs),
(314,38,ls),
(326,38,o),
(334,41,o),
(342,51,cs),
(448,186,ls),
(452,191,o),
(454,195,o),
(454,200,cs),
(454,205,o),
(452,209,o),
(448,214,cs),
(343,349,ls),
(335,359,o),
(327,362,o),
(315,362,cs),
(220,362,ls),
(213,362,o),
(209,355,o),
(214,349,cs),
(327,200,l)
);
},
{
closed = 1;
nodes = (
(25,51,ls),
(20,45,o),
(24,38,o),
(31,38,cs),
(126,38,ls),
(138,38,o),
(146,41,o),
(154,51,cs),
(260,186,ls),
(264,191,o),
(267,195,o),
(267,200,cs),
(267,205,o),
(264,209,o),
(260,214,cs),
(155,349,ls),
(147,359,o),
(139,362,o),
(127,362,cs),
(32,362,ls),
(25,362,o),
(21,355,o),
(26,349,cs),
(139,200,l)
);
}
);
width = 472;
}
);
note = guillemotright;
unicode = 187;
},
{
glyphname = onequarter;
layers = (
{
layerId = m01;
shapes = (
{
closed = 1;
nodes = (
(99,228,ls),
(99,221,o),
(103,217,o),
(110,217,cs),
(200,217,ls),
(207,217,o),
(211,221,o),
(211,228,cs),
(211,516,ls),
(211,542,o),
(196,556,o),
(167,556,cs),
(112,556,ls),
(101,556,o),
(88,552,o),
(80,549,cs),
(50,539,ls),
(39,536,o),
(35,528,o),
(35,519,cs),
(35,439,ls),
(35,432,o),
(41,429,o),
(48,432,cs),
(99,449,l)
);
},
{
closed = 1;
nodes = (
(240,0,ls),
(250,0,o),
(254,4,o),
(259,13,cs),
(516,482,ls),
(538,523,o),
(521,556,o),
(477,556,cs),
(447,556,ls),
(437,556,o),
(431,551,o),
(426,542,cs),
(135,13,ls),
(132,7,o),
(134,0,o),
(143,0,cs)
);
},
{
closed = 1;
nodes = (
(558,11,ls),
(558,4,o),
(562,0,o),
(569,0,cs),
(648,0,ls),
(656,0,o),
(659,4,o),
(659,11,cs),
(659,64,l),
(709,64,ls),
(717,64,o),
(719,68,o),
(719,74,cs),
(719,108,ls),
(719,134,o),
(704,148,o),
(675,148,cs),
(659,148,l),
(659,299,ls),
(659,325,o),
(644,339,o),
(616,339,cs),
(544,339,ls),
(528,339,o),
(522,332,o),
(517,324,cs),
(396,146,l),
(389,138,o),
(389,134,o),
(389,127,cs),
(389,75,ls),
(389,68,o),
(393,64,o),
(401,64,cs),
(558,64,l)
);
},
{
closed = 1;
nodes = (
(558,244,l),
(558,148,l),
(494,148,l)
);
}
);
width = 752;
}
);
note = onequarter;
unicode = 188;
},
{
glyphname = onehalf;
layers = (
{
layerId = m01;
shapes = (
{
closed = 1;
nodes = (
(606,122,o),
(724,144,o),
(724,250,cs),
(724,318,o),
(671,349,o),
(589,349,cs),
(546,349,o),
(510,339,o),
(487,329,cs),
(458,317,o),
(449,303,o),
(459,278,cs),
(479,234,ls),
(482,227,o),
(487,224,o),
(497,230,cs),
(520,244,o),
(548,258,o),
(578,258,cs),
(599,258,o),
(613,249,o),
(613,231,cs),
(613,179,o),
(452,172,o),
(452,11,cs),
(452,4,o),
(456,0,o),
(462,0,cs),
(722,0,ls),
(729,0,o),
(733,4,o),
(733,11,cs),
(733,53,ls),
(733,79,o),
(718,92,o),
(689,92,cs),
(596,92,l)
);
},
{
closed = 1;
nodes = (
(99,228,ls),
(99,221,o),
(103,217,o),
(110,217,cs),
(200,217,ls),
(207,217,o),
(211,221,o),
(211,228,cs),
(211,516,ls),
(211,542,o),
(196,556,o),
(167,556,cs),
(112,556,ls),
(101,556,o),
(88,552,o),
(80,549,cs),
(50,539,ls),
(39,536,o),
(35,528,o),
(35,519,cs),
(35,439,ls),
(35,432,o),
(41,429,o),
(48,432,cs),
(99,449,l)
);
},
{
closed = 1;
nodes = (
(240,0,ls),
(250,0,o),
(254,4,o),
(259,13,cs),
(516,482,ls),
(538,523,o),
(521,556,o),
(477,556,cs),
(447,556,ls),
(437,556,o),
(431,551,o),
(426,542,cs),
(135,13,ls),
(132,7,o),
(134,0,o),
(143,0,cs)
);
}
);
width = 785;
}
);
note = onehalf;
unicode = 189;
},
{
glyphname = threequarters;
layers = (
{
layerId = m01;
shapes = (
{
closed = 1;
nodes = (
(276,415,o),
(289,439,o),
(289,474,cs),
(289,536,o),
(233,566,o),
(159,566,cs),
(121,566,o),
(87,558,o),
(64,549,cs),
(34,538,o),
(26,521,o),
(36,497,cs),
(51,461,ls),
(54,454,o),
(61,453,o),
(70,458,cs),
(92,468,o),
(113,479,o),
(147,479,cs),
(174,479,o),
(187,473,o),
(187,457,cs),
(187,440,o),
(173,433,o),
(138,433,cs),
(97,433,ls),
(91,433,o),
(88,427,o),
(88,421,cs),
(88,382,ls),
(88,357,o),
(99,348,o),
(128,348,cs),
(160,348,ls),
(183,348,o),
(199,343,o),
(199,327,cs),
(199,306,o),
(181,297,o),
(148,297,cs),
(104,297,o),
(68,318,o),
(55,331,cs),
(50,336,o),
(46,338,o),
(41,338,cs),
(33,338,o),
(28,331,o),
(28,322,cs),
(28,268,o),
(75,209,o),
(167,209,cs),
(251,209,o),
(301,256,o),
(301,318,cs),
(301,354,o),
(287,382,o),
(254,398,c)
);
},
{
closed = 1;
nodes = (
(293,0,ls),
(303,0,o),
(308,4,o),
(313,13,cs),
(569,482,ls),
(592,523,o),
(575,556,o),
(532,556,cs),
(499,556,ls),
(489,556,o),
(484,551,o),
(479,542,cs),
(189,13,ls),
(186,7,o),
(188,0,o),
(197,0,cs)
);
},
{
closed = 1;
nodes = (
(613,11,ls),
(613,4,o),
(616,0,o),
(623,0,cs),
(702,0,ls),
(709,0,o),
(713,4,o),
(713,11,cs),
(713,64,l),
(763,64,ls),
(770,64,o),
(773,68,o),
(773,74,cs),
(773,108,ls),
(773,134,o),
(758,148,o),
(729,148,cs),
(713,148,l),
(713,299,ls),
(713,325,o),
(698,339,o),
(669,339,cs),
(598,339,ls),
(582,339,o),
(577,332,o),
(570,324,c),
(450,146,ls),
(445,138,o),
(444,134,o),
(444,127,cs),
(444,75,ls),
(444,68,o),
(447,64,o),
(454,64,cs),
(613,64,l)
);
},
{
closed = 1;
nodes = (
(613,244,l),
(613,148,l),
(549,148,l)
);
}
);
width = 804;
}
);
note = threequarters;
unicode = 190;
},
{
glyphname = questiondown;
layers = (
{
layerId = m01;
shapes = (
{
closed = 1;
nodes = (
(261,242,o),
(295,274,o),
(295,319,cs),
(295,364,o),
(261,397,o),
(217,397,cs),
(172,397,o),
(140,364,o),
(140,319,cs),
(140,274,o),
(172,242,o),
(217,242,cs)
);
},
{
closed = 1;
nodes = (
(9,-133,o),
(94,-183,o),
(205,-183,cs),
(273,-183,o),
(327,-165,o),
(382,-135,cs),
(393,-129,o),
(393,-120,o),
(391,-111,c),
(363,-31,ls),
(361,-25,o),
(358,-22,o),
(353,-22,cs),
(350,-22,o),
(346,-23,o),
(340,-26,cs),
(300,-46,o),
(260,-62,o),
(208,-62,cs),
(170,-62,o),
(148,-45,o),
(148,-14,cs),
(148,57,o),
(276,77,o),
(276,156,cs),
(276,189,o),
(246,217,o),
(208,217,cs),
(185,217,ls),
(168,217,o),
(162,211,o),
(162,195,cs),
(162,181,ls),
(162,172,o),
(159,166,o),
(148,158,cs),
(63,95,o),
(9,56,o),
(9,-34,cs)
);
}
);
width = 363;
}
);
note = questiondown;
unicode = 191;
},
{
glyphname = Agrave;
kernLeft = A;
kernRight = A;
layers = (
{
layerId = m01;
shapes = (
{
closed = 1;
nodes = (
(266,384,l),
(315,241,l),
(219,241,l)
);
},
{
closed = 1;
nodes = (
(352,125,l),
(390,13,l),
(394,5,o),
(399,0,o),
(410,0,cs),
(525,0,ls),
(534,0,o),
(536,7,o),
(535,13,c),
(372,466,ls),
(347,537,o),
(321,556,o),
(265,556,cs),
(206,556,ls),
(197,556,o),
(194,552,o),
(191,544,cs),
(5,13,ls),
(3,7,o),
(6,0,o),
(14,0,cs),
(127,0,ls),
(135,0,o),
(139,4,o),
(142,13,cs),
(180,125,l)
);
},
{
closed = 1;
nodes = (
(230,597,ls),
(240,588,o),
(252,585,o),
(266,585,cs),
(368,585,ls),
(377,585,o),
(380,595,o),
(374,600,cs),
(274,691,ls),
(264,699,o),
(257,702,o),
(244,702,cs),
(129,702,ls),
(120,702,o),
(117,692,o),
(124,687,cs)
);
}
);
width = 538;
}
);
note = Agrave;
unicode = 192;
},
{
glyphname = Aacute;
kernLeft = A;
kernRight = A;
layers = (
{
layerId = m01;
shapes = (
{
closed = 1;
nodes = (
(266,384,l),
(315,241,l),
(219,241,l)
);
},
{
closed = 1;
nodes = (
(352,125,l),
(390,13,l),
(394,5,o),
(399,0,o),
(410,0,cs),
(525,0,ls),
(534,0,o),
(536,7,o),
(535,13,c),
(372,466,ls),
(347,537,o),
(321,556,o),
(265,556,cs),
(206,556,ls),
(197,556,o),
(194,552,o),
(191,544,cs),
(5,13,ls),
(3,7,o),
(6,0,o),
(14,0,cs),
(127,0,ls),
(135,0,o),
(139,4,o),
(142,13,cs),
(180,125,l)
);
},
{
closed = 1;
nodes = (
(264,585,ls),
(278,585,o),
(290,588,o),
(300,597,cs),
(406,687,ls),
(413,692,o),
(410,702,o),
(401,702,cs),
(286,702,ls),
(273,702,o),
(266,699,o),
(256,691,cs),
(156,600,ls),
(150,595,o),
(152,585,o),
(161,585,cs)
);
}
);
width = 538;
}
);
note = Aacute;
unicode = 193;
},
{
glyphname = Acircumflex;
kernLeft = A;
kernRight = A;
layers = (
{
layerId = m01;
shapes = (
{
closed = 1;
nodes = (
(266,384,l),
(315,241,l),
(219,241,l)
);
},
{
closed = 1;
nodes = (
(352,125,l),
(390,13,l),
(394,5,o),
(399,0,o),
(410,0,cs),
(525,0,ls),
(534,0,o),
(536,7,o),
(535,13,c),
(372,466,ls),
(347,537,o),
(321,556,o),
(265,556,cs),
(206,556,ls),
(197,556,o),
(194,552,o),
(191,544,cs),
(5,13,ls),
(3,7,o),
(6,0,o),
(14,0,cs),
(127,0,ls),
(135,0,o),
(139,4,o),
(142,13,cs),
(180,125,l)
);
},
{
closed = 1;
nodes = (
(311,599,ls),
(320,589,o),
(331,585,o),
(345,585,cs),
(435,585,ls),
(444,585,o),
(446,595,o),
(441,600,cs),
(355,691,ls),
(345,701,o),
(338,702,o),
(325,702,cs),
(224,702,ls),
(211,702,o),
(203,701,o),
(194,691,cs),
(107,600,ls),
(102,595,o),
(105,585,o),
(114,585,cs),
(204,585,ls),
(218,585,o),
(229,589,o),
(237,599,cs),
(275,642,l)
);
}
);
width = 538;
}
);
note = Acircumflex;
unicode = 194;
},
{
glyphname = Atilde;
kernLeft = A;
kernRight = A;
layers = (
{
layerId = m01;
shapes = (
{
closed = 1;
nodes = (
(266,384,l),
(315,241,l),
(219,241,l)
);
},
{
closed = 1;
nodes = (
(352,125,l),
(390,13,l),
(394,5,o),
(399,0,o),
(410,0,cs),
(525,0,ls),
(534,0,o),
(536,7,o),
(535,13,c),
(372,466,ls),
(347,537,o),
(321,556,o),
(265,556,cs),
(206,556,ls),
(197,556,o),
(194,552,o),
(191,544,cs),
(5,13,ls),
(3,7,o),
(6,0,o),
(14,0,cs),
(127,0,ls),
(135,0,o),
(139,4,o),
(142,13,cs),
(180,125,l)
);
},
{
closed = 1;
nodes = (
(176,581,ls),
(183,581,o),
(188,585,o),
(189,593,cs),
(191,605,o),
(195,613,o),
(209,613,cs),
(227,613,o),
(282,587,o),
(324,587,cs),
(384,587,o),
(405,631,o),
(411,696,cs),
(412,704,o),
(409,709,o),
(400,709,cs),
(344,709,ls),
(337,709,o),
(333,706,o),
(331,697,cs),
(326,682,o),
(322,677,o),
(309,677,cs),
(282,677,o),
(240,706,o),
(189,706,cs),
(141,706,o),
(105,666,o),
(102,594,cs),
(102,586,o),
(105,581,o),
(114,581,cs)
);
}
);
width = 538;
}
);
note = Atilde;
unicode = 195;
},
{
glyphname = Adieresis;
kernLeft = A;
kernRight = A;
layers = (
{
layerId = m01;
shapes = (
{
closed = 1;
nodes = (
(266,384,l),
(315,241,l),
(219,241,l)
);
},
{
closed = 1;
nodes = (
(352,125,l),
(390,13,l),
(394,5,o),
(399,0,o),
(410,0,cs),
(525,0,ls),
(534,0,o),
(536,7,o),
(535,13,c),
(372,466,ls),
(347,537,o),
(321,556,o),
(265,556,cs),
(206,556,ls),
(197,556,o),
(194,552,o),
(191,544,cs),
(5,13,ls),
(3,7,o),
(6,0,o),
(14,0,cs),
(127,0,ls),
(135,0,o),
(139,4,o),
(142,13,cs),
(180,125,l)
);
},
{
closed = 1;
nodes = (
(109,603,o),
(140,571,o),
(180,571,cs),
(220,571,o),
(252,603,o),
(252,643,cs),
(252,682,o),
(220,714,o),
(180,714,cs),
(140,714,o),
(109,682,o),
(109,643,cs)
);
},
{
closed = 1;
nodes = (
(280,603,o),
(311,571,o),
(351,571,cs),
(391,571,o),
(422,603,o),
(422,643,cs),
(422,682,o),
(391,714,o),
(351,714,cs),
(311,714,o),
(280,682,o),
(280,643,cs)
);
}
);
width = 538;
}
);
note = Adieresis;
unicode = 196;
},
{
glyphname = Aring;
kernLeft = A;
kernRight = A;
layers = (
{
layerId = m01;
shapes = (
{
closed = 1;
nodes = (
(266,384,l),
(315,241,l),
(219,241,l)
);
},
{
closed = 1;
nodes = (
(352,125,l),
(390,13,l),
(394,5,o),
(399,0,o),
(410,0,cs),
(525,0,ls),
(534,0,o),
(536,7,o),
(535,13,c),
(372,466,ls),
(347,537,o),
(321,556,o),
(265,556,cs),
(206,556,ls),
(197,556,o),
(194,552,o),
(191,544,cs),
(5,13,ls),
(3,7,o),
(6,0,o),
(14,0,cs),
(127,0,ls),
(135,0,o),
(139,4,o),
(142,13,cs),
(180,125,l)
);
},
{
closed = 1;
nodes = (
(172,611,o),
(214,571,o),
(266,571,cs),
(316,571,o),
(358,611,o),
(358,663,cs),
(358,713,o),
(316,753,o),
(266,753,cs),
(214,753,o),
(172,713,o),
(172,663,cs)
);
},
{
closed = 1;
nodes = (
(250,632,o),
(236,646,o),
(236,663,cs),
(236,678,o),
(250,692,o),
(266,692,cs),
(281,692,o),
(295,678,o),
(295,663,cs),
(295,646,o),
(281,632,o),
(266,632,cs)
);
}
);
width = 538;
}
);
note = Aring;
unicode = 197;
},
{
glyphname = AE;
kernRight = E;
layers = (
{
layerId = m01;
shapes = (
{
closed = 1;
nodes = (
(371,118,l),
(371,13,ls),
(371,4,o),
(375,0,o),
(384,0,cs),
(716,0,ls),
(726,0,o),
(732,7,o),
(732,17,cs),
(732,59,ls),
(732,101,o),
(708,125,o),
(662,125,cs),
(506,125,l),
(506,221,l),
(689,221,ls),
(699,221,o),
(705,228,o),
(705,238,cs),
(705,277,ls),
(705,319,o),
(681,344,o),
(636,344,cs),
(506,344,l),
(506,431,l),
(708,431,ls),
(718,431,o),
(724,438,o),
(724,448,cs),
(724,488,ls),
(724,531,o),
(700,556,o),
(654,556,cs),
(312,556,ls),
(300,556,o),
(294,551,o),
(289,542,cs),
(5,13,ls),
(1,6,o),
(5,0,o),
(13,0,cs),
(133,0,ls),
(143,0,o),
(149,3,o),
(154,13,cs),
(208,118,l)
);
},
{
closed = 1;
nodes = (
(371,432,l),
(371,234,l),
(269,234,l)
);
}
);
width = 747;
}
);
note = AE;
unicode = 198;
},
{
glyphname = Ccedilla;
kernLeft = C;
kernRight = C;
layers = (
{
layerId = m01;
shapes = (
{
closed = 1;
nodes = (
(460,15,o),
(497,107,o),
(497,159,cs),
(497,182,o),
(486,186,o),
(478,186,cs),
(471,186,o),
(465,179,o),
(461,177,c),
(430,148,o),
(388,118,o),
(318,118,cs),
(235,118,o),
(173,169,o),
(173,276,cs),
(173,389,o),
(230,439,o),
(309,439,cs),
(363,439,o),
(397,428,o),
(436,408,c),
(442,406,o),
(452,401,o),
(458,401,cs),
(463,401,o),
(468,403,o),
(471,413,cs),
(482,457,ls),
(493,498,o),
(481,526,o),
(440,543,cs),
(400,561,o),
(352,566,o),
(305,566,cs),
(148,566,o),
(34,458,o),
(34,276,cs),
(34,122,o),
(114,21,o),
(235,-3,c),
(165,-112,ls),
(161,-119,o),
(162,-127,o),
(171,-127,cs),
(265,-127,ls),
(277,-127,o),
(288,-123,o),
(295,-110,c),
(341,-5,l)
);
}
);
width = 507;
}
);
note = Ccedilla;
unicode = 199;
},
{
glyphname = Egrave;
kernRight = E;
layers = (
{
layerId = m01;
shapes = (
{
closed = 1;
nodes = (
(182,221,l),
(364,221,ls),
(374,221,o),
(380,228,o),
(380,237,cs),
(380,277,ls),
(380,320,o),
(356,344,o),
(310,344,cs),
(182,344,l),
(182,430,l),
(383,430,ls),
(393,430,o),
(399,437,o),
(399,447,cs),
(399,489,ls),
(399,532,o),
(375,556,o),
(329,556,cs),
(59,556,ls),
(50,556,o),
(46,552,o),
(46,542,cs),
(46,13,ls),
(46,4,o),
(50,0,o),
(59,0,cs),
(391,0,ls),
(401,0,o),
(407,7,o),
(407,17,cs),
(407,59,ls),
(407,101,o),
(383,125,o),
(337,125,cs),
(182,125,l)
);
},
{
closed = 1;
nodes = (
(167,597,ls),
(177,588,o),
(189,585,o),
(203,585,cs),
(305,585,ls),
(314,585,o),
(317,595,o),
(311,600,cs),
(210,691,ls),
(201,699,o),
(194,702,o),
(181,702,cs),
(65,702,ls),
(57,702,o),
(54,692,o),
(60,687,cs)
);
}
);
width = 424;
}
);
note = Egrave;
unicode = 200;
},
{
glyphname = Eacute;
kernRight = E;
layers = (
{
layerId = m01;
shapes = (
{
closed = 1;
nodes = (
(182,221,l),
(364,221,ls),
(374,221,o),
(380,228,o),
(380,237,cs),
(380,277,ls),
(380,320,o),
(356,344,o),
(310,344,cs),
(182,344,l),
(182,430,l),
(383,430,ls),
(393,430,o),
(399,437,o),
(399,447,cs),
(399,489,ls),
(399,532,o),
(375,556,o),
(329,556,cs),
(59,556,ls),
(50,556,o),
(46,552,o),
(46,542,cs),
(46,13,ls),
(46,4,o),
(50,0,o),
(59,0,cs),
(391,0,ls),
(401,0,o),
(407,7,o),
(407,17,cs),
(407,59,ls),
(407,101,o),
(383,125,o),
(337,125,cs),
(182,125,l)
);
},
{
closed = 1;
nodes = (
(220,585,ls),
(234,585,o),
(245,588,o),
(255,597,cs),
(362,687,ls),
(369,692,o),
(365,702,o),
(357,702,cs),
(242,702,ls),
(229,702,o),
(222,699,o),
(212,691,cs),
(112,600,l),
(105,595,o),
(108,585,o),
(117,585,cs)
);
}
);
width = 424;
}
);
note = Eacute;
unicode = 201;
},
{
glyphname = Ecircumflex;
kernRight = E;
layers = (
{
layerId = m01;
shapes = (
{
closed = 1;
nodes = (
(184,221,l),
(367,221,ls),
(377,221,o),
(383,228,o),
(383,237,cs),
(383,277,ls),
(383,320,o),
(359,344,o),
(313,344,cs),
(184,344,l),
(184,430,l),
(386,430,ls),
(396,430,o),
(402,437,o),
(402,447,cs),
(402,489,ls),
(402,532,o),
(378,556,o),
(332,556,cs),
(62,556,ls),
(53,556,o),
(49,552,o),
(49,542,cs),
(49,13,ls),
(49,4,o),
(53,0,o),
(62,0,cs),
(394,0,ls),
(404,0,o),
(410,7,o),
(410,17,cs),
(410,59,ls),
(410,101,o),
(386,125,o),
(340,125,cs),
(184,125,l)
);
},
{
closed = 1;
nodes = (
(255,599,ls),
(264,589,o),
(275,585,o),
(289,585,cs),
(379,585,ls),
(388,585,o),
(390,595,o),
(385,600,cs),
(298,691,ls),
(289,701,o),
(282,702,o),
(269,702,cs),
(167,702,ls),
(154,702,o),
(147,701,o),
(138,691,cs),
(51,600,ls),
(46,595,o),
(48,585,o),
(57,585,cs),
(148,585,ls),
(162,585,o),
(172,589,o),
(181,599,cs),
(218,642,l)
);
}
);
width = 424;
}
);
note = Ecircumflex;
unicode = 202;
},
{
glyphname = Edieresis;
kernRight = E;
layers = (
{
layerId = m01;
shapes = (
{
closed = 1;
nodes = (
(182,221,l),
(364,221,ls),
(374,221,o),
(380,228,o),
(380,237,cs),
(380,277,ls),
(380,320,o),
(356,344,o),
(310,344,cs),
(182,344,l),
(182,430,l),
(383,430,ls),
(393,430,o),
(399,437,o),
(399,447,cs),
(399,489,ls),
(399,532,o),
(375,556,o),
(329,556,cs),
(59,556,ls),
(50,556,o),
(46,552,o),
(46,542,cs),
(46,13,ls),
(46,4,o),
(50,0,o),
(59,0,cs),
(391,0,ls),
(401,0,o),
(407,7,o),
(407,17,cs),
(407,59,ls),
(407,101,o),
(383,125,o),
(337,125,cs),
(182,125,l)
);
},
{
closed = 1;
nodes = (
(64,603,o),
(96,571,o),
(136,571,cs),
(175,571,o),
(208,603,o),
(208,643,cs),
(208,682,o),
(175,714,o),
(136,714,cs),
(96,714,o),
(64,682,o),
(64,643,cs)
);
},
{
closed = 1;
nodes = (
(235,603,o),
(267,571,o),
(307,571,cs),
(347,571,o),
(378,603,o),
(378,643,cs),
(378,682,o),
(347,714,o),
(307,714,cs),
(267,714,o),
(235,682,o),
(235,643,cs)
);
}
);
width = 424;
}
);
note = Edieresis;
unicode = 203;
},
{
glyphname = Igrave;
kernRight = I;
layers = (
{
layerId = m01;
shapes = (
{
closed = 1;
nodes = (
(53,4,o),
(58,0,o),
(66,0,cs),
(175,0,ls),
(184,0,o),
(189,4,o),
(189,13,cs),
(189,455,ls),
(189,528,o),
(158,556,o),
(94,556,cs),
(66,556,ls),
(58,556,o),
(53,552,o),
(53,542,cs),
(53,13,ls)
);
},
{
closed = 1;
nodes = (
(95,597,ls),
(105,588,o),
(117,585,o),
(131,585,cs),
(233,585,ls),
(242,585,o),
(245,595,o),
(239,600,cs),
(139,691,ls),
(129,699,o),
(122,702,o),
(109,702,cs),
(-6,702,ls),
(-15,702,o),
(-18,692,o),
(-11,687,cs)
);
}
);
width = 227;
}
);
note = Igrave;
unicode = 204;
},
{
glyphname = Iacute;
kernRight = I;
layers = (
{
layerId = m01;
shapes = (
{
closed = 1;
nodes = (
(40,4,o),
(45,0,o),
(54,0,cs),
(163,0,ls),
(171,0,o),
(176,4,o),
(176,13,cs),
(176,455,ls),
(176,528,o),
(145,556,o),
(81,556,cs),
(54,556,ls),
(45,556,o),
(40,552,o),
(40,542,cs),
(40,13,ls)
);
},
{
closed = 1;
nodes = (
(96,585,ls),
(110,585,o),
(122,588,o),
(132,597,cs),
(238,687,ls),
(245,692,o),
(242,702,o),
(233,702,cs),
(118,702,ls),
(105,702,o),
(98,699,o),
(88,691,cs),
(-12,600,ls),
(-18,595,o),
(-15,585,o),
(-6,585,cs)
);
}
);
width = 227;
}
);
note = Iacute;
unicode = 205;
},
{
glyphname = Icircumflex;
kernRight = I;
layers = (
{
layerId = m01;
shapes = (
{
closed = 1;
nodes = (
(43,4,o),
(47,0,o),
(56,0,cs),
(165,0,ls),
(174,0,o),
(178,4,o),
(178,13,cs),
(178,455,ls),
(178,528,o),
(147,556,o),
(84,556,cs),
(56,556,ls),
(47,556,o),
(43,552,o),
(43,542,cs),
(43,13,ls)
);
},
{
closed = 1;
nodes = (
(150,599,ls),
(159,589,o),
(170,585,o),
(184,585,cs),
(274,585,ls),
(283,585,o),
(285,595,o),
(280,600,cs),
(193,691,ls),
(184,701,o),
(177,702,o),
(164,702,cs),
(62,702,ls),
(49,702,o),
(42,701,o),
(33,691,cs),
(-54,600,ls),
(-59,595,o),
(-57,585,o),
(-48,585,cs),
(43,585,ls),
(57,585,o),
(67,589,o),
(76,599,cs),
(113,642,l)
);
}
);
width = 227;
}
);
note = Icircumflex;
unicode = 206;
},
{
glyphname = Idieresis;
kernRight = I;
layers = (
{
layerId = m01;
shapes = (
{
closed = 1;
nodes = (
(45,4,o),
(50,0,o),
(59,0,cs),
(168,0,ls),
(177,0,o),
(181,4,o),
(181,13,cs),
(181,455,ls),
(181,528,o),
(150,556,o),
(87,556,cs),
(59,556,ls),
(50,556,o),
(45,552,o),
(45,542,cs),
(45,13,ls)
);
},
{
closed = 1;
nodes = (
(-44,603,o),
(-12,571,o),
(28,571,cs),
(67,571,o),
(99,603,o),
(99,643,cs),
(99,682,o),
(67,714,o),
(28,714,cs),
(-12,714,o),
(-44,682,o),
(-44,643,cs)
);
},
{
closed = 1;
nodes = (
(127,603,o),
(159,571,o),
(198,571,cs),
(238,571,o),
(270,603,o),
(270,643,cs),
(270,682,o),
(238,714,o),
(198,714,cs),
(159,714,o),
(127,682,o),
(127,643,cs)
);
}
);
width = 227;
}
);
note = Idieresis;
unicode = 207;
},
{
glyphname = Eth;
layers = (
{
layerId = m01;
shapes = (
{
closed = 1;
nodes = (
(80,13,ls),
(80,4,o),
(84,0,o),
(92,0,cs),
(258,0,ls),
(441,0,o),
(557,90,o),
(557,288,cs),
(557,501,o),
(412,556,o),
(264,556,cs),
(92,556,ls),
(84,556,o),
(80,551,o),
(80,542,cs),
(80,344,l),
(28,344,ls),
(19,344,o),
(15,341,o),
(15,332,cs),
(15,235,ls),
(15,226,o),
(19,222,o),
(28,222,cs),
(80,222,l)
);
},
{
closed = 1;
nodes = (
(215,222,l),
(324,222,ls),
(334,222,o),
(341,229,o),
(341,239,cs),
(341,278,ls),
(341,321,o),
(317,344,o),
(272,344,cs),
(215,344,l),
(215,431,l),
(264,431,ls),
(361,431,o),
(418,394,o),
(418,284,cs),
(418,179,o),
(362,125,o),
(269,125,cs),
(215,125,l)
);
}
);
width = 591;
}
);
note = Eth;
unicode = 208;
},
{
glyphname = Ntilde;
kernRight = N;
layers = (
{
layerId = m01;
shapes = (
{
closed = 1;
nodes = (
(354,18,ls),
(362,4,o),
(370,0,o),
(385,0,cs),
(479,0,ls),
(488,0,o),
(492,4,o),
(492,13,cs),
(492,455,ls),
(492,528,o),
(462,556,o),
(398,556,cs),
(370,556,ls),
(361,556,o),
(357,552,o),
(357,542,cs),
(357,261,l),
(209,500,ls),
(183,542,o),
(159,556,o),
(111,556,cs),
(59,556,ls),
(50,556,o),
(46,552,o),
(46,542,cs),
(46,13,ls),
(46,4,o),
(50,0,o),
(59,0,cs),
(168,0,ls),
(177,0,o),
(182,4,o),
(182,13,cs),
(182,297,l)
);
},
{
closed = 1;
nodes = (
(190,581,ls),
(197,581,o),
(202,585,o),
(203,593,cs),
(205,605,o),
(209,613,o),
(223,613,cs),
(242,613,o),
(297,587,o),
(338,587,cs),
(398,587,o),
(419,631,o),
(425,696,c),
(427,704,o),
(423,709,o),
(414,709,cs),
(358,709,ls),
(351,709,o),
(347,706,o),
(345,697,cs),
(340,682,o),
(336,677,o),
(323,677,cs),
(297,677,o),
(254,706,o),
(203,706,cs),
(155,706,o),
(119,666,o),
(117,594,cs),
(117,586,o),
(119,581,o),
(128,581,cs)
);
}
);
width = 537;
}
);
note = Ntilde;
unicode = 209;
},
{
glyphname = Ograve;
kernLeft = O;
kernRight = O;
layers = (
{
layerId = m01;
shapes = (
{
closed = 1;
nodes = (
(228,118,o),
(172,160,o),
(172,277,cs),
(172,397,o),
(228,439,o),
(303,439,cs),
(377,439,o),
(434,397,o),
(434,277,cs),
(434,160,o),
(377,118,o),
(303,118,cs)
);
},
{
closed = 1;
nodes = (
(475,-9,o),
(572,101,o),
(572,277,cs),
(572,454,o),
(473,566,o),
(303,566,cs),
(133,566,o),
(34,454,o),
(34,277,cs),
(34,101,o),
(131,-9,o),
(303,-9,cs)
);
},
{
closed = 1;
nodes = (
(270,597,ls),
(280,588,o),
(291,585,o),
(305,585,cs),
(407,585,ls),
(416,585,o),
(420,595,o),
(413,600,c),
(313,691,ls),
(303,699,o),
(296,702,o),
(283,702,cs),
(168,702,ls),
(159,702,o),
(156,692,o),
(163,687,cs)
);
}
);
width = 606;
}
);
note = Ograve;
unicode = 210;
},
{
glyphname = Oacute;
kernLeft = O;
kernRight = O;
layers = (
{
layerId = m01;
shapes = (
{
closed = 1;
nodes = (
(228,118,o),
(172,160,o),
(172,277,cs),
(172,397,o),
(228,439,o),
(303,439,cs),
(377,439,o),
(434,397,o),
(434,277,cs),
(434,160,o),
(377,118,o),
(303,118,cs)
);
},
{
closed = 1;
nodes = (
(475,-9,o),
(572,101,o),
(572,277,cs),
(572,454,o),
(473,566,o),
(303,566,cs),
(133,566,o),
(34,454,o),
(34,277,cs),
(34,101,o),
(131,-9,o),
(303,-9,cs)
);
},
{
closed = 1;
nodes = (
(303,585,ls),
(317,585,o),
(329,588,o),
(339,597,cs),
(445,687,ls),
(452,692,o),
(449,702,o),
(440,702,cs),
(325,702,ls),
(312,702,o),
(305,699,o),
(295,691,cs),
(195,600,ls),
(189,595,o),
(192,585,o),
(201,585,cs)
);
}
);
width = 606;
}
);
note = Oacute;
unicode = 211;
},
{
glyphname = Ocircumflex;
kernLeft = O;
kernRight = O;
layers = (
{
layerId = m01;
shapes = (
{
closed = 1;
nodes = (
(228,118,o),
(172,160,o),
(172,277,cs),
(172,397,o),
(228,439,o),
(303,439,cs),
(377,439,o),
(434,397,o),
(434,277,cs),
(434,160,o),
(377,118,o),
(303,118,cs)
);
},
{
closed = 1;
nodes = (
(475,-9,o),
(572,101,o),
(572,277,cs),
(572,454,o),
(473,566,o),
(303,566,cs),
(133,566,o),
(34,454,o),
(34,277,cs),
(34,101,o),
(131,-9,o),
(303,-9,cs)
);
},
{
closed = 1;
nodes = (
(345,599,ls),
(353,589,o),
(365,585,o),
(378,585,cs),
(468,585,ls),
(477,585,o),
(480,595,o),
(475,600,cs),
(388,691,ls),
(378,701,o),
(371,702,o),
(358,702,cs),
(257,702,ls),
(244,702,o),
(236,701,o),
(227,691,cs),
(141,600,ls),
(136,595,o),
(138,585,o),
(147,585,cs),
(237,585,ls),
(251,585,o),
(262,589,o),
(271,599,cs),
(308,642,l)
);
}
);
width = 606;
}
);
note = Ocircumflex;
unicode = 212;
},
{
glyphname = Otilde;
kernLeft = O;
kernRight = O;
layers = (
{
layerId = m01;
shapes = (
{
closed = 1;
nodes = (
(228,118,o),
(172,160,o),
(172,277,cs),
(172,397,o),
(228,439,o),
(303,439,cs),
(377,439,o),
(434,397,o),
(434,277,cs),
(434,160,o),
(377,118,o),
(303,118,cs)
);
},
{
closed = 1;
nodes = (
(475,-9,o),
(572,101,o),
(572,277,cs),
(572,454,o),
(473,566,o),
(303,566,cs),
(133,566,o),
(34,454,o),
(34,277,cs),
(34,101,o),
(131,-9,o),
(303,-9,cs)
);
},
{
closed = 1;
nodes = (
(220,581,ls),
(227,581,o),
(232,585,o),
(233,593,cs),
(235,605,o),
(238,613,o),
(252,613,cs),
(271,613,o),
(326,587,o),
(368,587,cs),
(427,587,o),
(448,631,o),
(455,696,cs),
(456,704,o),
(452,709,o),
(444,709,cs),
(388,709,ls),
(381,709,o),
(377,706,o),
(375,697,cs),
(370,682,o),
(366,677,o),
(353,677,cs),
(326,677,o),
(283,706,o),
(233,706,cs),
(185,706,o),
(149,666,o),
(146,594,cs),
(146,586,o),
(149,581,o),
(157,581,cs)
);
}
);
width = 606;
}
);
note = Otilde;
unicode = 213;
},
{
glyphname = Odieresis;
kernLeft = O;
kernRight = O;
layers = (
{
layerId = m01;
shapes = (
{
closed = 1;
nodes = (
(228,118,o),
(172,160,o),
(172,277,cs),
(172,397,o),
(228,439,o),
(303,439,cs),
(377,439,o),
(434,397,o),
(434,277,cs),
(434,160,o),
(377,118,o),
(303,118,cs)
);
},
{
closed = 1;
nodes = (
(475,-9,o),
(572,101,o),
(572,277,cs),
(572,454,o),
(473,566,o),
(303,566,cs),
(133,566,o),
(34,454,o),
(34,277,cs),
(34,101,o),
(131,-9,o),
(303,-9,cs)
);
},
{
closed = 1;
nodes = (
(151,603,o),
(182,571,o),
(222,571,cs),
(262,571,o),
(294,603,o),
(294,643,cs),
(294,682,o),
(262,714,o),
(222,714,cs),
(182,714,o),
(151,682,o),
(151,643,cs)
);
},
{
closed = 1;
nodes = (
(322,603,o),
(353,571,o),
(393,571,cs),
(433,571,o),
(465,603,o),
(465,643,cs),
(465,682,o),
(433,714,o),
(393,714,cs),
(353,714,o),
(322,682,o),
(322,643,cs)
);
}
);
width = 606;
}
);
note = Odieresis;
unicode = 214;
},
{
glyphname = multiply;
layers = (
{
layerId = m01;
shapes = (
{
closed = 1;
nodes = (
(46,180,ls),
(39,173,o),
(39,168,o),
(46,161,cs),
(102,104,ls),
(109,98,o),
(114,98,o),
(120,104,cs),
(216,200,l),
(272,143,ls),
(315,99,o),
(348,101,o),
(394,147,cs),
(399,152,ls),
(406,159,o),
(406,163,o),
(399,171,cs),
(293,276,l),
(388,372,ls),
(394,378,o),
(394,383,o),
(388,389,cs),
(331,447,ls),
(324,454,o),
(319,454,o),
(312,447,cs),
(218,352,l),
(161,408,ls),
(119,451,o),
(86,451,o),
(40,404,cs),
(34,398,ls),
(28,392,o),
(28,387,o),
(34,381,cs),
(140,274,l)
);
}
);
width = 432;
}
);
note = multiply;
unicode = 215;
},
{
glyphname = Oslash;
kernLeft = O;
kernRight = O;
layers = (
{
layerId = m01;
shapes = (
{
closed = 1;
nodes = (
(177,217,o),
(172,244,o),
(172,277,cs),
(172,397,o),
(229,439,o),
(303,439,cs),
(315,439,o),
(326,439,o),
(337,437,c),
(185,195,l)
);
},
{
closed = 1;
nodes = (
(431,337,o),
(435,309,o),
(435,277,cs),
(435,160,o),
(378,118,o),
(303,118,cs),
(292,118,o),
(280,119,o),
(271,121,c),
(423,359,l)
);
},
{
closed = 1;
nodes = (
(475,-9,o),
(572,100,o),
(572,277,cs),
(572,454,o),
(473,566,o),
(303,566,cs),
(133,566,o),
(34,454,o),
(34,277,cs),
(34,100,o),
(131,-9,o),
(303,-9,cs)
);
}
);
width = 606;
}
);
note = Oslash;
unicode = 216;
},
{
glyphname = Ugrave;
kernLeft = U;
kernRight = U;
layers = (
{
layerId = m01;
shapes = (
{
closed = 1;
nodes = (
(43,139,o),
(68,-9,o),
(262,-9,cs),
(460,-9,o),
(486,139,o),
(486,211,cs),
(486,455,ls),
(486,528,o),
(455,556,o),
(392,556,cs),
(364,556,ls),
(355,556,o),
(351,552,o),
(351,542,cs),
(351,232,ls),
(351,163,o),
(327,117,o),
(262,117,cs),
(200,117,o),
(178,163,o),
(178,233,cs),
(178,455,ls),
(178,528,o),
(147,556,o),
(84,556,cs),
(56,556,ls),
(47,556,o),
(43,552,o),
(43,542,cs),
(43,211,ls)
);
},
{
closed = 1;
nodes = (
(220,597,ls),
(230,588,o),
(241,585,o),
(255,585,cs),
(357,585,ls),
(366,585,o),
(370,595,o),
(364,600,cs),
(263,691,ls),
(254,699,o),
(246,702,o),
(234,702,cs),
(118,702,ls),
(109,702,o),
(106,692,o),
(113,687,cs)
);
}
);
width = 528;
}
);
note = Ugrave;
unicode = 217;
},
{
glyphname = Uacute;
kernLeft = U;
kernRight = U;
layers = (
{
layerId = m01;
shapes = (
{
closed = 1;
nodes = (
(43,139,o),
(68,-9,o),
(262,-9,cs),
(460,-9,o),
(486,139,o),
(486,211,cs),
(486,455,ls),
(486,528,o),
(455,556,o),
(392,556,cs),
(364,556,ls),
(355,556,o),
(351,552,o),
(351,542,cs),
(351,232,ls),
(351,163,o),
(327,117,o),
(262,117,cs),
(200,117,o),
(178,163,o),
(178,233,cs),
(178,455,ls),
(178,528,o),
(147,556,o),
(84,556,cs),
(56,556,ls),
(47,556,o),
(43,552,o),
(43,542,cs),
(43,211,ls)
);
},
{
closed = 1;
nodes = (
(254,585,ls),
(268,585,o),
(280,588,o),
(290,597,cs),
(396,687,ls),
(403,692,o),
(400,702,o),
(391,702,cs),
(276,702,ls),
(263,702,o),
(256,699,o),
(246,691,cs),
(146,600,ls),
(140,595,o),
(142,585,o),
(151,585,cs)
);
}
);
width = 528;
}
);
note = Uacute;
unicode = 218;
},
{
glyphname = Ucircumflex;
kernLeft = U;
kernRight = U;
layers = (
{
layerId = m01;
shapes = (
{
closed = 1;
nodes = (
(43,139,o),
(68,-9,o),
(262,-9,cs),
(460,-9,o),
(486,139,o),
(486,211,cs),
(486,455,ls),
(486,528,o),
(455,556,o),
(392,556,cs),
(364,556,ls),
(355,556,o),
(351,552,o),
(351,542,cs),
(351,232,ls),
(351,163,o),
(327,117,o),
(262,117,cs),
(200,117,o),
(178,163,o),
(178,233,cs),
(178,455,ls),
(178,528,o),
(147,556,o),
(84,556,cs),
(56,556,ls),
(47,556,o),
(43,552,o),
(43,542,cs),
(43,211,ls)
);
},
{
closed = 1;
nodes = (
(304,599,ls),
(312,589,o),
(324,585,o),
(337,585,cs),
(427,585,ls),
(436,585,o),
(439,595,o),
(434,600,cs),
(347,691,ls),
(337,701,o),
(330,702,o),
(317,702,cs),
(216,702,ls),
(203,702,o),
(195,701,o),
(186,691,cs),
(100,600,ls),
(95,595,o),
(97,585,o),
(106,585,cs),
(196,585,ls),
(210,585,o),
(221,589,o),
(230,599,cs),
(267,642,l)
);
}
);
width = 528;
}
);
note = Ucircumflex;
unicode = 219;
},
{
glyphname = Udieresis;
kernLeft = U;
kernRight = U;
layers = (
{
layerId = m01;
shapes = (
{
closed = 1;
nodes = (
(43,139,o),
(68,-9,o),
(262,-9,cs),
(460,-9,o),
(486,139,o),
(486,211,cs),
(486,455,ls),
(486,528,o),
(455,556,o),
(392,556,cs),
(364,556,ls),
(355,556,o),
(351,552,o),
(351,542,cs),
(351,232,ls),
(351,163,o),
(327,117,o),
(262,117,cs),
(200,117,o),
(178,163,o),
(178,233,cs),
(178,455,ls),
(178,528,o),
(147,556,o),
(84,556,cs),
(56,556,ls),
(47,556,o),
(43,552,o),
(43,542,cs),
(43,211,ls)
);
},
{
closed = 1;
nodes = (
(105,603,o),
(137,571,o),
(177,571,cs),
(216,571,o),
(249,603,o),
(249,643,cs),
(249,682,o),
(216,714,o),
(177,714,cs),
(137,714,o),
(105,682,o),
(105,643,cs)
);
},
{
closed = 1;
nodes = (
(276,603,o),
(308,571,o),
(347,571,cs),
(387,571,o),
(419,603,o),
(419,643,cs),
(419,682,o),
(387,714,o),
(347,714,cs),
(308,714,o),
(276,682,o),
(276,643,cs)
);
}
);
width = 528;
}
);
note = Udieresis;
unicode = 220;
},
{
glyphname = Yacute;
kernLeft = Y;
kernRight = Y;
layers = (
{
layerId = m01;
shapes = (
{
closed = 1;
nodes = (
(179,13,ls),
(179,4,o),
(183,0,o),
(192,0,cs),
(301,0,ls),
(310,0,o),
(314,4,o),
(314,13,cs),
(314,199,l),
(496,542,ls),
(499,548,o),
(497,556,o),
(488,556,cs),
(370,556,ls),
(362,556,o),
(355,552,o),
(350,542,cs),
(252,346,l),
(176,495,ls),
(153,539,o),
(124,556,o),
(77,556,cs),
(7,556,ls),
(-2,556,o),
(-4,548,o),
(-1,542,cs),
(179,203,l)
);
},
{
closed = 1;
nodes = (
(252,585,ls),
(265,585,o),
(277,588,o),
(287,597,cs),
(393,687,ls),
(400,692,o),
(397,702,o),
(388,702,cs),
(273,702,ls),
(260,702,o),
(253,699,o),
(243,691,cs),
(143,600,ls),
(137,595,o),
(140,585,o),
(149,585,cs)
);
}
);
width = 492;
}
);
note = Yacute;
unicode = 221;
},
{
glyphname = Thorn;
layers = (
{
layerId = m01;
shapes = (
{
closed = 1;
nodes = (
(273,88,ls),
(394,88,o),
(472,171,o),
(472,281,cs),
(472,392,o),
(410,464,o),
(258,464,cs),
(180,464,l),
(178,531,o),
(147,556,o),
(87,556,cs),
(59,556,ls),
(50,556,o),
(46,551,o),
(46,542,cs),
(46,13,ls),
(46,4,o),
(50,0,o),
(59,0,cs),
(168,0,ls),
(177,0,o),
(180,4,o),
(180,13,cs),
(180,88,l)
);
},
{
closed = 1;
nodes = (
(180,339,l),
(267,339,ls),
(308,339,o),
(338,321,o),
(338,278,cs),
(338,223,o),
(299,213,o),
(267,213,cs),
(180,213,l)
);
}
);
width = 494;
}
);
note = Thorn;
unicode = 222;
},
{
glyphname = germandbls;
layers = (
{
layerId = m01;
shapes = (
{
closed = 1;
nodes = (
(155,0,ls),
(164,0,o),
(169,4,o),
(169,13,cs),
(169,386,ls),
(169,433,o),
(193,458,o),
(230,458,cs),
(273,458,o),
(284,433,o),
(284,416,cs),
(284,373,o),
(215,333,o),
(215,279,cs),
(215,173,o),
(340,171,o),
(340,124,cs),
(340,107,o),
(329,95,o),
(307,95,cs),
(274,95,o),
(247,107,o),
(218,135,c),
(215,137,o),
(212,140,o),
(208,140,cs),
(200,140,o),
(193,133,o),
(193,118,cs),
(193,56,o),
(244,-10,o),
(335,-10,cs),
(435,-10,o),
(482,54,o),
(482,131,cs),
(482,256,o),
(339,264,o),
(339,314,cs),
(339,342,o),
(402,385,o),
(402,443,cs),
(402,486,o),
(368,566,o),
(229,566,cs),
(115,566,o),
(36,504,o),
(36,399,cs),
(36,13,ls),
(36,4,o),
(40,0,o),
(49,0,cs)
);
}
);
width = 492;
}
);
note = germandbls;
unicode = 223;
},
{
glyphname = agrave;
kernLeft = a;
layers = (
{
layerId = m01;
shapes = (
{
closed = 1;
nodes = (
(297,13,ls),
(297,4,o),
(301,0,o),
(310,0,cs),
(417,0,ls),
(426,0,o),
(430,4,o),
(430,13,cs),
(430,373,ls),
(430,382,o),
(426,386,o),
(417,386,cs),
(400,386,ls),
(361,386,o),
(333,377,o),
(318,353,c),
(292,381,o),
(252,397,o),
(203,397,cs),
(92,397,o),
(24,309,o),
(24,196,cs),
(24,83,o),
(84,-8,o),
(201,-8,cs),
(242,-8,o),
(273,6,o),
(297,28,c)
);
},
{
closed = 1;
nodes = (
(209,114,o),
(161,125,o),
(161,195,cs),
(161,264,o),
(210,272,o),
(231,272,cs),
(253,272,o),
(297,264,o),
(297,195,cs),
(297,125,o),
(252,114,o),
(231,114,cs)
);
},
{
closed = 1;
nodes = (
(196,438,ls),
(206,429,o),
(217,426,o),
(231,426,cs),
(333,426,ls),
(342,426,o),
(346,436,o),
(340,441,cs),
(239,532,ls),
(230,541,o),
(222,543,o),
(210,543,cs),
(94,543,ls),
(85,543,o),
(82,533,o),
(89,528,cs)
);
}
);
width = 464;
}
);
note = agrave;
unicode = 224;
},
{
glyphname = aacute;
kernLeft = a;
layers = (
{
layerId = m01;
shapes = (
{
closed = 1;
nodes = (
(297,13,ls),
(297,4,o),
(301,0,o),
(310,0,cs),
(417,0,ls),
(426,0,o),
(430,4,o),
(430,13,cs),
(430,373,ls),
(430,382,o),
(426,386,o),
(417,386,cs),
(400,386,ls),
(361,386,o),
(333,377,o),
(318,353,c),
(292,381,o),
(252,397,o),
(203,397,cs),
(92,397,o),
(24,309,o),
(24,196,cs),
(24,83,o),
(84,-8,o),
(201,-8,cs),
(242,-8,o),
(273,6,o),
(297,28,c)
);
},
{
closed = 1;
nodes = (
(209,114,o),
(161,125,o),
(161,195,cs),
(161,264,o),
(210,272,o),
(231,272,cs),
(253,272,o),
(297,264,o),
(297,195,cs),
(297,125,o),
(252,114,o),
(231,114,cs)
);
},
{
closed = 1;
nodes = (
(240,426,ls),
(253,426,o),
(265,429,o),
(275,438,cs),
(381,528,ls),
(388,533,o),
(385,543,o),
(376,543,cs),
(261,543,ls),
(248,543,o),
(241,541,o),
(231,532,cs),
(131,441,ls),
(125,436,o),
(128,426,o),
(137,426,cs)
);
}
);
width = 464;
}
);
note = aacute;
unicode = 225;
},
{
glyphname = acircumflex;
kernLeft = a;
layers = (
{
layerId = m01;
shapes = (
{
closed = 1;
nodes = (
(297,13,ls),
(297,4,o),
(301,0,o),
(310,0,cs),
(417,0,ls),
(426,0,o),
(430,4,o),
(430,13,cs),
(430,373,ls),
(430,382,o),
(426,386,o),
(417,386,cs),
(400,386,ls),
(361,386,o),
(333,377,o),
(318,353,c),
(292,381,o),
(252,397,o),
(203,397,cs),
(92,397,o),
(24,309,o),
(24,196,cs),
(24,83,o),
(84,-8,o),
(201,-8,cs),
(242,-8,o),
(273,6,o),
(297,28,c)
);
},
{
closed = 1;
nodes = (
(209,114,o),
(161,125,o),
(161,195,cs),
(161,264,o),
(210,272,o),
(231,272,cs),
(253,272,o),
(297,264,o),
(297,195,cs),
(297,125,o),
(252,114,o),
(231,114,cs)
);
},
{
closed = 1;
nodes = (
(277,440,ls),
(286,430,o),
(297,426,o),
(311,426,cs),
(401,426,ls),
(410,426,o),
(412,436,o),
(407,441,cs),
(320,532,ls),
(311,542,o),
(303,543,o),
(291,543,cs),
(189,543,ls),
(176,543,o),
(168,542,o),
(160,532,c),
(73,441,ls),
(68,436,o),
(70,426,o),
(79,426,cs),
(170,426,ls),
(183,426,o),
(194,430,o),
(203,440,cs),
(240,483,l)
);
}
);
width = 464;
}
);
note = acircumflex;
unicode = 226;
},
{
glyphname = atilde;
kernLeft = a;
layers = (
{
layerId = m01;
shapes = (
{
closed = 1;
nodes = (
(297,13,ls),
(297,4,o),
(301,0,o),
(310,0,cs),
(417,0,ls),
(426,0,o),
(430,4,o),
(430,13,cs),
(430,373,ls),
(430,382,o),
(426,386,o),
(417,386,cs),
(400,386,ls),
(361,386,o),
(333,377,o),
(318,353,c),
(292,381,o),
(252,397,o),
(203,397,cs),
(92,397,o),
(24,309,o),
(24,196,cs),
(24,83,o),
(84,-8,o),
(201,-8,cs),
(242,-8,o),
(273,6,o),
(297,28,c)
);
},
{
closed = 1;
nodes = (
(209,114,o),
(161,125,o),
(161,195,cs),
(161,264,o),
(210,272,o),
(231,272,cs),
(253,272,o),
(297,264,o),
(297,195,cs),
(297,125,o),
(252,114,o),
(231,114,cs)
);
},
{
closed = 1;
nodes = (
(160,422,ls),
(167,422,o),
(172,426,o),
(173,434,cs),
(175,446,o),
(178,454,o),
(192,454,cs),
(211,454,o),
(266,428,o),
(308,428,cs),
(367,428,o),
(388,472,o),
(395,537,cs),
(396,546,o),
(392,551,o),
(384,551,cs),
(328,551,ls),
(321,551,o),
(317,547,o),
(315,538,cs),
(310,523,o),
(306,518,o),
(293,518,cs),
(266,518,o),
(223,547,o),
(173,547,cs),
(125,547,o),
(89,507,o),
(86,435,cs),
(86,427,o),
(89,422,o),
(97,422,cs)
);
}
);
width = 464;
}
);
note = atilde;
unicode = 227;
},
{
glyphname = adieresis;
kernLeft = a;
layers = (
{
layerId = m01;
shapes = (
{
closed = 1;
nodes = (
(297,13,ls),
(297,4,o),
(301,0,o),
(310,0,cs),
(417,0,ls),
(426,0,o),
(430,4,o),
(430,13,cs),
(430,373,ls),
(430,382,o),
(426,386,o),
(417,386,cs),
(400,386,ls),
(361,386,o),
(333,377,o),
(318,353,c),
(292,381,o),
(252,397,o),
(203,397,cs),
(92,397,o),
(24,309,o),
(24,196,cs),
(24,83,o),
(84,-8,o),
(201,-8,cs),
(242,-8,o),
(273,6,o),
(297,28,c)
);
},
{
closed = 1;
nodes = (
(209,114,o),
(161,125,o),
(161,195,cs),
(161,264,o),
(210,272,o),
(231,272,cs),
(253,272,o),
(297,264,o),
(297,195,cs),
(297,125,o),
(252,114,o),
(231,114,cs)
);
},
{
closed = 1;
nodes = (
(77,444,o),
(108,412,o),
(148,412,cs),
(188,412,o),
(220,444,o),
(220,484,cs),
(220,523,o),
(188,556,o),
(148,556,cs),
(108,556,o),
(77,523,o),
(77,484,cs)
);
},
{
closed = 1;
nodes = (
(248,444,o),
(280,412,o),
(319,412,cs),
(359,412,o),
(391,444,o),
(391,484,cs),
(391,523,o),
(359,556,o),
(319,556,cs),
(280,556,o),
(248,523,o),
(248,484,cs)
);
}
);
width = 464;
}
);
note = adieresis;
unicode = 228;
},
{
glyphname = aring;
kernLeft = a;
layers = (
{
layerId = m01;
shapes = (
{
closed = 1;
nodes = (
(297,13,ls),
(297,4,o),
(301,0,o),
(310,0,cs),
(417,0,ls),
(426,0,o),
(430,4,o),
(430,13,cs),
(430,373,ls),
(430,382,o),
(426,386,o),
(417,386,cs),
(400,386,ls),
(361,386,o),
(333,377,o),
(318,353,c),
(292,381,o),
(252,397,o),
(203,397,cs),
(92,397,o),
(24,309,o),
(24,196,cs),
(24,83,o),
(84,-8,o),
(201,-8,cs),
(242,-8,o),
(273,6,o),
(297,28,c)
);
},
{
closed = 1;
nodes = (
(209,114,o),
(161,125,o),
(161,195,cs),
(161,264,o),
(210,272,o),
(231,272,cs),
(253,272,o),
(297,264,o),
(297,195,cs),
(297,125,o),
(252,114,o),
(231,114,cs)
);
},
{
closed = 1;
nodes = (
(141,452,o),
(183,412,o),
(235,412,cs),
(285,412,o),
(327,452,o),
(327,504,cs),
(327,554,o),
(285,594,o),
(235,594,cs),
(183,594,o),
(141,554,o),
(141,504,cs)
);
},
{
closed = 1;
nodes = (
(218,473,o),
(205,487,o),
(205,504,cs),
(205,519,o),
(218,533,o),
(235,533,cs),
(250,533,o),
(263,519,o),
(263,504,cs),
(263,487,o),
(250,473,o),
(235,473,cs)
);
}
);
width = 464;
}
);
note = aring;
unicode = 229;
},
{
glyphname = ae;
kernLeft = a;
kernRight = e;
layers = (
{
layerId = m01;
shapes = (
{
closed = 1;
nodes = (
(455,9,o),
(501,-10,o),
(557,-10,cs),
(685,-10,o),
(725,67,o),
(725,113,cs),
(725,122,o),
(721,128,o),
(713,128,cs),
(710,128,o),
(702,126,o),
(696,123,cs),
(656,106,o),
(631,94,o),
(580,94,cs),
(530,94,o),
(498,119,o),
(492,152,c),
(712,152,ls),
(725,152,o),
(730,157,o),
(731,167,cs),
(732,179,o),
(733,197,o),
(733,222,cs),
(733,308,o),
(680,398,o),
(558,398,cs),
(501,398,o),
(455,377,o),
(421,343,c),
(421,373,ls),
(421,382,o),
(417,386,o),
(408,386,cs),
(398,386,ls),
(360,386,o),
(332,376,o),
(317,353,c),
(291,381,o),
(252,398,o),
(203,398,cs),
(92,398,o),
(24,308,o),
(24,196,cs),
(24,84,o),
(84,-8,o),
(201,-8,cs),
(247,-8,o),
(281,9,o),
(306,37,c),
(306,13,ls),
(306,4,o),
(310,0,o),
(319,0,cs),
(408,0,ls),
(417,0,o),
(421,4,o),
(421,13,cs),
(421,42,l)
);
},
{
closed = 1;
nodes = (
(208,114,o),
(161,125,o),
(161,195,cs),
(161,265,o),
(210,273,o),
(231,273,cs),
(253,273,o),
(297,265,o),
(297,195,cs),
(297,125,o),
(252,114,o),
(231,114,cs)
);
},
{
closed = 1;
nodes = (
(493,263,o),
(511,291,o),
(550,291,cs),
(593,291,o),
(607,262,o),
(603,237,c),
(492,237,l)
);
}
);
width = 755;
}
);
note = ae;
unicode = 230;
},
{
glyphname = ccedilla;
kernLeft = c;
kernRight = c;
layers = (
{
layerId = m01;
shapes = (
{
closed = 1;
nodes = (
(322,18,o),
(357,62,o),
(357,117,cs),
(357,126,o),
(352,136,o),
(342,136,cs),
(336,136,o),
(332,134,o),
(325,129,cs),
(310,118,o),
(282,104,o),
(244,104,cs),
(188,104,o),
(161,139,o),
(161,191,cs),
(161,249,o),
(195,274,o),
(233,274,cs),
(266,274,o),
(285,269,o),
(315,254,cs),
(320,252,o),
(323,251,o),
(326,251,cs),
(331,251,o),
(332,253,o),
(335,261,cs),
(345,299,ls),
(356,346,o),
(346,371,o),
(306,384,cs),
(283,392,o),
(256,397,o),
(224,397,cs),
(105,397,o),
(24,321,o),
(24,194,cs),
(24,86,o),
(78,15,o),
(162,-4,c),
(93,-112,l),
(90,-119,o),
(91,-127,o),
(99,-127,cs),
(193,-127,ls),
(207,-127,o),
(219,-123,o),
(224,-110,cs),
(270,0,l)
);
}
);
width = 364;
}
);
note = ccedilla;
unicode = 231;
},
{
glyphname = egrave;
kernLeft = e;
kernRight = e;
layers = (
{
layerId = m01;
shapes = (
{
closed = 1;
nodes = (
(162,262,o),
(180,291,o),
(219,291,cs),
(263,291,o),
(276,261,o),
(273,237,c),
(161,237,l)
);
},
{
closed = 1;
nodes = (
(382,152,ls),
(394,152,o),
(400,157,o),
(401,167,cs),
(401,179,o),
(403,197,o),
(403,222,cs),
(403,309,o),
(349,397,o),
(223,397,cs),
(100,397,o),
(27,308,o),
(27,193,cs),
(27,68,o),
(106,-10,o),
(227,-10,cs),
(355,-10,o),
(395,67,o),
(395,113,cs),
(395,122,o),
(391,128,o),
(383,128,cs),
(379,128,o),
(372,126,o),
(366,123,cs),
(326,106,o),
(299,94,o),
(249,94,cs),
(199,94,o),
(168,119,o),
(162,152,c)
);
},
{
closed = 1;
nodes = (
(170,438,ls),
(180,429,o),
(191,426,o),
(205,426,cs),
(308,426,ls),
(316,426,o),
(320,436,o),
(314,441,cs),
(213,532,ls),
(204,541,o),
(196,543,o),
(184,543,cs),
(68,543,ls),
(59,543,o),
(56,533,o),
(63,528,cs)
);
}
);
width = 423;
}
);
note = egrave;
unicode = 232;
},
{
glyphname = eacute;
kernLeft = e;
kernRight = e;
layers = (
{
layerId = m01;
shapes = (
{
closed = 1;
nodes = (
(162,262,o),
(180,291,o),
(219,291,cs),
(263,291,o),
(276,261,o),
(273,237,c),
(161,237,l)
);
},
{
closed = 1;
nodes = (
(382,152,ls),
(394,152,o),
(400,157,o),
(401,167,cs),
(401,179,o),
(403,197,o),
(403,222,cs),
(403,309,o),
(349,397,o),
(223,397,cs),
(100,397,o),
(27,308,o),
(27,193,cs),
(27,68,o),
(106,-10,o),
(227,-10,cs),
(355,-10,o),
(395,67,o),
(395,113,cs),
(395,122,o),
(391,128,o),
(383,128,cs),
(379,128,o),
(372,126,o),
(366,123,cs),
(326,106,o),
(299,94,o),
(249,94,cs),
(199,94,o),
(168,119,o),
(162,152,c)
);
},
{
closed = 1;
nodes = (
(213,426,ls),
(227,426,o),
(239,429,o),
(249,438,cs),
(355,528,ls),
(362,533,o),
(359,543,o),
(350,543,cs),
(235,543,ls),
(222,543,o),
(215,541,o),
(205,532,cs),
(105,441,ls),
(99,436,o),
(101,426,o),
(110,426,cs)
);
}
);
width = 423;
}
);
note = eacute;
unicode = 233;
},
{
glyphname = ecircumflex;
kernLeft = e;
kernRight = e;
layers = (
{
layerId = m01;
shapes = (
{
closed = 1;
nodes = (
(162,262,o),
(180,291,o),
(219,291,cs),
(263,291,o),
(276,261,o),
(273,237,c),
(161,237,l)
);
},
{
closed = 1;
nodes = (
(382,152,ls),
(394,152,o),
(400,157,o),
(401,167,cs),
(401,179,o),
(403,197,o),
(403,222,cs),
(403,309,o),
(349,397,o),
(223,397,cs),
(100,397,o),
(27,308,o),
(27,193,cs),
(27,68,o),
(106,-10,o),
(227,-10,cs),
(355,-10,o),
(395,67,o),
(395,113,cs),
(395,122,o),
(391,128,o),
(383,128,cs),
(379,128,o),
(372,126,o),
(366,123,cs),
(326,106,o),
(299,94,o),
(249,94,cs),
(199,94,o),
(168,119,o),
(162,152,c)
);
},
{
closed = 1;
nodes = (
(262,440,ls),
(271,430,o),
(282,426,o),
(296,426,cs),
(386,426,ls),
(395,426,o),
(397,436,o),
(392,441,cs),
(305,532,ls),
(296,542,o),
(289,543,o),
(276,543,cs),
(174,543,ls),
(161,543,o),
(154,542,o),
(145,532,cs),
(58,441,ls),
(53,436,o),
(55,426,o),
(64,426,cs),
(155,426,ls),
(169,426,o),
(179,430,o),
(188,440,cs),
(225,483,l)
);
}
);
width = 423;
}
);
note = ecircumflex;
unicode = 234;
},
{
glyphname = edieresis;
kernLeft = e;
kernRight = e;
layers = (
{
layerId = m01;
shapes = (
{
closed = 1;
nodes = (
(162,262,o),
(180,291,o),
(219,291,cs),
(263,291,o),
(276,261,o),
(273,237,c),
(161,237,l)
);
},
{
closed = 1;
nodes = (
(382,152,ls),
(394,152,o),
(400,157,o),
(401,167,cs),
(401,179,o),
(403,197,o),
(403,222,cs),
(403,309,o),
(349,397,o),
(223,397,cs),
(100,397,o),
(27,308,o),
(27,193,cs),
(27,68,o),
(106,-10,o),
(227,-10,cs),
(355,-10,o),
(395,67,o),
(395,113,cs),
(395,122,o),
(391,128,o),
(383,128,cs),
(379,128,o),
(372,126,o),
(366,123,cs),
(326,106,o),
(299,94,o),
(249,94,cs),
(199,94,o),
(168,119,o),
(162,152,c)
);
},
{
closed = 1;
nodes = (
(69,444,o),
(101,412,o),
(141,412,cs),
(180,412,o),
(213,444,o),
(213,484,cs),
(213,523,o),
(180,556,o),
(141,556,cs),
(101,556,o),
(69,523,o),
(69,484,cs)
);
},
{
closed = 1;
nodes = (
(240,444,o),
(272,412,o),
(311,412,cs),
(351,412,o),
(383,444,o),
(383,484,cs),
(383,523,o),
(351,556,o),
(311,556,cs),
(272,556,o),
(240,523,o),
(240,484,cs)
);
}
);
width = 423;
}
);
note = edieresis;
unicode = 235;
},
{
glyphname = igrave;
kernLeft = i;
kernRight = i;
layers = (
{
layerId = m01;
shapes = (
{
closed = 1;
nodes = (
(43,4,o),
(47,0,o),
(57,0,cs),
(163,0,ls),
(172,0,o),
(176,4,o),
(176,13,cs),
(176,288,ls),
(176,359,o),
(143,386,o),
(79,386,cs),
(57,386,ls),
(47,386,o),
(43,382,o),
(43,373,cs),
(43,13,ls)
);
},
{
closed = 1;
nodes = (
(83,438,ls),
(93,429,o),
(105,426,o),
(119,426,cs),
(221,426,ls),
(230,426,o),
(233,436,o),
(227,441,cs),
(127,532,ls),
(117,541,o),
(110,543,o),
(97,543,cs),
(-18,543,ls),
(-27,543,o),
(-30,533,o),
(-23,528,cs)
);
}
);
width = 204;
}
);
note = igrave;
unicode = 236;
},
{
glyphname = iacute;
kernLeft = i;
kernRight = i;
layers = (
{
layerId = m01;
shapes = (
{
closed = 1;
nodes = (
(30,4,o),
(34,0,o),
(43,0,cs),
(149,0,ls),
(158,0,o),
(162,4,o),
(162,13,cs),
(162,288,ls),
(162,359,o),
(129,386,o),
(66,386,cs),
(43,386,ls),
(34,386,o),
(30,382,o),
(30,373,cs),
(30,13,ls)
);
},
{
closed = 1;
nodes = (
(84,426,ls),
(98,426,o),
(110,429,o),
(120,438,cs),
(226,528,ls),
(233,533,o),
(230,543,o),
(221,543,cs),
(106,543,ls),
(93,543,o),
(86,541,o),
(76,532,cs),
(-24,441,ls),
(-30,436,o),
(-27,426,o),
(-18,426,cs)
);
}
);
width = 204;
}
);
note = iacute;
unicode = 237;
},
{
glyphname = icircumflex;
kernLeft = i;
kernRight = i;
layers = (
{
layerId = m01;
shapes = (
{
closed = 1;
nodes = (
(34,4,o),
(38,0,o),
(47,0,cs),
(153,0,ls),
(162,0,o),
(166,4,o),
(166,13,cs),
(166,288,ls),
(166,359,o),
(133,386,o),
(70,386,cs),
(47,386,ls),
(38,386,o),
(34,382,o),
(34,373,cs),
(34,13,ls)
);
},
{
closed = 1;
nodes = (
(139,440,ls),
(148,430,o),
(159,426,o),
(173,426,cs),
(263,426,ls),
(272,426,o),
(274,436,o),
(269,441,cs),
(182,532,ls),
(173,542,o),
(166,543,o),
(153,543,cs),
(51,543,ls),
(38,543,o),
(31,542,o),
(22,532,cs),
(-65,441,ls),
(-70,436,o),
(-68,426,o),
(-59,426,cs),
(32,426,ls),
(46,426,o),
(56,430,o),
(65,440,cs),
(102,483,l)
);
}
);
width = 204;
}
);
note = icircumflex;
unicode = 238;
},
{
glyphname = idieresis;
kernLeft = i;
kernRight = i;
layers = (
{
layerId = m01;
shapes = (
{
closed = 1;
nodes = (
(33,4,o),
(37,0,o),
(47,0,cs),
(153,0,ls),
(162,0,o),
(166,4,o),
(166,13,cs),
(166,288,ls),
(166,359,o),
(133,386,o),
(69,386,cs),
(47,386,ls),
(37,386,o),
(33,382,o),
(33,373,cs),
(33,13,ls)
);
},
{
closed = 1;
nodes = (
(-55,444,o),
(-23,412,o),
(17,412,cs),
(56,412,o),
(88,444,o),
(88,484,cs),
(88,523,o),
(56,556,o),
(17,556,cs),
(-23,556,o),
(-55,523,o),
(-55,484,cs)
);
},
{
closed = 1;
nodes = (
(116,444,o),
(148,412,o),
(187,412,cs),
(227,412,o),
(259,444,o),
(259,484,cs),
(259,523,o),
(227,556,o),
(187,556,cs),
(148,556,o),
(116,523,o),
(116,484,cs)
);
}
);
width = 204;
}
);
note = idieresis;
unicode = 239;
},
{
glyphname = eth;
layers = (
{
layerId = m01;
shapes = (
{
closed = 1;
nodes = (
(88,371,o),
(24,297,o),
(24,188,cs),
(24,70,o),
(99,-9,o),
(220,-9,cs),
(339,-9,o),
(413,70,o),
(413,194,cs),
(413,270,o),
(390,317,o),
(363,356,cs),
(275,484,l),
(322,508,ls),
(329,511,o),
(328,517,o),
(325,523,c),
(309,547,ls),
(305,553,o),
(299,555,o),
(292,552,cs),
(243,527,l),
(219,553,o),
(198,556,o),
(150,556,cs),
(89,556,ls),
(82,556,o),
(79,548,o),
(83,542,cs),
(130,472,l),
(77,444,ls),
(70,441,o),
(68,437,o),
(73,429,cs),
(89,406,l),
(92,399,o),
(98,397,o),
(105,401,cs),
(160,428,l),
(194,381,l)
);
},
{
closed = 1;
nodes = (
(182,105,o),
(154,127,o),
(154,186,cs),
(154,246,o),
(183,269,o),
(219,269,cs),
(254,269,o),
(282,246,o),
(282,186,cs),
(282,127,o),
(255,105,o),
(218,105,cs)
);
}
);
width = 437;
}
);
note = eth;
unicode = 240;
},
{
glyphname = ntilde;
kernLeft = n;
kernRight = n;
layers = (
{
layerId = m01;
shapes = (
{
closed = 1;
nodes = (
(137,376,o),
(108,386,o),
(69,386,cs),
(49,386,ls),
(40,386,o),
(36,382,o),
(36,373,cs),
(36,13,ls),
(36,4,o),
(40,0,o),
(49,0,cs),
(155,0,ls),
(164,0,o),
(168,4,o),
(168,13,cs),
(168,207,ls),
(168,251,o),
(190,275,o),
(224,275,cs),
(253,275,o),
(279,258,o),
(279,202,cs),
(279,13,ls),
(279,4,o),
(283,0,o),
(292,0,cs),
(398,0,ls),
(408,0,o),
(412,4,o),
(412,13,cs),
(412,222,ls),
(412,341,o),
(349,396,o),
(253,396,cs),
(213,396,o),
(176,374,o),
(152,349,c)
);
},
{
closed = 1;
nodes = (
(145,422,ls),
(152,422,o),
(157,426,o),
(158,434,cs),
(160,446,o),
(164,454,o),
(178,454,cs),
(197,454,o),
(252,428,o),
(293,428,cs),
(353,428,o),
(374,472,o),
(380,537,c),
(382,546,o),
(378,551,o),
(369,551,cs),
(313,551,ls),
(306,551,o),
(302,547,o),
(300,538,cs),
(295,523,o),
(291,518,o),
(278,518,cs),
(252,518,o),
(209,547,o),
(158,547,cs),
(110,547,o),
(74,507,o),
(72,435,cs),
(72,427,o),
(74,422,o),
(83,422,cs)
);
}
);
width = 446;
}
);
note = ntilde;
unicode = 241;
},
{
glyphname = ograve;
kernLeft = o;
kernRight = o;
layers = (
{
layerId = m01;
shapes = (
{
closed = 1;
nodes = (
(188,109,o),
(159,132,o),
(159,193,cs),
(159,256,o),
(189,278,o),
(226,278,cs),
(262,278,o),
(292,256,o),
(292,193,cs),
(292,132,o),
(263,109,o),
(225,109,cs)
);
},
{
closed = 1;
nodes = (
(351,-9,o),
(427,72,o),
(427,194,cs),
(427,316,o),
(349,397,o),
(225,397,cs),
(101,397,o),
(24,317,o),
(24,195,cs),
(24,73,o),
(102,-9,o),
(227,-9,cs)
);
},
{
closed = 1;
nodes = (
(192,438,ls),
(202,429,o),
(213,426,o),
(227,426,cs),
(330,426,ls),
(338,426,o),
(342,436,o),
(336,441,cs),
(235,532,ls),
(226,541,o),
(218,543,o),
(206,543,cs),
(90,543,ls),
(81,543,o),
(78,533,o),
(85,528,cs)
);
}
);
width = 452;
}
);
note = ograve;
unicode = 242;
},
{
glyphname = oacute;
kernLeft = o;
kernRight = o;
layers = (
{
layerId = m01;
shapes = (
{
closed = 1;
nodes = (
(188,109,o),
(159,132,o),
(159,193,cs),
(159,256,o),
(189,278,o),
(226,278,cs),
(262,278,o),
(292,256,o),
(292,193,cs),
(292,132,o),
(263,109,o),
(225,109,cs)
);
},
{
closed = 1;
nodes = (
(351,-9,o),
(427,72,o),
(427,194,cs),
(427,316,o),
(349,397,o),
(225,397,cs),
(101,397,o),
(24,317,o),
(24,195,cs),
(24,73,o),
(102,-9,o),
(227,-9,cs)
);
},
{
closed = 1;
nodes = (
(226,426,ls),
(240,426,o),
(251,429,o),
(261,438,cs),
(367,528,l),
(375,533,o),
(371,543,o),
(362,543,cs),
(247,543,ls),
(235,543,o),
(227,541,o),
(217,532,cs),
(117,441,ls),
(111,436,o),
(114,426,o),
(123,426,cs)
);
}
);
width = 452;
}
);
note = oacute;
unicode = 243;
},
{
glyphname = ocircumflex;
kernLeft = o;
kernRight = o;
layers = (
{
layerId = m01;
shapes = (
{
closed = 1;
nodes = (
(188,109,o),
(159,132,o),
(159,193,cs),
(159,256,o),
(189,278,o),
(226,278,cs),
(262,278,o),
(292,256,o),
(292,193,cs),
(292,132,o),
(263,109,o),
(225,109,cs)
);
},
{
closed = 1;
nodes = (
(351,-9,o),
(427,72,o),
(427,194,cs),
(427,316,o),
(349,397,o),
(225,397,cs),
(101,397,o),
(24,317,o),
(24,195,cs),
(24,73,o),
(102,-9,o),
(227,-9,cs)
);
},
{
closed = 1;
nodes = (
(268,440,ls),
(277,430,o),
(288,426,o),
(302,426,cs),
(392,426,ls),
(401,426,o),
(403,436,o),
(398,441,cs),
(311,532,ls),
(302,542,o),
(295,543,o),
(282,543,cs),
(180,543,ls),
(167,543,o),
(160,542,o),
(151,532,cs),
(64,441,ls),
(59,436,o),
(61,426,o),
(70,426,cs),
(161,426,ls),
(175,426,o),
(185,430,o),
(194,440,cs),
(231,483,l)
);
}
);
width = 452;
}
);
note = ocircumflex;
unicode = 244;
},
{
glyphname = otilde;
kernLeft = o;
kernRight = o;
layers = (
{
layerId = m01;
shapes = (
{
closed = 1;
nodes = (
(188,109,o),
(159,132,o),
(159,193,cs),
(159,256,o),
(189,278,o),
(226,278,cs),
(262,278,o),
(292,256,o),
(292,193,cs),
(292,132,o),
(263,109,o),
(225,109,cs)
);
},
{
closed = 1;
nodes = (
(351,-9,o),
(427,72,o),
(427,194,cs),
(427,316,o),
(349,397,o),
(225,397,cs),
(101,397,o),
(24,317,o),
(24,195,cs),
(24,73,o),
(102,-9,o),
(227,-9,cs)
);
},
{
closed = 1;
nodes = (
(141,422,ls),
(148,422,o),
(153,426,o),
(155,434,c),
(156,446,o),
(160,454,o),
(174,454,cs),
(193,454,o),
(248,428,o),
(290,428,cs),
(349,428,o),
(370,472,o),
(377,537,cs),
(378,546,o),
(374,551,o),
(366,551,cs),
(310,551,ls),
(302,551,o),
(298,547,o),
(296,538,cs),
(291,523,o),
(287,518,o),
(275,518,cs),
(248,518,o),
(205,547,o),
(155,547,cs),
(107,547,o),
(71,507,o),
(68,435,cs),
(68,427,o),
(71,422,o),
(79,422,cs)
);
}
);
width = 452;
}
);
note = otilde;
unicode = 245;
},
{
glyphname = odieresis;
kernLeft = o;
kernRight = o;
layers = (
{
layerId = m01;
shapes = (
{
closed = 1;
nodes = (
(188,109,o),
(159,132,o),
(159,193,cs),
(159,256,o),
(189,278,o),
(226,278,cs),
(262,278,o),
(292,256,o),
(292,193,cs),
(292,132,o),
(263,109,o),
(225,109,cs)
);
},
{
closed = 1;
nodes = (
(351,-9,o),
(427,72,o),
(427,194,cs),
(427,316,o),
(349,397,o),
(225,397,cs),
(101,397,o),
(24,317,o),
(24,195,cs),
(24,73,o),
(102,-9,o),
(227,-9,cs)
);
},
{
closed = 1;
nodes = (
(74,444,o),
(106,412,o),
(146,412,cs),
(185,412,o),
(217,444,o),
(217,484,cs),
(217,523,o),
(185,556,o),
(146,556,cs),
(106,556,o),
(74,523,o),
(74,484,cs)
);
},
{
closed = 1;
nodes = (
(245,444,o),
(277,412,o),
(316,412,cs),
(356,412,o),
(388,444,o),
(388,484,cs),
(388,523,o),
(356,556,o),
(316,556,cs),
(277,556,o),
(245,523,o),
(245,484,cs)
);
}
);
width = 452;
}
);
note = odieresis;
unicode = 246;
},
{
glyphname = divide;
layers = (
{
layerId = m01;
shapes = (
{
closed = 1;
nodes = (
(25,221,o),
(29,217,o),
(38,217,cs),
(393,217,ls),
(402,217,o),
(407,221,o),
(407,230,cs),
(407,263,ls),
(407,305,o),
(383,329,o),
(337,329,cs),
(38,329,ls),
(29,329,o),
(25,324,o),
(25,316,cs),
(25,230,ls)
);
},
{
closed = 1;
nodes = (
(144,76,o),
(176,46,o),
(217,46,cs),
(257,46,o),
(287,76,o),
(287,117,cs),
(287,158,o),
(257,189,o),
(217,189,cs),
(176,189,o),
(144,158,o),
(144,117,cs)
);
},
{
closed = 1;
nodes = (
(144,386,o),
(176,357,o),
(217,357,cs),
(257,357,o),
(287,386,o),
(287,428,cs),
(287,469,o),
(257,499,o),
(217,499,cs),
(176,499,o),
(144,469,o),
(144,428,cs)
);
}
);
width = 432;
}
);
note = divide;
unicode = 247;
},
{
glyphname = oslash;
kernLeft = o;
kernRight = o;
layers = (
{
layerId = m01;
shapes = (
{
closed = 1;
nodes = (
(161,169,o),
(159,180,o),
(159,193,cs),
(159,256,o),
(188,278,o),
(226,278,cs),
(230,278,o),
(235,278,o),
(239,277,c),
(163,159,l)
);
},
{
closed = 1;
nodes = (
(291,216,o),
(292,206,o),
(292,193,cs),
(292,132,o),
(264,109,o),
(225,109,cs),
(222,109,o),
(218,110,o),
(215,110,c),
(289,226,l)
);
},
{
closed = 1;
nodes = (
(351,-9,o),
(428,72,o),
(428,194,cs),
(428,316,o),
(349,397,o),
(225,397,cs),
(100,397,o),
(24,317,o),
(24,195,cs),
(24,73,o),
(102,-9,o),
(227,-9,cs)
);
}
);
width = 452;
}
);
note = oslash;
unicode = 248;
},
{
glyphname = ugrave;
kernLeft = u;
kernRight = u;
layers = (
{
layerId = m01;
shapes = (
{
closed = 1;
nodes = (
(356,-9,o),
(411,68,o),
(411,188,cs),
(411,288,ls),
(411,359,o),
(378,386,o),
(314,386,cs),
(291,386,ls),
(282,386,o),
(278,382,o),
(278,373,cs),
(278,174,ls),
(278,124,o),
(251,108,o),
(222,108,cs),
(193,108,o),
(167,124,o),
(167,175,cs),
(167,288,ls),
(167,359,o),
(134,386,o),
(71,386,cs),
(48,386,ls),
(39,386,o),
(35,382,o),
(35,373,cs),
(35,194,ls),
(35,73,o),
(88,-9,o),
(222,-9,cs)
);
},
{
closed = 1;
nodes = (
(177,438,ls),
(187,429,o),
(199,426,o),
(213,426,cs),
(315,426,ls),
(324,426,o),
(327,436,o),
(321,441,cs),
(221,532,ls),
(211,541,o),
(204,543,o),
(191,543,cs),
(76,543,ls),
(67,543,o),
(64,533,o),
(71,528,cs)
);
}
);
width = 446;
}
);
note = ugrave;
unicode = 249;
},
{
glyphname = uacute;
kernLeft = u;
kernRight = u;
layers = (
{
layerId = m01;
shapes = (
{
closed = 1;
nodes = (
(356,-9,o),
(411,68,o),
(411,188,cs),
(411,288,ls),
(411,359,o),
(378,386,o),
(314,386,cs),
(291,386,ls),
(282,386,o),
(278,382,o),
(278,373,cs),
(278,174,ls),
(278,124,o),
(251,108,o),
(222,108,cs),
(193,108,o),
(167,124,o),
(167,175,cs),
(167,288,ls),
(167,359,o),
(134,386,o),
(71,386,cs),
(48,386,ls),
(39,386,o),
(35,382,o),
(35,373,cs),
(35,194,ls),
(35,73,o),
(88,-9,o),
(222,-9,cs)
);
},
{
closed = 1;
nodes = (
(213,426,ls),
(227,426,o),
(238,429,o),
(248,438,cs),
(354,528,l),
(362,533,o),
(358,543,o),
(349,543,cs),
(234,543,ls),
(222,543,o),
(214,541,o),
(204,532,cs),
(104,441,ls),
(98,436,o),
(101,426,o),
(110,426,cs)
);
}
);
width = 446;
}
);
note = uacute;
unicode = 250;
},
{
glyphname = ucircumflex;
kernLeft = u;
kernRight = u;
layers = (
{
layerId = m01;
shapes = (
{
closed = 1;
nodes = (
(356,-9,o),
(411,68,o),
(411,188,cs),
(411,288,ls),
(411,359,o),
(378,386,o),
(314,386,cs),
(291,386,ls),
(282,386,o),
(278,382,o),
(278,373,cs),
(278,174,ls),
(278,124,o),
(251,108,o),
(222,108,cs),
(193,108,o),
(167,124,o),
(167,175,cs),
(167,288,ls),
(167,359,o),
(134,386,o),
(71,386,cs),
(48,386,ls),
(39,386,o),
(35,382,o),
(35,373,cs),
(35,194,ls),
(35,73,o),
(88,-9,o),
(222,-9,cs)
);
},
{
closed = 1;
nodes = (
(261,440,ls),
(269,430,o),
(281,426,o),
(294,426,cs),
(384,426,ls),
(393,426,o),
(396,436,o),
(391,441,cs),
(304,532,ls),
(294,542,o),
(287,543,o),
(274,543,cs),
(173,543,ls),
(160,543,o),
(152,542,o),
(143,532,cs),
(57,441,ls),
(52,436,o),
(54,426,o),
(63,426,cs),
(153,426,ls),
(167,426,o),
(178,430,o),
(187,440,cs),
(224,483,l)
);
}
);
width = 446;
}
);
note = ucircumflex;
unicode = 251;
},
{
glyphname = udieresis;
kernLeft = u;
kernRight = u;
layers = (
{
layerId = m01;
shapes = (
{
closed = 1;
nodes = (
(356,-9,o),
(411,68,o),
(411,188,cs),
(411,288,ls),
(411,359,o),
(378,386,o),
(314,386,cs),
(291,386,ls),
(282,386,o),
(278,382,o),
(278,373,cs),
(278,174,ls),
(278,124,o),
(251,108,o),
(222,108,cs),
(193,108,o),
(167,124,o),
(167,175,cs),
(167,288,ls),
(167,359,o),
(134,386,o),
(71,386,cs),
(48,386,ls),
(39,386,o),
(35,382,o),
(35,373,cs),
(35,194,ls),
(35,73,o),
(88,-9,o),
(222,-9,cs)
);
},
{
closed = 1;
nodes = (
(71,444,o),
(103,412,o),
(143,412,cs),
(182,412,o),
(214,444,o),
(214,484,cs),
(214,523,o),
(182,556,o),
(143,556,cs),
(103,556,o),
(71,523,o),
(71,484,cs)
);
},
{
closed = 1;
nodes = (
(242,444,o),
(274,412,o),
(313,412,cs),
(353,412,o),
(385,444,o),
(385,484,cs),
(385,523,o),
(353,556,o),
(313,556,cs),
(274,556,o),
(242,523,o),
(242,484,cs)
);
}
);
width = 446;
}
);
note = udieresis;
unicode = 252;
},
{
glyphname = yacute;
kernLeft = y;
kernRight = y;
layers = (
{
layerId = m01;
shapes = (
{
closed = 1;
nodes = (
(127,-40,o),
(109,-59,o),
(74,-59,cs),
(56,-59,o),
(41,-53,o),
(21,-40,cs),
(18,-38,o),
(15,-37,o),
(12,-37,cs),
(0,-37,o),
(-4,-49,o),
(-4,-59,cs),
(-4,-113,o),
(37,-171,o),
(114,-171,cs),
(209,-171,o),
(240,-108,o),
(277,-9,cs),
(413,373,l),
(414,379,o),
(413,386,o),
(405,386,cs),
(299,386,ls),
(290,386,o),
(287,382,o),
(283,373,c),
(212,162,l),
(168,288,ls),
(142,364,o),
(120,386,o),
(51,386,cs),
(10,386,ls),
(4,386,o),
(0,379,o),
(3,373,c),
(142,-5,l)
);
},
{
closed = 1;
nodes = (
(206,426,ls),
(220,426,o),
(232,429,o),
(242,438,cs),
(348,528,ls),
(355,533,o),
(352,543,o),
(343,543,cs),
(228,543,ls),
(215,543,o),
(208,541,o),
(198,532,cs),
(98,441,ls),
(92,436,o),
(94,426,o),
(103,426,cs)
);
}
);
width = 416;
}
);
note = yacute;
unicode = 253;
},
{
glyphname = thorn;
layers = (
{
layerId = m01;
shapes = (
{
closed = 1;
nodes = (
(189,5,o),
(227,-8,o),
(264,-8,cs),
(381,-8,o),
(442,84,o),
(442,196,cs),
(442,308,o),
(383,397,o),
(260,397,cs),
(219,397,o),
(190,383,o),
(168,368,c),
(168,458,ls),
(168,529,o),
(134,556,o),
(72,556,cs),
(49,556,ls),
(40,556,o),
(36,551,o),
(36,542,cs),
(36,-147,ls),
(36,-156,o),
(40,-160,o),
(49,-160,cs),
(155,-160,ls),
(164,-160,o),
(168,-156,o),
(168,-147,cs),
(168,27,l)
);
},
{
closed = 1;
nodes = (
(213,114,o),
(168,125,o),
(168,195,cs),
(168,265,o),
(213,273,o),
(235,273,cs),
(257,273,o),
(304,265,o),
(304,195,cs),
(304,125,o),
(258,114,o),
(235,114,cs)
);
}
);
width = 464;
}
);
note = thorn;
unicode = 254;
},
{
glyphname = ydieresis;
kernLeft = y;
kernRight = y;
layers = (
{
layerId = m01;
shapes = (
{
closed = 1;
nodes = (
(127,-40,o),
(109,-59,o),
(74,-59,cs),
(56,-59,o),
(41,-53,o),
(21,-40,cs),
(18,-38,o),
(15,-37,o),
(12,-37,cs),
(0,-37,o),
(-4,-49,o),
(-4,-59,cs),
(-4,-113,o),
(37,-171,o),
(114,-171,cs),
(209,-171,o),
(240,-108,o),
(277,-9,cs),
(413,373,l),
(414,379,o),
(413,386,o),
(405,386,cs),
(299,386,ls),
(290,386,o),
(287,382,o),
(283,373,c),
(212,162,l),
(168,288,ls),
(142,364,o),
(120,386,o),
(51,386,cs),
(10,386,ls),
(4,386,o),
(0,379,o),
(3,373,c),
(142,-5,l)
);
},
{
closed = 1;
nodes = (
(48,444,o),
(80,412,o),
(120,412,cs),
(159,412,o),
(192,444,o),
(192,484,cs),
(192,523,o),
(159,556,o),
(120,556,cs),
(80,556,o),
(48,523,o),
(48,484,cs)
);
},
{
closed = 1;
nodes = (
(219,444,o),
(251,412,o),
(290,412,cs),
(330,412,o),
(362,444,o),
(362,484,cs),
(362,523,o),
(330,556,o),
(290,556,cs),
(251,556,o),
(219,523,o),
(219,484,cs)
);
}
);
width = 416;
}
);
note = ydieresis;
unicode = 255;
},
{
glyphname = dotlessi;
kernLeft = r;
kernRight = i;
layers = (
{
layerId = m01;
shapes = (
{
closed = 1;
nodes = (
(36,4,o),
(40,0,o),
(49,0,cs),
(155,0,ls),
(164,0,o),
(168,4,o),
(168,13,cs),
(168,288,ls),
(168,359,o),
(135,386,o),
(72,386,cs),
(49,386,ls),
(40,386,o),
(36,382,o),
(36,373,cs),
(36,13,ls)
);
}
);
width = 204;
}
);
note = dotlessi;
unicode = 305;
},
{
glyphname = Lslash;
layers = (
{
layerId = m01;
shapes = (
{
closed = 1;
nodes = (
(75,13,ls),
(75,4,o),
(79,0,o),
(88,0,cs),
(389,0,ls),
(399,0,o),
(406,7,o),
(406,17,cs),
(406,59,ls),
(406,101,o),
(382,125,o),
(336,125,cs),
(210,125,l),
(210,244,l),
(313,299,ls),
(321,303,o),
(327,313,o),
(327,323,cs),
(327,411,ls),
(327,418,o),
(319,422,o),
(312,418,cs),
(210,363,l),
(210,456,ls),
(210,528,o),
(179,556,o),
(115,556,cs),
(88,556,ls),
(79,556,o),
(75,551,o),
(75,542,cs),
(75,288,l),
(29,264,ls),
(21,260,o),
(15,251,o),
(15,241,cs),
(15,153,ls),
(15,145,o),
(23,141,o),
(30,145,cs),
(75,170,l)
);
}
);
width = 414;
}
);
note = Lslash;
unicode = 321;
},
{
glyphname = lslash;
layers = (
{
layerId = m01;
shapes = (
{
closed = 1;
nodes = (
(63,129,ls),
(63,35,o),
(110,-8,o),
(180,-8,cs),
(261,-8,o),
(292,55,o),
(292,105,cs),
(292,112,o),
(289,125,o),
(279,125,cs),
(275,125,o),
(270,122,o),
(268,120,cs),
(254,110,o),
(243,103,o),
(227,103,cs),
(207,103,o),
(195,111,o),
(195,144,cs),
(195,248,l),
(237,271,ls),
(244,274,o),
(251,283,o),
(251,293,cs),
(251,381,ls),
(251,388,o),
(243,392,o),
(236,388,cs),
(195,367,l),
(195,458,ls),
(195,529,o),
(162,556,o),
(98,556,cs),
(76,556,ls),
(67,556,o),
(63,551,o),
(63,542,cs),
(63,294,l),
(27,274,l),
(20,269,o),
(13,262,o),
(13,252,cs),
(13,164,ls),
(13,156,o),
(21,152,o),
(28,156,cs),
(63,175,l)
);
}
);
width = 287;
}
);
note = lslash;
unicode = 322;
},
{
glyphname = OE;
kernLeft = O;
kernRight = E;
layers = (
{
layerId = m01;
shapes = (
{
closed = 1;
nodes = (
(570,221,l),
(752,221,ls),
(762,221,o),
(768,228,o),
(768,238,cs),
(768,277,ls),
(768,319,o),
(745,344,o),
(698,344,cs),
(570,344,l),
(570,431,l),
(771,431,ls),
(781,431,o),
(787,438,o),
(787,448,cs),
(787,488,ls),
(787,531,o),
(763,556,o),
(717,556,cs),
(448,556,ls),
(439,556,o),
(435,551,o),
(435,542,cs),
(435,528,l),
(396,552,o),
(350,566,o),
(297,566,cs),
(136,566,o),
(34,454,o),
(34,277,cs),
(34,100,o),
(133,-9,o),
(297,-9,cs),
(350,-9,o),
(397,4,o),
(435,28,c),
(435,13,ls),
(435,4,o),
(439,0,o),
(448,0,cs),
(779,0,ls),
(789,0,o),
(795,7,o),
(795,17,cs),
(795,59,ls),
(795,101,o),
(771,125,o),
(725,125,cs),
(570,125,l)
);
},
{
closed = 1;
nodes = (
(229,118,o),
(172,160,o),
(172,277,cs),
(172,397,o),
(229,439,o),
(303,439,cs),
(378,439,o),
(435,397,o),
(435,277,cs),
(435,160,o),
(378,118,o),
(303,118,cs)
);
}
);
width = 813;
}
);
note = OE;
unicode = 338;
},
{
glyphname = oe;
kernLeft = o;
kernRight = e;
layers = (
{
layerId = m01;
shapes = (
{
closed = 1;
nodes = (
(391,10,o),
(437,-10,o),
(492,-10,cs),
(621,-10,o),
(660,67,o),
(660,113,cs),
(660,122,o),
(655,128,o),
(647,128,cs),
(645,128,o),
(637,126,o),
(631,123,cs),
(591,106,o),
(565,94,o),
(513,94,cs),
(463,94,o),
(434,119,o),
(428,152,c),
(646,152,ls),
(658,152,o),
(664,157,o),
(665,167,cs),
(666,179,o),
(667,197,o),
(667,222,cs),
(667,308,o),
(616,398,o),
(492,398,cs),
(437,398,o),
(392,377,o),
(360,343,c),
(328,377,o),
(283,397,o),
(225,397,cs),
(100,397,o),
(24,317,o),
(24,195,cs),
(24,73,o),
(102,-9,o),
(227,-9,cs),
(283,-9,o),
(327,10,o),
(358,43,c)
);
},
{
closed = 1;
nodes = (
(188,109,o),
(159,132,o),
(159,193,cs),
(159,256,o),
(188,278,o),
(226,278,cs),
(263,278,o),
(292,256,o),
(292,193,cs),
(292,132,o),
(264,109,o),
(225,109,cs)
);
},
{
closed = 1;
nodes = (
(428,263,o),
(446,291,o),
(483,291,cs),
(527,291,o),
(541,262,o),
(537,237,c),
(427,237,l)
);
}
);
width = 689;
}
);
note = oe;
unicode = 339;
},
{
glyphname = Scaron;
kernLeft = S;
kernRight = S;
layers = (
{
layerId = m01;
shapes = (
{
closed = 1;
nodes = (
(10,86,o),
(82,-10,o),
(227,-10,cs),
(361,-10,o),
(441,63,o),
(441,170,cs),
(441,371,o),
(166,327,o),
(166,408,cs),
(166,434,o),
(189,448,o),
(237,448,cs),
(290,448,o),
(333,435,o),
(377,416,cs),
(383,413,o),
(389,411,o),
(394,411,cs),
(401,411,o),
(404,416,o),
(406,424,cs),
(416,460,ls),
(428,503,o),
(419,529,o),
(373,546,cs),
(331,559,o),
(289,566,o),
(233,566,cs),
(121,566,o),
(27,512,o),
(27,401,cs),
(27,203,o),
(301,238,o),
(301,162,cs),
(301,135,o),
(276,115,o),
(218,115,cs),
(140,115,o),
(84,140,o),
(48,177,cs),
(43,182,o),
(38,187,o),
(28,187,cs),
(18,187,o),
(10,176,o),
(10,162,cs)
);
},
{
closed = 1;
nodes = (
(196,688,ls),
(187,698,o),
(176,702,o),
(162,702,cs),
(72,702,ls),
(63,702,o),
(61,692,o),
(66,687,cs),
(152,597,ls),
(162,587,o),
(169,585,o),
(182,585,cs),
(283,585,ls),
(296,585,o),
(304,587,o),
(313,597,cs),
(399,687,ls),
(404,692,o),
(402,702,o),
(393,702,cs),
(303,702,ls),
(289,702,o),
(278,698,o),
(269,688,cs),
(233,646,l)
);
}
);
width = 457;
}
);
note = Scaron;
unicode = 352;
},
{
glyphname = scaron;
kernLeft = s;
kernRight = s;
layers = (
{
layerId = m01;
shapes = (
{
closed = 1;
nodes = (
(25,49,o),
(96,-10,o),
(187,-10,cs),
(277,-10,o),
(337,46,o),
(337,125,cs),
(337,246,o),
(172,234,o),
(172,274,cs),
(172,282,o),
(178,290,o),
(197,290,cs),
(226,290,o),
(256,283,o),
(290,269,cs),
(295,267,o),
(299,265,o),
(304,265,cs),
(308,265,o),
(310,267,o),
(313,273,c),
(319,296,ls),
(333,343,o),
(319,364,o),
(281,381,cs),
(260,389,o),
(225,397,o),
(187,397,cs),
(114,397,o),
(37,359,o),
(37,270,cs),
(37,142,o),
(202,155,o),
(202,117,cs),
(202,106,o),
(192,96,o),
(164,96,cs),
(111,96,o),
(79,116,o),
(60,128,cs),
(52,134,o),
(45,138,o),
(40,138,cs),
(33,138,o),
(25,132,o),
(25,116,cs)
);
},
{
closed = 1;
nodes = (
(146,529,ls),
(137,539,o),
(127,543,o),
(113,543,cs),
(22,543,ls),
(13,543,o),
(11,533,o),
(16,528,cs),
(103,438,ls),
(113,428,o),
(119,426,o),
(132,426,cs),
(234,426,ls),
(247,426,o),
(254,428,o),
(263,438,cs),
(350,528,ls),
(355,533,o),
(353,543,o),
(344,543,cs),
(254,543,ls),
(240,543,o),
(229,539,o),
(220,529,cs),
(183,487,l)
);
}
);
width = 333;
}
);
note = scaron;
unicode = 353;
},
{
glyphname = Ydieresis;
kernLeft = Y;
kernRight = Y;
layers = (
{
layerId = m01;
shapes = (
{
closed = 1;
nodes = (
(179,13,ls),
(179,4,o),
(183,0,o),
(192,0,cs),
(301,0,ls),
(310,0,o),
(314,4,o),
(314,13,cs),
(314,199,l),
(496,542,ls),
(499,548,o),
(497,556,o),
(488,556,cs),
(370,556,ls),
(362,556,o),
(355,552,o),
(350,542,cs),
(252,346,l),
(176,495,ls),
(153,539,o),
(124,556,o),
(77,556,cs),
(7,556,ls),
(-2,556,o),
(-4,548,o),
(-1,542,cs),
(179,203,l)
);
},
{
closed = 1;
nodes = (
(89,603,o),
(120,571,o),
(160,571,cs),
(200,571,o),
(232,603,o),
(232,643,cs),
(232,682,o),
(200,714,o),
(160,714,cs),
(120,714,o),
(89,682,o),
(89,643,cs)
);
},
{
closed = 1;
nodes = (
(260,603,o),
(292,571,o),
(331,571,cs),
(371,571,o),
(403,603,o),
(403,643,cs),
(403,682,o),
(371,714,o),
(331,714,cs),
(292,714,o),
(260,682,o),
(260,643,cs)
);
}
);
width = 492;
}
);
note = Ydieresis;
unicode = 376;
},
{
glyphname = Zcaron;
kernLeft = Z;
kernRight = Z;
layers = (
{
layerId = m01;
shapes = (
{
closed = 1;
nodes = (
(421,429,ls),
(431,442,o),
(436,453,o),
(436,467,cs),
(436,489,ls),
(436,532,o),
(413,556,o),
(366,556,cs),
(46,556,ls),
(37,556,o),
(33,552,o),
(33,542,cs),
(33,443,ls),
(33,434,o),
(37,430,o),
(46,430,cs),
(258,430,l),
(42,136,ls),
(31,121,o),
(27,109,o),
(27,94,cs),
(27,13,ls),
(27,4,o),
(31,0,o),
(40,0,cs),
(420,0,ls),
(430,0,o),
(436,7,o),
(436,17,cs),
(436,59,ls),
(436,101,o),
(413,125,o),
(366,125,cs),
(199,125,l)
);
},
{
closed = 1;
nodes = (
(191,688,ls),
(183,698,o),
(172,702,o),
(158,702,cs),
(68,702,ls),
(59,702,o),
(56,692,o),
(61,687,cs),
(148,597,ls),
(158,587,o),
(165,585,o),
(178,585,cs),
(279,585,ls),
(292,585,o),
(300,587,o),
(309,597,cs),
(395,687,ls),
(400,692,o),
(398,702,o),
(389,702,cs),
(299,702,ls),
(285,702,o),
(274,698,o),
(265,688,cs),
(229,646,l)
);
}
);
width = 453;
}
);
note = Zcaron;
unicode = 381;
},
{
glyphname = zcaron;
kernLeft = z;
kernRight = z;
layers = (
{
layerId = m01;
shapes = (
{
closed = 1;
nodes = (
(328,267,ls),
(340,281,o),
(345,294,o),
(345,313,cs),
(345,368,o),
(325,386,o),
(275,386,cs),
(47,386,ls),
(38,386,o),
(35,382,o),
(35,373,cs),
(35,282,ls),
(35,273,o),
(38,269,o),
(47,269,cs),
(176,269,l),
(40,106,ls),
(30,93,o),
(27,87,o),
(27,71,cs),
(27,13,ls),
(27,4,o),
(31,0,o),
(40,0,cs),
(337,0,ls),
(346,0,o),
(350,4,o),
(350,13,cs),
(350,103,ls),
(350,112,o),
(346,116,o),
(337,116,cs),
(203,116,l)
);
},
{
closed = 1;
nodes = (
(154,529,ls),
(145,539,o),
(135,543,o),
(121,543,cs),
(30,543,ls),
(21,543,o),
(19,533,o),
(24,528,cs),
(111,438,ls),
(121,428,o),
(127,426,o),
(140,426,cs),
(242,426,ls),
(255,426,o),
(262,428,o),
(271,438,cs),
(358,528,ls),
(363,533,o),
(361,543,o),
(352,543,cs),
(262,543,ls),
(248,543,o),
(237,539,o),
(228,529,cs),
(191,487,l)
);
}
);
width = 361;
}
);
note = zcaron;
unicode = 382;
},
{
glyphname = florin;
layers = (
{
layerId = m01;
shapes = (
{
closed = 1;
nodes = (
(86,5,ls),
(78,-40,o),
(64,-59,o),
(30,-59,cs),
(4,-59,o),
(-12,-43,o),
(-24,-43,cs),
(-40,-43,o),
(-46,-62,o),
(-46,-77,cs),
(-46,-118,o),
(-8,-171,o),
(61,-171,cs),
(148,-171,o),
(196,-122,o),
(215,-17,cs),
(266,269,l),
(360,269,ls),
(368,269,o),
(372,274,o),
(375,282,c),
(391,373,ls),
(393,382,o),
(390,386,o),
(381,386,cs),
(285,386,l),
(292,432,o),
(310,449,o),
(344,449,cs),
(362,449,o),
(373,444,o),
(393,436,c),
(396,434,o),
(400,433,o),
(403,433,cs),
(419,433,o),
(420,462,o),
(420,473,cs),
(420,513,o),
(382,561,o),
(306,561,cs),
(233,561,o),
(174,513,o),
(156,408,cs),
(152,386,l),
(81,386,ls),
(72,386,o),
(67,382,o),
(65,373,cs),
(49,282,ls),
(47,274,o),
(51,269,o),
(60,269,cs),
(132,269,l)
);
}
);
width = 456;
}
);
note = florin;
unicode = 402;
},
{
glyphname = circumflex;
layers = (
{
layerId = m01;
shapes = (
{
closed = 1;
nodes = (
(209,440,ls),
(218,430,o),
(229,426,o),
(243,426,cs),
(333,426,ls),
(342,426,o),
(344,436,o),
(339,441,cs),
(252,532,ls),
(243,542,o),
(236,543,o),
(223,543,cs),
(121,543,ls),
(108,543,o),
(101,542,o),
(92,532,cs),
(5,441,ls),
(0,436,o),
(2,426,o),
(11,426,cs),
(102,426,ls),
(116,426,o),
(126,430,o),
(135,440,cs),
(172,483,l)
);
}
);
width = 339;
}
);
note = circumflex;
unicode = 710;
},
{
glyphname = caron;
layers = (
{
layerId = m01;
shapes = (
{
closed = 1;
nodes = (
(135,529,ls),
(126,539,o),
(116,543,o),
(102,543,cs),
(11,543,ls),
(2,543,o),
(0,533,o),
(5,528,cs),
(92,438,ls),
(102,428,o),
(108,426,o),
(121,426,cs),
(223,426,ls),
(236,426,o),
(243,428,o),
(252,438,cs),
(339,528,ls),
(344,533,o),
(342,543,o),
(333,543,cs),
(243,543,ls),
(229,543,o),
(218,539,o),
(209,529,cs),
(172,487,l)
);
}
);
width = 339;
}
);
note = caron;
unicode = 711;
},
{
glyphname = breve;
layers = (
{
layerId = m01;
shapes = (
{
closed = 1;
nodes = (
(13,467,o),
(65,413,o),
(145,413,cs),
(226,413,o),
(277,467,o),
(288,532,cs),
(289,538,o),
(286,543,o),
(280,543,cs),
(203,543,ls),
(197,543,o),
(193,539,o),
(192,533,cs),
(188,507,o),
(169,492,o),
(145,492,cs),
(121,492,o),
(102,507,o),
(98,533,cs),
(97,539,o),
(93,543,o),
(88,543,cs),
(10,543,ls),
(4,543,o),
(1,538,o),
(2,532,cs)
);
}
);
width = 288;
}
);
note = breve;
unicode = 728;
},
{
glyphname = dotaccent;
layers = (
{
layerId = m01;
shapes = (
{
closed = 1;
nodes = (
(0,444,o),
(32,413,o),
(72,413,cs),
(111,413,o),
(143,444,o),
(143,483,cs),
(143,523,o),
(111,556,o),
(72,556,cs),
(32,556,o),
(0,523,o),
(0,483,cs)
);
}
);
width = 143;
}
);
note = dotaccent;
unicode = 729;
},
{
glyphname = ring;
layers = (
{
layerId = m01;
shapes = (
{
closed = 1;
nodes = (
(0,452,o),
(42,412,o),
(93,412,cs),
(144,412,o),
(186,452,o),
(186,504,cs),
(186,554,o),
(144,594,o),
(93,594,cs),
(42,594,o),
(0,554,o),
(0,504,cs)
);
},
{
closed = 1;
nodes = (
(77,473,o),
(63,487,o),
(63,504,cs),
(63,519,o),
(77,533,o),
(93,533,cs),
(108,533,o),
(122,519,o),
(122,504,cs),
(122,487,o),
(108,473,o),
(93,473,cs)
);
}
);
width = 186;
}
);
note = ring;
unicode = 730;
},
{
glyphname = ogonek;
layers = (
{
layerId = m01;
shapes = (
{
closed = 1;
nodes = (
(0,-126,o),
(41,-158,o),
(105,-158,cs),
(126,-158,o),
(143,-156,o),
(159,-151,cs),
(166,-148,o),
(170,-146,o),
(170,-139,cs),
(170,-88,ls),
(170,-80,o),
(166,-77,o),
(158,-79,cs),
(149,-82,o),
(139,-84,o),
(131,-84,cs),
(111,-84,o),
(99,-73,o),
(99,-57,cs),
(99,-32,o),
(118,-15,o),
(149,2,cs),
(153,4,o),
(152,7,o),
(148,7,cs),
(64,7,ls),
(59,7,o),
(55,6,o),
(49,3,cs),
(25,-9,o),
(0,-37,o),
(0,-77,cs)
);
}
);
width = 170;
}
);
note = ogonek;
unicode = 731;
},
{
glyphname = tilde;
layers = (
{
layerId = m01;
shapes = (
{
closed = 1;
nodes = (
(73,422,ls),
(81,422,o),
(86,426,o),
(87,434,cs),
(88,446,o),
(92,454,o),
(106,454,cs),
(125,454,o),
(180,428,o),
(222,428,cs),
(281,428,o),
(302,472,o),
(309,537,cs),
(310,546,o),
(306,551,o),
(298,551,cs),
(242,551,ls),
(234,551,o),
(231,547,o),
(228,538,cs),
(223,523,o),
(219,518,o),
(207,518,cs),
(180,518,o),
(137,547,o),
(87,547,cs),
(39,547,o),
(3,507,o),
(0,435,cs),
(0,427,o),
(3,422,o),
(11,422,cs)
);
}
);
width = 309;
}
);
note = tilde;
unicode = 732;
},
{
glyphname = hungarumlaut;
layers = (
{
layerId = m01;
shapes = (
{
closed = 1;
nodes = (
(101,427,ls),
(116,427,o),
(123,429,o),
(132,441,cs),
(206,527,ls),
(211,533,o),
(207,543,o),
(198,543,cs),
(104,543,ls),
(93,543,o),
(83,539,o),
(75,529,cs),
(6,442,l),
(1,434,o),
(5,427,o),
(13,427,cs)
);
},
{
closed = 1;
nodes = (
(283,427,ls),
(298,427,o),
(305,429,o),
(314,441,cs),
(388,527,ls),
(393,533,o),
(389,543,o),
(380,543,cs),
(286,543,ls),
(275,543,o),
(265,539,o),
(257,529,cs),
(188,442,l),
(183,434,o),
(187,427,o),
(195,427,cs)
);
}
);
width = 388;
}
);
note = hungarumlaut;
unicode = 733;
},
{
glyphname = uni03BC;
layers = (
{
layerId = m01;
shapes = (
{
closed = 1;
nodes = (
(188,-5,o),
(209,-9,o),
(234,-9,cs),
(363,-9,o),
(412,71,o),
(412,188,cs),
(412,288,ls),
(412,359,o),
(378,386,o),
(314,386,cs),
(292,386,ls),
(283,386,o),
(279,382,o),
(279,373,cs),
(279,174,ls),
(279,124,o),
(252,108,o),
(223,108,cs),
(194,108,o),
(168,124,o),
(168,175,cs),
(168,288,ls),
(168,359,o),
(134,386,o),
(72,386,cs),
(49,386,ls),
(40,386,o),
(36,382,o),
(36,373,cs),
(36,-147,ls),
(36,-156,o),
(40,-160,o),
(49,-160,cs),
(155,-160,ls),
(164,-160,o),
(168,-156,o),
(168,-147,cs),
(168,2,l)
);
}
);
width = 447;
}
);
note = uni03BC;
unicode = 956;
},
{
glyphname = uni060C;
layers = (
{
layerId = m01;
shapes = (
{
closed = 1;
nodes = (
(120,163,o),
(134,182,o),
(145,193,cs),
(163,210,o),
(162,231,o),
(142,249,c),
(140,252,o),
(138,252,o),
(136,249,c),
(74,202,o),
(28,144,o),
(28,67,cs),
(28,24,o),
(62,-10,o),
(104,-10,cs),
(146,-10,o),
(180,24,o),
(180,67,cs),
(180,108,o),
(152,139,o),
(115,144,c)
);
}
);
width = 207;
}
);
note = uni060C;
unicode = 1548;
},
{
glyphname = uni061B;
layers = (
{
layerId = m01;
shapes = (
{
closed = 1;
nodes = (
(152,219,o),
(185,254,o),
(185,297,cs),
(185,337,o),
(157,368,o),
(121,374,c),
(126,392,o),
(140,411,o),
(151,422,cs),
(169,439,o),
(168,460,o),
(148,479,cs),
(146,481,o),
(144,481,o),
(142,479,cs),
(79,431,o),
(34,374,o),
(34,297,cs),
(34,254,o),
(68,219,o),
(109,219,cs)
);
},
{
closed = 1;
nodes = (
(67,146,o),
(33,111,o),
(33,68,cs),
(33,24,o),
(67,-10,o),
(109,-10,cs),
(151,-10,o),
(185,24,o),
(185,68,cs),
(185,111,o),
(151,146,o),
(109,146,cs)
);
}
);
width = 219;
}
);
note = uni061B;
unicode = 1563;
},
{
glyphname = uni061F;
layers = (
{
layerId = m01;
shapes = (
{
closed = 1;
nodes = (
(287,180,o),
(293,186,o),
(293,194,cs),
(292,228,ls),
(291,323,o),
(175,353,o),
(175,398,cs),
(175,419,o),
(191,433,o),
(222,434,cs),
(248,436,o),
(268,431,o),
(297,422,c),
(306,418,o),
(315,416,o),
(320,416,cs),
(332,416,o),
(336,426,o),
(337,442,cs),
(341,507,o),
(283,559,o),
(207,559,cs),
(111,559,o),
(39,492,o),
(39,407,cs),
(39,286,o),
(154,281,o),
(158,213,cs),
(159,194,ls),
(160,186,o),
(165,180,o),
(173,180,cs),
(279,180,ls)
);
},
{
closed = 1;
nodes = (
(183,146,o),
(149,111,o),
(149,68,cs),
(149,24,o),
(183,-10,o),
(225,-10,cs),
(267,-10,o),
(301,24,o),
(301,68,cs),
(301,111,o),
(267,146,o),
(225,146,cs)
);
}
);
width = 371;
}
);
note = uni061F;
unicode = 1567;
},
{
glyphname = uni0621;
layers = (
{
layerId = m01;
shapes = (
{
closed = 1;
nodes = (
(239,121,o),
(214,149,o),
(214,183,cs),
(214,222,o),
(237,248,o),
(282,248,cs),
(303,248,o),
(331,241,o),
(361,226,cs),
(370,221,o),
(375,219,o),
(381,219,cs),
(397,219,o),
(398,241,o),
(398,252,cs),
(398,278,o),
(389,301,o),
(372,319,cs),
(349,346,o),
(309,363,o),
(263,363,cs),
(162,363,o),
(90,286,o),
(90,186,cs),
(90,166,o),
(94,139,o),
(110,111,c),
(87,104,o),
(69,93,o),
(56,76,cs),
(37,52,o),
(33,9,o),
(47,-18,cs),
(50,-23,o),
(54,-26,o),
(61,-26,cs),
(64,-26,o),
(69,-25,o),
(75,-21,cs),
(97,-7,o),
(119,0,o),
(151,0,cs),
(415,0,ls),
(435,0,o),
(440,4,o),
(440,23,cs),
(440,33,ls),
(440,86,o),
(401,121,o),
(340,121,cs),
(274,121,ls)
);
}
);
width = 468;
}
);
note = uni0621;
unicode = 1569;
},
{
glyphname = uni0622;
layers = (
{
layerId = m01;
shapes = (
{
closed = 1;
nodes = (
(194,606,o),
(210,616,o),
(219,634,cs),
(227,653,o),
(223,675,o),
(213,691,cs),
(208,700,o),
(201,692,o),
(195,684,cs),
(189,675,o),
(180,665,o),
(167,665,cs),
(145,665,o),
(98,696,o),
(70,696,cs),
(47,698,o),
(31,688,o),
(22,669,cs),
(14,651,o),
(18,629,o),
(28,613,cs),
(33,604,o),
(40,612,o),
(46,620,cs),
(52,629,o),
(61,639,o),
(74,639,cs),
(97,639,o),
(143,608,o),
(172,608,cs)
);
},
{
closed = 1;
nodes = (
(101,0,o),
(108,1,o),
(124,6,cs),
(161,18,o),
(181,53,o),
(181,106,cs),
(181,542,ls),
(181,552,o),
(176,556,o),
(166,556,cs),
(154,556,ls),
(128,556,o),
(121,554,o),
(105,549,cs),
(68,537,o),
(48,502,o),
(48,450,cs),
(48,14,ls),
(48,4,o),
(53,0,o),
(63,0,cs),
(75,0,ls)
);
}
);
width = 222;
}
);
note = uni0622;
unicode = 1570;
},
{
glyphname = uni0623;
layers = (
{
layerId = m01;
shapes = (
{
closed = 1;
nodes = (
(118,672,o),
(103,686,o),
(103,704,cs),
(103,724,o),
(115,736,o),
(136,736,cs),
(149,736,o),
(159,733,o),
(174,726,cs),
(182,722,o),
(184,721,o),
(185,721,cs),
(190,721,o),
(190,724,o),
(190,734,cs),
(190,769,o),
(163,792,o),
(125,792,cs),
(77,791,o),
(44,754,o),
(44,705,cs),
(44,697,o),
(47,681,o),
(54,667,c),
(32,661,o),
(21,646,o),
(21,625,cs),
(21,618,o),
(23,612,o),
(25,607,cs),
(27,604,o),
(29,603,o),
(30,603,cs),
(32,603,o),
(33,603,o),
(37,606,c),
(40,607,o),
(52,616,o),
(74,616,cs),
(200,616,ls),
(209,616,o),
(211,617,o),
(211,624,cs),
(211,631,ls),
(211,657,o),
(193,672,o),
(164,672,cs),
(136,672,ls)
);
},
{
closed = 1;
nodes = (
(125,556,o),
(118,554,o),
(102,549,cs),
(65,537,o),
(45,502,o),
(45,450,cs),
(45,14,ls),
(45,4,o),
(50,0,o),
(60,0,cs),
(72,0,ls),
(98,0,o),
(105,1,o),
(121,6,cs),
(158,18,o),
(178,53,o),
(178,106,cs),
(178,542,ls),
(178,552,o),
(173,556,o),
(163,556,cs),
(151,556,ls)
);
}
);
width = 222;
}
);
note = uni0623;
unicode = 1571;
},
{
glyphname = uni0624;
layers = (
{
layerId = m01;
shapes = (
{
closed = 1;
nodes = (
(145,444,o),
(146,444,o),
(150,447,c),
(153,448,o),
(165,457,o),
(187,457,cs),
(313,457,ls),
(322,457,o),
(324,458,o),
(324,466,cs),
(324,472,ls),
(324,498,o),
(306,513,o),
(277,513,cs),
(249,513,ls),
(231,513,o),
(216,527,o),
(216,546,cs),
(216,566,o),
(228,577,o),
(249,577,cs),
(262,577,o),
(272,574,o),
(287,567,cs),
(295,563,o),
(297,562,o),
(298,562,cs),
(303,562,o),
(303,566,o),
(303,576,cs),
(303,610,o),
(276,633,o),
(238,633,cs),
(190,632,o),
(157,595,o),
(157,546,cs),
(157,538,o),
(160,522,o),
(167,508,c),
(145,502,o),
(134,487,o),
(134,466,cs),
(134,459,o),
(136,453,o),
(138,448,cs),
(140,445,o),
(142,444,o),
(143,444,cs)
);
},
{
closed = 1;
nodes = (
(370,355,o),
(315,397,o),
(228,397,cs),
(124,397,o),
(39,326,o),
(39,190,cs),
(39,75,o),
(115,-10,o),
(218,-10,cs),
(231,-10,o),
(252,-9,o),
(281,2,c),
(272,-52,o),
(238,-86,o),
(190,-88,cs),
(143,-89,o),
(122,-82,o),
(93,-73,cs),
(88,-72,o),
(81,-69,o),
(74,-69,cs),
(63,-69,o),
(55,-77,o),
(57,-89,cs),
(63,-121,o),
(77,-148,o),
(98,-169,cs),
(126,-197,o),
(166,-213,o),
(217,-214,cs),
(286,-216,o),
(348,-176,o),
(380,-107,cs),
(416,-39,o),
(420,54,o),
(420,132,cs),
(420,188,o),
(413,244,o),
(397,284,cs)
);
},
{
closed = 1;
nodes = (
(200,119,o),
(176,142,o),
(176,197,cs),
(176,229,o),
(189,271,o),
(228,271,cs),
(253,271,o),
(268,254,o),
(275,233,cs),
(281,214,o),
(282,174,o),
(282,149,cs),
(282,143,o),
(281,137,o),
(281,133,c),
(270,124,o),
(251,119,o),
(231,119,cs)
);
}
);
width = 458;
}
);
note = uni0624;
unicode = 1572;
},
{
glyphname = uni0625;
layers = (
{
layerId = m01;
shapes = (
{
closed = 1;
nodes = (
(97,0,o),
(104,1,o),
(121,6,cs),
(158,18,o),
(178,53,o),
(178,106,cs),
(178,542,ls),
(178,552,o),
(172,556,o),
(162,556,cs),
(151,556,ls),
(125,556,o),
(118,554,o),
(102,549,cs),
(64,537,o),
(44,502,o),
(44,450,cs),
(44,14,ls),
(44,4,o),
(50,0,o),
(60,0,cs),
(72,0,ls)
);
},
{
closed = 1;
nodes = (
(112,-178,o),
(97,-165,o),
(97,-146,cs),
(97,-126,o),
(109,-114,o),
(130,-114,cs),
(143,-114,o),
(153,-119,o),
(168,-125,cs),
(176,-128,o),
(178,-129,o),
(179,-129,cs),
(184,-129,o),
(184,-126,o),
(184,-116,cs),
(184,-82,o),
(157,-58,o),
(119,-59,cs),
(71,-59,o),
(38,-97,o),
(38,-146,cs),
(38,-154,o),
(41,-169,o),
(48,-183,c),
(26,-190,o),
(15,-204,o),
(15,-226,cs),
(15,-233,o),
(17,-238,o),
(19,-243,cs),
(21,-247,o),
(23,-248,o),
(24,-248,cs),
(26,-248,o),
(27,-248,o),
(31,-245,cs),
(34,-243,o),
(46,-235,o),
(68,-235,cs),
(194,-235,ls),
(203,-235,o),
(205,-234,o),
(205,-226,cs),
(205,-219,ls),
(205,-194,o),
(187,-178,o),
(158,-178,cs),
(130,-178,ls)
);
}
);
width = 222;
}
);
note = uni0625;
unicode = 1573;
},
{
glyphname = uni0626;
layers = (
{
layerId = m01;
shapes = (
{
closed = 1;
nodes = (
(53,306,o),
(54,306,o),
(58,309,cs),
(61,311,o),
(73,319,o),
(95,319,cs),
(221,319,ls),
(231,319,o),
(232,320,o),
(232,328,cs),
(232,334,ls),
(232,360,o),
(215,376,o),
(185,376,cs),
(157,376,ls),
(140,376,o),
(125,389,o),
(125,408,cs),
(125,428,o),
(136,439,o),
(157,439,cs),
(171,439,o),
(181,436,o),
(195,429,cs),
(203,425,o),
(205,424,o),
(207,424,cs),
(212,424,o),
(212,428,o),
(212,438,cs),
(212,472,o),
(185,496,o),
(147,495,cs),
(98,494,o),
(66,457,o),
(66,408,cs),
(66,400,o),
(68,384,o),
(76,371,c),
(53,364,o),
(42,349,o),
(42,328,cs),
(42,321,o),
(44,316,o),
(46,311,cs),
(48,307,o),
(50,306,o),
(52,306,cs)
);
},
{
closed = 1;
nodes = (
(553,137,o),
(511,151,o),
(474,161,cs),
(432,172,o),
(407,184,o),
(407,206,cs),
(407,243,o),
(435,271,o),
(485,271,cs),
(512,271,o),
(552,258,o),
(573,245,cs),
(580,241,o),
(586,238,o),
(591,238,cs),
(607,239,o),
(611,254,o),
(611,276,cs),
(611,303,o),
(602,327,o),
(586,347,cs),
(560,378,o),
(516,397,o),
(462,397,cs),
(350,397,o),
(272,312,o),
(272,204,cs),
(272,112,o),
(336,63,o),
(431,41,cs),
(451,37,o),
(463,33,o),
(476,28,cs),
(496,22,o),
(509,14,o),
(502,-1,cs),
(477,-55,o),
(420,-88,o),
(343,-88,cs),
(230,-88,o),
(167,-26,o),
(167,81,cs),
(167,131,o),
(182,186,o),
(203,221,cs),
(206,226,o),
(210,233,o),
(210,238,cs),
(210,249,o),
(205,254,o),
(194,254,cs),
(190,254,o),
(186,253,o),
(178,251,cs),
(101,227,o),
(39,146,o),
(39,48,cs),
(39,-78,o),
(140,-214,o),
(343,-214,cs),
(502,-214,o),
(633,-123,o),
(646,28,cs),
(650,75,o),
(618,104,o),
(581,123,cs)
);
}
);
width = 684;
}
);
note = uni0626;
unicode = 1574;
},
{
glyphname = uni0627;
layers = (
{
layerId = m01;
shapes = (
{
closed = 1;
nodes = (
(97,0,o),
(104,1,o),
(120,6,cs),
(157,18,o),
(177,53,o),
(177,106,cs),
(177,542,ls),
(177,552,o),
(172,556,o),
(162,556,cs),
(150,556,ls),
(125,556,o),
(117,554,o),
(101,549,cs),
(64,537,o),
(44,502,o),
(44,450,cs),
(44,14,ls),
(44,4,o),
(50,0,o),
(60,0,cs),
(71,0,ls)
);
}
);
width = 222;
}
);
note = uni0627;
unicode = 1575;
},
{
glyphname = uni0628;
layers = (
{
layerId = m01;
shapes = (
{
closed = 1;
nodes = (
(183,133,o),
(154,162,o),
(154,210,cs),
(154,245,o),
(170,266,o),
(177,280,cs),
(180,285,o),
(184,294,o),
(184,300,cs),
(184,308,o),
(180,315,o),
(167,315,cs),
(163,315,o),
(158,314,o),
(152,312,cs),
(85,294,o),
(39,233,o),
(39,161,cs),
(39,68,o),
(117,0,o),
(227,0,cs),
(524,0,ls),
(648,0,o),
(715,78,o),
(715,196,cs),
(715,364,ls),
(715,374,o),
(710,378,o),
(700,378,cs),
(688,378,ls),
(662,378,o),
(655,377,o),
(639,372,cs),
(602,359,o),
(582,324,o),
(582,272,cs),
(582,198,ls),
(582,158,o),
(564,133,o),
(527,133,cs),
(233,133,ls)
);
},
{
closed = 1;
nodes = (
(352,-61,o),
(322,-88,o),
(322,-126,cs),
(322,-163,o),
(352,-192,o),
(387,-192,cs),
(423,-192,o),
(452,-163,o),
(452,-126,cs),
(452,-88,o),
(423,-61,o),
(387,-61,cs)
);
}
);
width = 759;
}
);
note = uni0628;
unicode = 1576;
},
{
glyphname = uni0629;
layers = (
{
layerId = m01;
shapes = (
{
closed = 1;
nodes = (
(154,541,o),
(182,569,o),
(182,604,cs),
(182,640,o),
(154,668,o),
(120,668,cs),
(85,668,o),
(57,640,o),
(57,604,cs),
(57,569,o),
(85,541,o),
(120,541,cs)
);
},
{
closed = 1;
nodes = (
(292,541,o),
(320,569,o),
(320,604,cs),
(320,640,o),
(292,668,o),
(258,668,cs),
(223,668,o),
(195,640,o),
(195,604,cs),
(195,569,o),
(223,541,o),
(258,541,cs)
);
},
{
closed = 1;
nodes = (
(321,386,o),
(310,394,o),
(300,402,cs),
(267,428,o),
(242,448,o),
(227,479,cs),
(222,489,o),
(220,497,o),
(209,494,cs),
(206,493,o),
(200,491,o),
(198,490,cs),
(155,468,o),
(133,442,o),
(133,411,cs),
(133,400,o),
(138,389,o),
(142,380,c),
(66,329,o),
(39,256,o),
(39,194,cs),
(39,46,o),
(141,-10,o),
(231,-10,cs),
(346,-10,o),
(422,71,o),
(422,194,cs),
(422,267,o),
(393,324,o),
(332,377,cs)
);
},
{
closed = 1;
nodes = (
(198,117,o),
(175,152,o),
(176,192,cs),
(177,223,o),
(185,252,o),
(225,287,c),
(242,273,o),
(255,260,o),
(265,248,cs),
(279,229,o),
(285,212,o),
(286,192,cs),
(287,152,o),
(263,117,o),
(231,117,cs)
);
}
);
width = 461;
}
);
note = uni0629;
unicode = 1577;
},
{
glyphname = uni062A;
layers = (
{
layerId = m01;
shapes = (
{
closed = 1;
nodes = (
(352,375,o),
(380,403,o),
(380,438,cs),
(380,474,o),
(352,502,o),
(318,502,cs),
(283,502,o),
(256,474,o),
(256,438,cs),
(256,403,o),
(283,375,o),
(318,375,cs)
);
},
{
closed = 1;
nodes = (
(490,375,o),
(518,403,o),
(518,438,cs),
(518,474,o),
(490,502,o),
(456,502,cs),
(422,502,o),
(393,474,o),
(393,438,cs),
(393,403,o),
(422,375,o),
(456,375,cs)
);
},
{
closed = 1;
nodes = (
(183,133,o),
(154,162,o),
(154,210,cs),
(154,245,o),
(170,266,o),
(177,280,cs),
(180,285,o),
(184,294,o),
(184,300,cs),
(184,308,o),
(180,315,o),
(167,315,cs),
(163,315,o),
(158,314,o),
(152,312,cs),
(85,294,o),
(39,233,o),
(39,161,cs),
(39,68,o),
(117,0,o),
(227,0,cs),
(524,0,ls),
(648,0,o),
(715,78,o),
(715,196,cs),
(715,364,ls),
(715,374,o),
(710,378,o),
(700,378,cs),
(688,378,ls),
(662,378,o),
(655,377,o),
(639,372,cs),
(602,359,o),
(582,324,o),
(582,272,cs),
(582,198,ls),
(582,158,o),
(564,133,o),
(527,133,cs),
(233,133,ls)
);
}
);
width = 759;
}
);
note = uni062A;
unicode = 1578;
},
{
glyphname = uni062B;
layers = (
{
layerId = m01;
shapes = (
{
closed = 1;
nodes = (
(417,503,o),
(443,529,o),
(443,561,cs),
(443,593,o),
(417,618,o),
(386,618,cs),
(355,618,o),
(330,593,o),
(330,561,cs),
(330,529,o),
(355,503,o),
(386,503,cs)
);
},
{
closed = 1;
nodes = (
(351,374,o),
(380,402,o),
(380,437,cs),
(380,473,o),
(351,501,o),
(317,501,cs),
(283,501,o),
(255,473,o),
(255,437,cs),
(255,402,o),
(283,374,o),
(317,374,cs)
);
},
{
closed = 1;
nodes = (
(490,374,o),
(517,402,o),
(517,437,cs),
(517,473,o),
(490,501,o),
(455,501,cs),
(421,501,o),
(393,473,o),
(393,437,cs),
(393,402,o),
(421,374,o),
(455,374,cs)
);
},
{
closed = 1;
nodes = (
(183,133,o),
(154,162,o),
(154,210,cs),
(154,245,o),
(170,266,o),
(177,280,cs),
(180,285,o),
(184,294,o),
(184,300,cs),
(184,308,o),
(180,315,o),
(167,315,cs),
(163,315,o),
(158,314,o),
(152,312,cs),
(85,294,o),
(39,233,o),
(39,161,cs),
(39,68,o),
(117,0,o),
(227,0,cs),
(524,0,ls),
(648,0,o),
(715,78,o),
(715,196,cs),
(715,364,ls),
(715,374,o),
(710,378,o),
(700,378,cs),
(688,378,ls),
(662,378,o),
(655,377,o),
(639,372,cs),
(602,359,o),
(582,324,o),
(582,272,cs),
(582,198,ls),
(582,158,o),
(564,133,o),
(527,133,cs),
(233,133,ls)
);
}
);
width = 759;
}
);
note = uni062B;
unicode = 1579;
},
{
glyphname = uni062C;
layers = (
{
layerId = m01;
shapes = (
{
closed = 1;
nodes = (
(277,-324,o),
(307,-316,o),
(328,-301,cs),
(352,-283,o),
(366,-257,o),
(367,-223,cs),
(368,-211,o),
(363,-201,o),
(351,-201,cs),
(347,-201,o),
(334,-204,o),
(333,-204,cs),
(323,-206,o),
(318,-206,o),
(305,-206,cs),
(270,-206,o),
(242,-196,o),
(222,-180,cs),
(198,-162,o),
(186,-134,o),
(186,-102,cs),
(186,-50,o),
(224,0,o),
(290,0,cs),
(443,0,ls),
(525,1,o),
(566,53,o),
(566,117,cs),
(566,132,o),
(562,132,o),
(550,134,cs),
(539,136,o),
(530,141,o),
(523,149,cs),
(509,166,o),
(505,173,o),
(490,217,cs),
(448,333,o),
(378,397,o),
(274,397,cs),
(233,397,o),
(190,383,o),
(159,357,cs),
(128,331,o),
(107,292,o),
(103,253,cs),
(103,244,o),
(103,237,o),
(104,231,cs),
(106,222,o),
(110,216,o),
(119,216,cs),
(127,216,o),
(132,219,o),
(140,227,cs),
(155,240,o),
(171,251,o),
(187,258,cs),
(208,267,o),
(231,271,o),
(253,271,cs),
(301,271,o),
(328,244,o),
(351,194,cs),
(367,159,o),
(370,150,o),
(382,133,c),
(289,133,ls),
(141,133,o),
(42,40,o),
(42,-97,cs),
(39,-237,o),
(152,-324,o),
(241,-324,cs)
);
},
{
closed = 1;
nodes = (
(467,-182,o),
(495,-154,o),
(495,-119,cs),
(495,-86,o),
(468,-59,o),
(435,-59,cs),
(402,-59,o),
(375,-86,o),
(375,-119,cs),
(375,-153,o),
(401,-182,o),
(433,-182,cs)
);
}
);
width = 596;
}
);
note = uni062C;
unicode = 1580;
},
{
glyphname = uni062D;
layers = (
{
layerId = m01;
shapes = (
{
closed = 1;
nodes = (
(330,-331,o),
(372,-321,o),
(405,-303,cs),
(451,-278,o),
(479,-237,o),
(480,-187,cs),
(480,-176,o),
(473,-168,o),
(464,-168,cs),
(458,-168,o),
(452,-171,o),
(444,-175,cs),
(423,-184,o),
(406,-192,o),
(388,-197,cs),
(365,-203,o),
(339,-206,o),
(302,-206,cs),
(227,-205,o),
(183,-162,o),
(183,-102,cs),
(183,-50,o),
(221,0,o),
(287,0,cs),
(441,0,ls),
(522,1,o),
(563,53,o),
(563,117,cs),
(563,132,o),
(559,132,o),
(547,134,cs),
(536,136,o),
(527,141,o),
(520,149,cs),
(506,166,o),
(502,173,o),
(487,217,cs),
(445,333,o),
(376,397,o),
(271,397,cs),
(230,397,o),
(187,383,o),
(156,357,cs),
(126,331,o),
(105,292,o),
(101,253,cs),
(100,244,o),
(100,237,o),
(101,231,cs),
(103,222,o),
(107,216,o),
(116,216,cs),
(125,216,o),
(129,219,o),
(137,227,cs),
(152,240,o),
(168,251,o),
(185,258,cs),
(206,267,o),
(228,271,o),
(251,271,cs),
(298,271,o),
(326,244,o),
(348,194,cs),
(364,159,o),
(367,150,o),
(379,133,c),
(286,133,ls),
(138,133,o),
(39,40,o),
(39,-97,cs),
(39,-233,o),
(138,-331,o),
(281,-331,cs)
);
}
);
width = 596;
}
);
note = uni062D;
unicode = 1581;
},
{
glyphname = uni062E;
layers = (
{
layerId = m01;
shapes = (
{
closed = 1;
nodes = (
(233,581,o),
(204,553,o),
(204,515,cs),
(204,478,o),
(233,449,o),
(269,449,cs),
(305,449,o),
(333,478,o),
(333,515,cs),
(333,553,o),
(305,581,o),
(269,581,cs)
);
},
{
closed = 1;
nodes = (
(330,-331,o),
(372,-321,o),
(405,-303,cs),
(451,-278,o),
(479,-237,o),
(480,-187,cs),
(480,-176,o),
(473,-168,o),
(464,-168,cs),
(458,-168,o),
(452,-171,o),
(444,-175,cs),
(423,-184,o),
(406,-192,o),
(388,-197,cs),
(365,-203,o),
(339,-206,o),
(302,-206,cs),
(227,-205,o),
(183,-162,o),
(183,-102,cs),
(183,-50,o),
(221,0,o),
(287,0,cs),
(441,0,ls),
(522,1,o),
(563,53,o),
(563,117,cs),
(563,132,o),
(559,132,o),
(547,134,cs),
(536,136,o),
(527,141,o),
(520,149,cs),
(506,166,o),
(502,173,o),
(487,217,cs),
(445,333,o),
(376,397,o),
(271,397,cs),
(230,397,o),
(187,383,o),
(156,357,cs),
(126,331,o),
(105,292,o),
(101,253,cs),
(100,244,o),
(100,237,o),
(101,231,cs),
(103,222,o),
(107,216,o),
(116,216,cs),
(125,216,o),
(129,219,o),
(137,227,cs),
(152,240,o),
(168,251,o),
(185,258,cs),
(206,267,o),
(228,271,o),
(251,271,cs),
(298,271,o),
(326,244,o),
(348,194,cs),
(364,159,o),
(367,150,o),
(379,133,c),
(286,133,ls),
(138,133,o),
(39,40,o),
(39,-97,cs),
(39,-233,o),
(138,-331,o),
(281,-331,cs)
);
}
);
width = 596;
}
);
note = uni062E;
unicode = 1582;
},
{
glyphname = uni062F;
layers = (
{
layerId = m01;
shapes = (
{
closed = 1;
nodes = (
(310,0,o),
(390,81,o),
(390,192,cs),
(390,311,o),
(322,394,o),
(221,397,cs),
(185,398,o),
(152,385,o),
(129,364,cs),
(107,345,o),
(92,320,o),
(90,290,cs),
(89,270,o),
(92,254,o),
(107,253,cs),
(115,253,o),
(119,257,o),
(128,260,cs),
(150,268,o),
(161,272,o),
(187,271,cs),
(229,270,o),
(254,239,o),
(254,199,cs),
(254,163,o),
(231,133,o),
(197,133,cs),
(145,133,ls),
(77,133,o),
(33,95,o),
(33,37,cs),
(33,24,ls),
(33,3,o),
(39,0,o),
(60,0,cs),
(198,0,ls)
);
}
);
width = 429;
}
);
note = uni062F;
unicode = 1583;
},
{
glyphname = uni0630;
layers = (
{
layerId = m01;
shapes = (
{
closed = 1;
nodes = (
(121,573,o),
(91,546,o),
(91,508,cs),
(91,471,o),
(121,442,o),
(156,442,cs),
(192,442,o),
(221,471,o),
(221,508,cs),
(221,546,o),
(192,573,o),
(156,573,cs)
);
},
{
closed = 1;
nodes = (
(310,0,o),
(390,81,o),
(390,192,cs),
(390,311,o),
(322,394,o),
(221,397,cs),
(185,398,o),
(152,385,o),
(129,364,cs),
(107,345,o),
(92,320,o),
(90,290,cs),
(89,270,o),
(92,254,o),
(107,253,cs),
(115,253,o),
(119,257,o),
(128,260,cs),
(150,268,o),
(161,272,o),
(187,271,cs),
(229,270,o),
(254,239,o),
(254,199,cs),
(254,163,o),
(231,133,o),
(197,133,cs),
(145,133,ls),
(77,133,o),
(33,95,o),
(33,37,cs),
(33,24,ls),
(33,3,o),
(39,0,o),
(60,0,cs),
(198,0,ls)
);
}
);
width = 429;
}
);
note = uni0630;
unicode = 1584;
},
{
glyphname = uni0631;
layers = (
{
layerId = m01;
shapes = (
{
closed = 1;
nodes = (
(2,-89,o),
(-23,-84,o),
(-54,-73,cs),
(-59,-71,o),
(-66,-68,o),
(-74,-68,cs),
(-85,-68,o),
(-92,-78,o),
(-90,-89,cs),
(-85,-123,o),
(-69,-153,o),
(-44,-175,cs),
(-18,-199,o),
(17,-213,o),
(56,-214,cs),
(173,-217,o),
(237,-126,o),
(237,41,cs),
(237,364,ls),
(237,374,o),
(232,378,o),
(222,378,cs),
(210,378,ls),
(185,378,o),
(177,377,o),
(161,372,cs),
(124,359,o),
(104,324,o),
(104,272,cs),
(104,15,ls),
(104,-56,o),
(82,-86,o),
(27,-88,cs)
);
}
);
width = 281;
}
);
note = uni0631;
unicode = 1585;
},
{
glyphname = uni0632;
layers = (
{
layerId = m01;
shapes = (
{
closed = 1;
nodes = (
(139,561,o),
(109,533,o),
(109,495,cs),
(109,458,o),
(139,429,o),
(174,429,cs),
(210,429,o),
(239,458,o),
(239,495,cs),
(239,533,o),
(210,561,o),
(174,561,cs)
);
},
{
closed = 1;
nodes = (
(2,-89,o),
(-23,-84,o),
(-54,-73,cs),
(-59,-71,o),
(-66,-68,o),
(-74,-68,cs),
(-85,-68,o),
(-92,-78,o),
(-90,-89,cs),
(-85,-123,o),
(-69,-153,o),
(-44,-175,cs),
(-18,-199,o),
(17,-213,o),
(56,-214,cs),
(173,-217,o),
(237,-126,o),
(237,41,cs),
(237,364,ls),
(237,374,o),
(232,378,o),
(222,378,cs),
(210,378,ls),
(185,378,o),
(177,377,o),
(161,372,cs),
(124,359,o),
(104,324,o),
(104,272,cs),
(104,15,ls),
(104,-56,o),
(82,-86,o),
(27,-88,cs)
);
}
);
width = 281;
}
);
note = uni0632;
unicode = 1586;
},
{
glyphname = uni0633;
layers = (
{
layerId = m01;
shapes = (
{
closed = 1;
nodes = (
(1019,378,o),
(1012,377,o),
(996,372,cs),
(958,359,o),
(938,324,o),
(938,272,cs),
(938,188,ls),
(938,143,o),
(920,119,o),
(882,119,cs),
(845,119,o),
(827,143,o),
(827,188,cs),
(827,347,ls),
(827,357,o),
(822,361,o),
(812,361,cs),
(800,361,ls),
(775,361,o),
(767,360,o),
(751,355,cs),
(714,343,o),
(694,308,o),
(694,256,cs),
(694,188,ls),
(694,143,o),
(675,119,o),
(638,119,cs),
(601,119,o),
(583,143,o),
(583,188,cs),
(583,332,ls),
(583,342,o),
(577,346,o),
(567,346,cs),
(556,346,ls),
(530,346,o),
(523,344,o),
(507,339,cs),
(470,327,o),
(450,292,o),
(450,240,cs),
(450,78,ls),
(450,-25,o),
(398,-88,o),
(308,-88,cs),
(218,-88,o),
(166,-25,o),
(166,78,cs),
(166,140,o),
(190,191,o),
(208,219,cs),
(212,225,o),
(215,229,o),
(215,233,cs),
(215,243,o),
(207,249,o),
(196,249,cs),
(192,249,o),
(187,248,o),
(180,246,cs),
(100,227,o),
(39,153,o),
(39,52,cs),
(39,-99,o),
(147,-214,o),
(308,-214,cs),
(451,-214,o),
(548,-129,o),
(576,7,c),
(598,-3,o),
(624,-10,o),
(653,-10,cs),
(700,-10,o),
(732,3,o),
(761,27,c),
(792,3,o),
(834,-10,o),
(884,-10,cs),
(1008,-10,o),
(1072,69,o),
(1072,186,cs),
(1072,364,ls),
(1072,374,o),
(1066,378,o),
(1056,378,cs),
(1045,378,ls)
);
}
);
width = 1116;
}
);
note = uni0633;
unicode = 1587;
},
{
glyphname = uni0634;
layers = (
{
layerId = m01;
shapes = (
{
closed = 1;
nodes = (
(788,544,o),
(814,570,o),
(814,602,cs),
(814,634,o),
(788,659,o),
(757,659,cs),
(726,659,o),
(701,634,o),
(701,602,cs),
(701,570,o),
(726,544,o),
(757,544,cs)
);
},
{
closed = 1;
nodes = (
(722,415,o),
(751,443,o),
(751,478,cs),
(751,514,o),
(722,542,o),
(688,542,cs),
(654,542,o),
(626,514,o),
(626,478,cs),
(626,443,o),
(654,415,o),
(688,415,cs)
);
},
{
closed = 1;
nodes = (
(764,443,o),
(792,415,o),
(826,415,cs),
(861,415,o),
(888,443,o),
(888,478,cs),
(888,514,o),
(861,542,o),
(826,542,cs),
(792,542,o),
(764,514,o),
(764,478,cs)
);
},
{
closed = 1;
nodes = (
(1019,378,o),
(1012,377,o),
(996,372,cs),
(958,359,o),
(938,324,o),
(938,272,cs),
(938,188,ls),
(938,143,o),
(920,119,o),
(882,119,cs),
(845,119,o),
(827,143,o),
(827,188,cs),
(827,347,ls),
(827,357,o),
(822,361,o),
(812,361,cs),
(800,361,ls),
(775,361,o),
(767,360,o),
(751,355,cs),
(714,343,o),
(694,308,o),
(694,256,cs),
(694,188,ls),
(694,143,o),
(675,119,o),
(638,119,cs),
(601,119,o),
(583,143,o),
(583,188,cs),
(583,332,ls),
(583,342,o),
(577,346,o),
(567,346,cs),
(556,346,ls),
(530,346,o),
(523,344,o),
(507,339,cs),
(470,327,o),
(450,292,o),
(450,240,cs),
(450,78,ls),
(450,-25,o),
(398,-88,o),
(308,-88,cs),
(218,-88,o),
(166,-25,o),
(166,78,cs),
(166,140,o),
(190,191,o),
(208,219,cs),
(212,225,o),
(215,229,o),
(215,233,cs),
(215,243,o),
(207,249,o),
(196,249,cs),
(192,249,o),
(187,248,o),
(180,246,cs),
(100,227,o),
(39,153,o),
(39,52,cs),
(39,-99,o),
(147,-214,o),
(308,-214,cs),
(451,-214,o),
(548,-129,o),
(576,7,c),
(598,-3,o),
(624,-10,o),
(653,-10,cs),
(700,-10,o),
(732,3,o),
(761,27,c),
(792,3,o),
(834,-10,o),
(884,-10,cs),
(1008,-10,o),
(1072,69,o),
(1072,186,cs),
(1072,364,ls),
(1072,374,o),
(1066,378,o),
(1056,378,cs),
(1045,378,ls)
);
}
);
width = 1116;
}
);
note = uni0634;
unicode = 1588;
},
{
glyphname = uni0635;
layers = (
{
layerId = m01;
shapes = (
{
closed = 1;
nodes = (
(824,397,o),
(697,288,o),
(636,133,c),
(616,134,o),
(583,142,o),
(583,196,cs),
(583,363,ls),
(583,373,o),
(577,377,o),
(567,377,cs),
(556,377,ls),
(530,377,o),
(523,376,o),
(507,371,cs),
(470,358,o),
(450,323,o),
(450,271,cs),
(450,78,ls),
(450,-25,o),
(398,-88,o),
(308,-88,cs),
(218,-88,o),
(166,-25,o),
(166,78,cs),
(166,140,o),
(190,191,o),
(208,219,cs),
(212,225,o),
(215,229,o),
(215,233,cs),
(215,243,o),
(207,249,o),
(196,249,cs),
(192,249,o),
(187,248,o),
(180,246,cs),
(100,227,o),
(39,153,o),
(39,52,cs),
(39,-99,o),
(147,-214,o),
(308,-214,cs),
(451,-214,o),
(548,-129,o),
(576,7,c),
(590,3,o),
(607,0,o),
(625,0,cs),
(1010,0,ls),
(1112,0,o),
(1198,72,o),
(1198,193,cs),
(1198,303,o),
(1127,397,o),
(988,397,cs)
);
},
{
closed = 1;
nodes = (
(833,227,o),
(902,271,o),
(980,271,cs),
(1023,271,o),
(1062,251,o),
(1062,201,cs),
(1062,173,o),
(1047,133,o),
(1003,133,cs),
(783,133,l)
);
}
);
width = 1237;
}
);
note = uni0635;
unicode = 1589;
},
{
glyphname = uni0636;
layers = (
{
layerId = m01;
shapes = (
{
closed = 1;
nodes = (
(987,447,o),
(1016,476,o),
(1016,513,cs),
(1016,551,o),
(987,579,o),
(951,579,cs),
(916,579,o),
(886,551,o),
(886,513,cs),
(886,476,o),
(916,447,o),
(951,447,cs)
);
},
{
closed = 1;
nodes = (
(824,397,o),
(697,288,o),
(636,133,c),
(616,134,o),
(583,142,o),
(583,196,cs),
(583,363,ls),
(583,373,o),
(577,377,o),
(567,377,cs),
(556,377,ls),
(530,377,o),
(523,376,o),
(507,371,cs),
(470,358,o),
(450,323,o),
(450,271,cs),
(450,78,ls),
(450,-25,o),
(398,-88,o),
(308,-88,cs),
(218,-88,o),
(166,-25,o),
(166,78,cs),
(166,140,o),
(190,191,o),
(208,219,cs),
(212,225,o),
(215,229,o),
(215,233,cs),
(215,243,o),
(207,249,o),
(196,249,cs),
(192,249,o),
(187,248,o),
(180,246,cs),
(100,227,o),
(39,153,o),
(39,52,cs),
(39,-99,o),
(147,-214,o),
(308,-214,cs),
(451,-214,o),
(548,-129,o),
(576,7,c),
(590,3,o),
(607,0,o),
(625,0,cs),
(1010,0,ls),
(1112,0,o),
(1198,72,o),
(1198,193,cs),
(1198,303,o),
(1127,397,o),
(988,397,cs)
);
},
{
closed = 1;
nodes = (
(833,227,o),
(902,271,o),
(980,271,cs),
(1023,271,o),
(1062,251,o),
(1062,201,cs),
(1062,173,o),
(1047,133,o),
(1003,133,cs),
(783,133,l)
);
}
);
width = 1237;
}
);
note = uni0636;
unicode = 1590;
},
{
glyphname = uni0637;
layers = (
{
layerId = m01;
shapes = (
{
closed = 1;
nodes = (
(414,397,o),
(345,372,o),
(287,331,c),
(287,542,ls),
(287,552,o),
(281,556,o),
(271,556,cs),
(260,556,ls),
(234,556,o),
(227,554,o),
(211,549,cs),
(174,537,o),
(154,502,o),
(154,450,cs),
(154,133,l),
(145,133,ls),
(77,133,o),
(33,95,o),
(33,37,cs),
(33,24,ls),
(33,3,o),
(39,0,o),
(60,0,cs),
(513,0,ls),
(616,0,o),
(702,72,o),
(702,193,cs),
(702,303,o),
(631,397,o),
(491,397,cs)
);
},
{
closed = 1;
nodes = (
(336,227,o),
(406,271,o),
(483,271,cs),
(527,271,o),
(565,251,o),
(565,201,cs),
(565,173,o),
(550,133,o),
(506,133,cs),
(287,133,l)
);
}
);
width = 741;
}
);
note = uni0637;
unicode = 1591;
},
{
glyphname = uni0638;
layers = (
{
layerId = m01;
shapes = (
{
closed = 1;
nodes = (
(494,448,o),
(522,477,o),
(522,514,cs),
(522,552,o),
(494,580,o),
(457,580,cs),
(422,580,o),
(392,552,o),
(392,514,cs),
(392,477,o),
(422,448,o),
(457,448,cs)
);
},
{
closed = 1;
nodes = (
(414,397,o),
(345,372,o),
(287,331,c),
(287,542,ls),
(287,552,o),
(281,556,o),
(271,556,cs),
(260,556,ls),
(234,556,o),
(227,554,o),
(211,549,cs),
(174,537,o),
(154,502,o),
(154,450,cs),
(154,133,l),
(145,133,ls),
(77,133,o),
(33,95,o),
(33,37,cs),
(33,24,ls),
(33,3,o),
(39,0,o),
(60,0,cs),
(513,0,ls),
(616,0,o),
(702,72,o),
(702,193,cs),
(702,303,o),
(631,397,o),
(491,397,cs)
);
},
{
closed = 1;
nodes = (
(336,227,o),
(406,271,o),
(483,271,cs),
(527,271,o),
(565,251,o),
(565,201,cs),
(565,173,o),
(550,133,o),
(506,133,cs),
(287,133,l)
);
}
);
width = 741;
}
);
note = uni0638;
unicode = 1592;
},
{
glyphname = uni0639;
layers = (
{
layerId = m01;
shapes = (
{
closed = 1;
nodes = (
(458,-168,o),
(452,-171,o),
(444,-175,cs),
(423,-184,o),
(406,-192,o),
(387,-197,cs),
(364,-203,o),
(338,-206,o),
(302,-206,cs),
(227,-205,o),
(183,-162,o),
(183,-102,cs),
(183,-50,o),
(221,0,o),
(287,0,cs),
(451,0,ls),
(472,0,o),
(478,3,o),
(478,24,cs),
(478,36,ls),
(478,94,o),
(434,133,o),
(366,133,cs),
(280,133,ls),
(237,133,o),
(215,168,o),
(215,201,cs),
(216,244,o),
(246,271,o),
(297,271,cs),
(327,271,o),
(366,258,o),
(387,245,cs),
(395,241,o),
(401,238,o),
(405,238,cs),
(420,239,o),
(424,253,o),
(425,272,cs),
(427,346,o),
(365,397,o),
(274,397,cs),
(163,397,o),
(78,311,o),
(80,202,cs),
(80,161,o),
(96,117,o),
(126,86,c),
(71,45,o),
(39,-19,o),
(39,-97,cs),
(39,-233,o),
(138,-331,o),
(281,-331,cs),
(325,-331,o),
(364,-323,o),
(395,-308,cs),
(447,-284,o),
(479,-241,o),
(480,-187,cs),
(480,-176,o),
(473,-168,o),
(464,-168,cs)
);
}
);
width = 513;
}
);
note = uni0639;
unicode = 1593;
},
{
glyphname = uni063A;
layers = (
{
layerId = m01;
shapes = (
{
closed = 1;
nodes = (
(302,446,o),
(331,474,o),
(331,512,cs),
(331,549,o),
(302,577,o),
(266,577,cs),
(231,577,o),
(201,549,o),
(201,512,cs),
(201,474,o),
(231,446,o),
(266,446,cs)
);
},
{
closed = 1;
nodes = (
(458,-168,o),
(452,-171,o),
(444,-175,cs),
(423,-184,o),
(406,-192,o),
(387,-197,cs),
(364,-203,o),
(338,-206,o),
(302,-206,cs),
(227,-205,o),
(183,-162,o),
(183,-102,cs),
(183,-50,o),
(221,0,o),
(287,0,cs),
(451,0,ls),
(472,0,o),
(478,3,o),
(478,24,cs),
(478,36,ls),
(478,94,o),
(434,133,o),
(366,133,cs),
(280,133,ls),
(237,133,o),
(215,168,o),
(215,201,cs),
(216,244,o),
(246,271,o),
(297,271,cs),
(327,271,o),
(366,258,o),
(387,245,cs),
(395,241,o),
(401,238,o),
(405,238,cs),
(420,239,o),
(424,253,o),
(425,272,cs),
(427,346,o),
(365,397,o),
(274,397,cs),
(163,397,o),
(78,311,o),
(80,202,cs),
(80,161,o),
(96,117,o),
(126,86,c),
(71,45,o),
(39,-19,o),
(39,-97,cs),
(39,-233,o),
(138,-331,o),
(281,-331,cs),
(325,-331,o),
(364,-323,o),
(395,-308,cs),
(447,-284,o),
(479,-241,o),
(480,-187,cs),
(480,-176,o),
(473,-168,o),
(464,-168,cs)
);
}
);
width = 513;
}
);
note = uni063A;
unicode = 1594;
},
{
glyphname = uni0640;
layers = (
{
layerId = m01;
shapes = (
{
closed = 1;
nodes = (
(0,0,l),
(116,0,l),
(116,133,l),
(0,133,l)
);
}
);
width = 104;
}
);
note = uni0640;
unicode = 1600;
},
{
glyphname = uni0641;
layers = (
{
layerId = m01;
shapes = (
{
closed = 1;
nodes = (
(673,446,o),
(702,474,o),
(702,512,cs),
(702,549,o),
(673,577,o),
(637,577,cs),
(602,577,o),
(572,549,o),
(572,512,cs),
(572,474,o),
(602,446,o),
(637,446,cs)
);
},
{
closed = 1;
nodes = (
(533,397,o),
(448,323,o),
(448,198,cs),
(449,177,o),
(455,153,o),
(462,133,c),
(233,133,ls),
(183,133,o),
(154,162,o),
(154,210,cs),
(154,245,o),
(170,266,o),
(177,280,cs),
(180,285,o),
(184,294,o),
(184,300,cs),
(184,308,o),
(180,315,o),
(167,315,cs),
(163,315,o),
(158,314,o),
(152,312,cs),
(85,294,o),
(39,233,o),
(39,161,cs),
(39,68,o),
(117,0,o),
(227,0,cs),
(640,0,ls),
(743,1,o),
(826,74,o),
(826,198,cs),
(826,323,o),
(742,397,o),
(637,397,cs)
);
},
{
closed = 1;
nodes = (
(595,133,o),
(585,184,o),
(585,203,cs),
(585,221,o),
(595,271,o),
(638,271,cs),
(681,271,o),
(690,221,o),
(690,203,cs),
(690,184,o),
(681,133,o),
(638,133,cs)
);
}
);
width = 865;
}
);
note = uni0641;
unicode = 1601;
},
{
glyphname = uni0642;
layers = (
{
layerId = m01;
shapes = (
{
closed = 1;
nodes = (
(431,448,o),
(459,476,o),
(459,511,cs),
(459,547,o),
(431,574,o),
(397,574,cs),
(362,574,o),
(335,547,o),
(335,511,cs),
(335,476,o),
(362,448,o),
(397,448,cs)
);
},
{
closed = 1;
nodes = (
(569,448,o),
(597,476,o),
(597,511,cs),
(597,547,o),
(569,574,o),
(535,574,cs),
(501,574,o),
(472,547,o),
(472,511,cs),
(472,476,o),
(501,448,o),
(535,448,cs)
);
},
{
closed = 1;
nodes = (
(611,355,o),
(552,397,o),
(466,397,cs),
(361,397,o),
(276,326,o),
(276,190,cs),
(276,75,o),
(352,-10,o),
(456,-10,cs),
(467,-10,o),
(483,-9,o),
(506,-3,c),
(498,-19,o),
(488,-33,o),
(476,-45,cs),
(447,-73,o),
(403,-88,o),
(347,-88,cs),
(235,-88,o),
(172,-27,o),
(171,78,cs),
(170,128,o),
(185,186,o),
(207,221,cs),
(210,226,o),
(213,233,o),
(213,238,cs),
(213,249,o),
(209,254,o),
(198,254,cs),
(194,254,o),
(190,253,o),
(182,251,cs),
(107,227,o),
(46,151,o),
(43,55,cs),
(39,-76,o),
(142,-213,o),
(347,-214,cs),
(458,-215,o),
(557,-171,o),
(613,-81,cs),
(646,-27,o),
(659,43,o),
(659,126,cs),
(659,182,o),
(655,244,o),
(638,284,cs)
);
},
{
closed = 1;
nodes = (
(413,229,o),
(426,271,o),
(466,271,cs),
(491,271,o),
(505,254,o),
(512,233,cs),
(518,214,o),
(523,174,o),
(523,149,cs),
(523,145,o),
(523,141,o),
(522,136,c),
(512,127,o),
(489,119,o),
(468,119,cs),
(437,119,o),
(413,142,o),
(413,197,cs)
);
}
);
width = 694;
}
);
note = uni0642;
unicode = 1602;
},
{
glyphname = uni0643;
layers = (
{
layerId = m01;
shapes = (
{
closed = 1;
nodes = (
(662,556,o),
(655,554,o),
(639,549,cs),
(602,537,o),
(582,502,o),
(582,450,cs),
(582,198,ls),
(582,158,o),
(564,133,o),
(527,133,cs),
(233,133,ls),
(183,133,o),
(154,162,o),
(154,210,cs),
(154,245,o),
(170,266,o),
(177,280,cs),
(180,285,o),
(184,294,o),
(184,300,cs),
(184,308,o),
(180,315,o),
(167,315,cs),
(163,315,o),
(158,314,o),
(152,312,cs),
(85,294,o),
(39,233,o),
(39,161,cs),
(39,68,o),
(117,0,o),
(227,0,cs),
(524,0,ls),
(648,0,o),
(715,78,o),
(715,196,cs),
(715,542,ls),
(715,552,o),
(710,556,o),
(700,556,cs),
(688,556,ls)
);
},
{
closed = 1;
nodes = (
(283,262,o),
(286,263,o),
(287,264,cs),
(293,268,ls),
(304,274,o),
(315,276,o),
(332,276,cs),
(475,276,ls),
(485,276,o),
(487,278,o),
(487,288,cs),
(487,293,ls),
(487,322,o),
(468,338,o),
(436,338,cs),
(405,338,ls),
(373,338,o),
(361,363,o),
(361,377,cs),
(361,399,o),
(376,412,o),
(401,412,cs),
(416,412,o),
(428,409,o),
(441,402,cs),
(448,398,o),
(452,396,o),
(456,396,cs),
(463,396,o),
(465,404,o),
(465,414,cs),
(465,449,o),
(432,474,o),
(388,473,cs),
(346,473,o),
(296,440,o),
(296,377,cs),
(296,366,o),
(301,349,o),
(311,334,c),
(285,327,o),
(271,312,o),
(271,287,cs),
(271,279,o),
(272,272,o),
(275,267,c),
(276,263,o),
(278,262,o),
(281,262,cs)
);
}
);
width = 759;
}
);
note = uni0643;
unicode = 1603;
},
{
glyphname = uni0644;
layers = (
{
layerId = m01;
shapes = (
{
closed = 1;
nodes = (
(477,-214,o),
(583,-96,o),
(583,87,cs),
(583,542,ls),
(583,552,o),
(577,556,o),
(567,556,cs),
(556,556,ls),
(530,556,o),
(523,554,o),
(507,549,cs),
(470,537,o),
(450,502,o),
(450,450,cs),
(450,78,ls),
(450,-25,o),
(398,-88,o),
(308,-88,cs),
(218,-88,o),
(166,-25,o),
(166,78,cs),
(166,140,o),
(190,191,o),
(208,219,cs),
(212,225,o),
(215,229,o),
(215,233,cs),
(215,243,o),
(207,249,o),
(196,249,cs),
(192,249,o),
(187,248,o),
(180,246,cs),
(100,227,o),
(39,153,o),
(39,52,cs),
(39,-99,o),
(147,-214,o),
(308,-214,cs)
);
}
);
width = 627;
}
);
note = uni0644;
unicode = 1604;
},
{
glyphname = uni0645;
layers = (
{
layerId = m01;
shapes = (
{
closed = 1;
nodes = (
(293,397,o),
(251,324,o),
(198,214,cs),
(185,188,o),
(177,168,o),
(167,155,c),
(76,137,o),
(32,69,o),
(32,-31,cs),
(32,-275,ls),
(32,-285,o),
(38,-289,o),
(48,-289,cs),
(59,-289,ls),
(85,-289,o),
(92,-288,o),
(108,-283,cs),
(145,-271,o),
(165,-236,o),
(165,-183,cs),
(165,-33,ls),
(165,7,o),
(178,26,o),
(215,26,cs),
(237,26,l),
(293,-1,o),
(333,-10,o),
(385,-10,cs),
(509,-10,o),
(576,69,o),
(576,187,cs),
(576,257,o),
(540,397,o),
(390,397,cs)
);
},
{
closed = 1;
nodes = (
(378,118,o),
(355,117,o),
(310,138,c),
(315,145,o),
(321,156,o),
(330,174,cs),
(351,221,o),
(374,271,o),
(398,271,cs),
(427,271,o),
(439,236,o),
(439,189,cs),
(439,143,o),
(428,122,o),
(392,119,cs)
);
}
);
width = 614;
}
);
note = uni0645;
unicode = 1605;
},
{
glyphname = uni0646;
layers = (
{
layerId = m01;
shapes = (
{
closed = 1;
nodes = (
(272,459,o),
(242,432,o),
(242,394,cs),
(242,357,o),
(272,328,o),
(307,328,cs),
(343,328,o),
(372,357,o),
(372,394,cs),
(372,432,o),
(343,459,o),
(307,459,cs)
);
},
{
closed = 1;
nodes = (
(477,-214,o),
(583,-96,o),
(583,87,cs),
(583,363,ls),
(583,373,o),
(577,377,o),
(567,377,cs),
(556,377,ls),
(530,377,o),
(523,376,o),
(507,371,cs),
(470,358,o),
(450,323,o),
(450,271,cs),
(450,78,ls),
(450,-25,o),
(398,-88,o),
(308,-88,cs),
(218,-88,o),
(166,-25,o),
(166,78,cs),
(166,140,o),
(190,191,o),
(208,219,cs),
(212,225,o),
(215,229,o),
(215,233,cs),
(215,243,o),
(207,249,o),
(196,249,cs),
(192,249,o),
(187,248,o),
(180,246,cs),
(100,227,o),
(39,153,o),
(39,52,cs),
(39,-99,o),
(147,-214,o),
(308,-214,cs)
);
}
);
width = 627;
}
);
note = uni0646;
unicode = 1606;
},
{
glyphname = uni0647;
layers = (
{
layerId = m01;
shapes = (
{
closed = 1;
nodes = (
(321,386,o),
(310,394,o),
(300,402,cs),
(267,428,o),
(242,448,o),
(227,479,cs),
(222,489,o),
(220,497,o),
(209,494,cs),
(206,493,o),
(200,491,o),
(198,490,cs),
(155,468,o),
(133,442,o),
(133,411,cs),
(133,400,o),
(138,389,o),
(142,380,c),
(66,329,o),
(39,256,o),
(39,194,cs),
(39,46,o),
(141,-10,o),
(231,-10,cs),
(346,-10,o),
(422,71,o),
(422,194,cs),
(422,267,o),
(393,324,o),
(332,377,cs)
);
},
{
closed = 1;
nodes = (
(198,117,o),
(175,152,o),
(176,192,cs),
(177,223,o),
(185,252,o),
(225,287,c),
(242,273,o),
(255,260,o),
(265,248,cs),
(279,229,o),
(285,212,o),
(286,192,cs),
(287,152,o),
(263,117,o),
(231,117,cs)
);
}
);
width = 461;
}
);
note = uni0647;
unicode = 1607;
},
{
glyphname = uni0648;
layers = (
{
layerId = m01;
shapes = (
{
closed = 1;
nodes = (
(370,355,o),
(315,397,o),
(228,397,cs),
(124,397,o),
(39,326,o),
(39,190,cs),
(39,75,o),
(115,-10,o),
(218,-10,cs),
(231,-10,o),
(252,-9,o),
(281,2,c),
(272,-52,o),
(238,-86,o),
(190,-88,cs),
(143,-89,o),
(122,-82,o),
(93,-73,cs),
(88,-72,o),
(81,-69,o),
(74,-69,cs),
(63,-69,o),
(55,-77,o),
(57,-89,cs),
(63,-121,o),
(77,-148,o),
(98,-169,cs),
(126,-197,o),
(166,-213,o),
(217,-214,cs),
(286,-216,o),
(348,-176,o),
(380,-107,cs),
(416,-39,o),
(420,54,o),
(420,132,cs),
(420,188,o),
(413,244,o),
(397,284,cs)
);
},
{
closed = 1;
nodes = (
(200,119,o),
(176,142,o),
(176,197,cs),
(176,229,o),
(189,271,o),
(228,271,cs),
(253,271,o),
(268,254,o),
(275,233,cs),
(281,214,o),
(282,174,o),
(282,149,cs),
(282,143,o),
(281,137,o),
(281,133,c),
(270,124,o),
(251,119,o),
(231,119,cs)
);
}
);
width = 458;
}
);
note = uni0648;
unicode = 1608;
},
{
glyphname = uni0649;
layers = (
{
layerId = m01;
shapes = (
{
closed = 1;
nodes = (
(502,-214,o),
(633,-123,o),
(646,28,cs),
(650,75,o),
(618,104,o),
(581,123,cs),
(553,137,o),
(511,151,o),
(474,161,cs),
(432,172,o),
(407,184,o),
(407,206,cs),
(407,243,o),
(435,271,o),
(485,271,cs),
(512,271,o),
(552,258,o),
(573,245,cs),
(580,241,o),
(586,238,o),
(591,238,cs),
(607,239,o),
(611,254,o),
(611,276,cs),
(611,303,o),
(602,327,o),
(586,347,cs),
(560,378,o),
(516,397,o),
(462,397,cs),
(350,397,o),
(272,312,o),
(272,204,cs),
(272,112,o),
(336,63,o),
(431,41,cs),
(451,37,o),
(463,33,o),
(476,28,cs),
(496,22,o),
(509,14,o),
(502,-1,cs),
(477,-55,o),
(420,-88,o),
(343,-88,cs),
(230,-88,o),
(167,-26,o),
(167,81,cs),
(167,131,o),
(182,186,o),
(203,221,cs),
(206,226,o),
(210,233,o),
(210,238,cs),
(210,249,o),
(205,254,o),
(194,254,cs),
(190,254,o),
(186,253,o),
(178,251,cs),
(101,227,o),
(39,146,o),
(39,48,cs),
(39,-78,o),
(140,-214,o),
(343,-214,cs)
);
}
);
width = 684;
}
);
note = uni0649;
unicode = 1609;
},
{
glyphname = uni064A;
layers = (
{
layerId = m01;
shapes = (
{
closed = 1;
nodes = (
(502,-214,o),
(633,-123,o),
(646,28,cs),
(650,75,o),
(618,104,o),
(581,123,cs),
(553,137,o),
(511,151,o),
(474,161,cs),
(432,172,o),
(407,184,o),
(407,206,cs),
(407,243,o),
(435,271,o),
(485,271,cs),
(512,271,o),
(552,258,o),
(573,245,cs),
(580,241,o),
(586,238,o),
(591,238,cs),
(607,239,o),
(611,254,o),
(611,276,cs),
(611,303,o),
(602,327,o),
(586,347,cs),
(560,378,o),
(516,397,o),
(462,397,cs),
(350,397,o),
(272,312,o),
(272,204,cs),
(272,112,o),
(336,63,o),
(431,41,cs),
(451,37,o),
(463,33,o),
(476,28,cs),
(496,22,o),
(509,14,o),
(502,-1,cs),
(477,-55,o),
(420,-88,o),
(343,-88,cs),
(230,-88,o),
(167,-26,o),
(167,81,cs),
(167,131,o),
(182,186,o),
(203,221,cs),
(206,226,o),
(210,233,o),
(210,238,cs),
(210,249,o),
(205,254,o),
(194,254,cs),
(190,254,o),
(186,253,o),
(178,251,cs),
(101,227,o),
(39,146,o),
(39,48,cs),
(39,-78,o),
(140,-214,o),
(343,-214,cs)
);
},
{
closed = 1;
nodes = (
(238,-257,o),
(211,-285,o),
(211,-321,cs),
(211,-356,o),
(238,-384,o),
(273,-384,cs),
(307,-384,o),
(335,-356,o),
(335,-321,cs),
(335,-285,o),
(307,-257,o),
(273,-257,cs)
);
},
{
closed = 1;
nodes = (
(377,-257,o),
(348,-285,o),
(348,-321,cs),
(348,-356,o),
(377,-384,o),
(411,-384,cs),
(445,-384,o),
(473,-356,o),
(473,-321,cs),
(473,-285,o),
(445,-257,o),
(411,-257,cs)
);
}
);
width = 684;
}
);
note = uni064A;
unicode = 1610;
},
{
glyphname = uni064B;
layers = (
{
layerId = m01;
shapes = (
{
closed = 1;
nodes = (
(31,762,o),
(8,744,o),
(8,715,cs),
(8,708,o),
(10,702,o),
(12,697,cs),
(14,694,o),
(16,693,o),
(17,693,cs),
(19,693,o),
(20,693,o),
(24,696,c),
(27,697,o),
(39,706,o),
(61,706,cs),
(188,706,ls),
(197,706,o),
(199,707,o),
(199,714,cs),
(199,721,ls),
(199,747,o),
(181,762,o),
(152,762,cs),
(67,762,ls)
);
},
{
closed = 1;
nodes = (
(31,669,o),
(8,652,o),
(8,623,cs),
(8,616,o),
(10,610,o),
(12,605,cs),
(14,602,o),
(16,601,o),
(17,601,cs),
(19,601,o),
(20,601,o),
(24,603,cs),
(27,605,o),
(39,613,o),
(61,613,cs),
(188,613,ls),
(197,613,o),
(199,614,o),
(199,622,cs),
(199,629,ls),
(199,654,o),
(181,670,o),
(152,670,cs),
(67,669,ls)
);
}
);
width = 0;
}
);
note = uni064B;
unicode = 1611;
},
{
glyphname = uni064C;
layers = (
{
layerId = m01;
shapes = (
{
closed = 1;
nodes = (
(255,616,o),
(229,642,o),
(188,644,cs),
(147,644,o),
(120,618,o),
(120,581,cs),
(120,564,o),
(129,546,o),
(145,528,c),
(129,517,l),
(126,514,o),
(124,513,o),
(121,513,cs),
(116,513,o),
(109,520,o),
(104,525,cs),
(88,541,o),
(74,548,o),
(59,548,cs),
(40,548,o),
(25,537,o),
(19,519,cs),
(12,502,o),
(15,482,o),
(26,466,cs),
(32,459,o),
(38,460,o),
(40,468,c),
(49,486,o),
(53,492,o),
(59,492,cs),
(63,492,o),
(69,487,o),
(75,479,cs),
(86,466,o),
(96,456,o),
(111,456,cs),
(129,456,o),
(144,466,o),
(149,469,cs),
(181,493,l),
(198,477,ls),
(202,473,o),
(205,473,o),
(209,476,cs),
(229,489,o),
(235,507,o),
(225,526,c),
(246,544,o),
(255,560,o),
(255,579,cs)
);
},
{
closed = 1;
nodes = (
(176,563,o),
(170,571,o),
(170,581,cs),
(170,592,o),
(178,599,o),
(189,599,cs),
(198,599,o),
(206,591,o),
(206,581,cs),
(206,572,o),
(200,564,o),
(186,554,c)
);
}
);
width = 0;
}
);
note = uni064C;
unicode = 1612;
},
{
glyphname = uni064D;
layers = (
{
layerId = m01;
shapes = (
{
closed = 1;
nodes = (
(30,-58,o),
(7,-75,o),
(7,-104,cs),
(7,-112,o),
(9,-117,o),
(11,-122,cs),
(13,-126,o),
(15,-127,o),
(16,-127,cs),
(18,-127,o),
(19,-127,o),
(23,-124,cs),
(26,-122,o),
(38,-114,o),
(60,-114,cs),
(187,-114,ls),
(196,-114,o),
(198,-113,o),
(198,-105,cs),
(198,-98,ls),
(198,-73,o),
(180,-57,o),
(151,-57,cs),
(66,-58,ls)
);
},
{
closed = 1;
nodes = (
(30,-150,o),
(7,-167,o),
(7,-197,cs),
(7,-204,o),
(9,-209,o),
(11,-214,cs),
(13,-218,o),
(15,-219,o),
(16,-219,cs),
(18,-219,o),
(19,-219,o),
(23,-216,cs),
(26,-214,o),
(38,-206,o),
(60,-206,cs),
(187,-206,ls),
(196,-206,o),
(198,-205,o),
(198,-197,cs),
(198,-191,ls),
(198,-165,o),
(180,-149,o),
(151,-149,cs),
(66,-150,ls)
);
}
);
width = 0;
}
);
note = uni064D;
unicode = 1613;
},
{
glyphname = uni064E;
layers = (
{
layerId = m01;
shapes = (
{
closed = 1;
nodes = (
(31,669,o),
(8,652,o),
(8,623,cs),
(8,616,o),
(10,610,o),
(12,605,cs),
(14,602,o),
(16,601,o),
(17,601,cs),
(19,601,o),
(20,601,o),
(24,603,cs),
(27,605,o),
(39,613,o),
(61,613,cs),
(188,613,ls),
(197,613,o),
(199,614,o),
(199,622,cs),
(199,629,ls),
(199,654,o),
(181,670,o),
(152,670,cs),
(67,669,ls)
);
}
);
width = 0;
}
);
note = uni064E;
unicode = 1614;
},
{
glyphname = uni064F;
layers = (
{
layerId = m01;
shapes = (
{
closed = 1;
nodes = (
(205,619,o),
(178,645,o),
(137,647,cs),
(96,647,o),
(70,621,o),
(70,583,cs),
(70,567,o),
(78,549,o),
(93,532,c),
(66,513,o),
(35,491,o),
(21,484,c),
(19,482,o),
(18,479,o),
(20,477,c),
(22,473,l),
(30,462,o),
(43,456,o),
(57,456,cs),
(67,456,o),
(74,458,o),
(85,464,cs),
(95,471,o),
(108,481,o),
(131,496,c),
(147,480,ls),
(151,476,o),
(155,476,o),
(159,478,c),
(178,492,o),
(184,510,o),
(174,528,c),
(196,547,o),
(205,563,o),
(205,582,cs)
);
},
{
closed = 1;
nodes = (
(126,566,o),
(120,574,o),
(120,583,cs),
(120,594,o),
(127,602,o),
(139,602,cs),
(147,602,o),
(155,593,o),
(155,583,cs),
(155,575,o),
(149,567,o),
(135,557,c)
);
}
);
width = 0;
}
);
note = uni064F;
unicode = 1615;
},
{
glyphname = uni0650;
layers = (
{
layerId = m01;
shapes = (
{
closed = 1;
nodes = (
(30,-58,o),
(7,-75,o),
(7,-104,cs),
(7,-112,o),
(9,-117,o),
(11,-122,cs),
(13,-126,o),
(15,-127,o),
(16,-127,cs),
(18,-127,o),
(19,-127,o),
(23,-124,cs),
(26,-122,o),
(38,-114,o),
(60,-114,cs),
(187,-114,ls),
(196,-114,o),
(198,-113,o),
(198,-105,cs),
(198,-98,ls),
(198,-73,o),
(180,-57,o),
(151,-57,cs),
(66,-58,ls)
);
}
);
width = 0;
}
);
note = uni0650;
unicode = 1616;
},
{
glyphname = uni0651;
layers = (
{
layerId = m01;
shapes = (
{
closed = 1;
nodes = (
(239,619,o),
(228,614,o),
(219,604,cs),
(212,594,o),
(207,581,o),
(207,564,cs),
(207,537,ls),
(207,517,o),
(199,509,o),
(186,509,cs),
(173,509,o),
(164,518,o),
(164,537,cs),
(164,614,ls),
(164,618,o),
(163,619,o),
(159,619,cs),
(153,619,ls),
(138,619,o),
(127,614,o),
(118,604,cs),
(111,594,o),
(106,581,o),
(106,564,cs),
(106,537,ls),
(106,518,o),
(97,509,o),
(84,509,cs),
(71,509,o),
(63,517,o),
(63,537,cs),
(63,614,ls),
(63,618,o),
(62,619,o),
(58,619,cs),
(52,619,ls),
(35,619,o),
(23,613,o),
(14,601,cs),
(8,591,o),
(5,579,o),
(5,564,cs),
(5,542,ls),
(5,487,o),
(37,454,o),
(86,454,cs),
(104,454,o),
(122,461,o),
(136,472,c),
(149,461,o),
(167,454,o),
(187,454,cs),
(234,454,o),
(265,487,o),
(265,542,cs),
(265,614,ls),
(265,618,o),
(264,619,o),
(261,619,cs),
(254,619,ls)
);
}
);
width = 0;
}
);
note = uni0651;
unicode = 1617;
},
{
glyphname = uni0652;
layers = (
{
layerId = m01;
shapes = (
{
closed = 1;
nodes = (
(112,459,o),
(141,487,o),
(141,526,cs),
(141,566,o),
(112,594,o),
(72,594,cs),
(32,594,o),
(3,566,o),
(3,526,cs),
(3,487,o),
(32,459,o),
(72,459,cs)
);
},
{
closed = 1;
nodes = (
(60,504,o),
(52,513,o),
(52,526,cs),
(52,539,o),
(60,549,o),
(72,549,cs),
(84,549,o),
(92,539,o),
(92,526,cs),
(92,513,o),
(84,504,o),
(72,504,cs)
);
}
);
width = 0;
}
);
note = uni0652;
unicode = 1618;
},
{
glyphname = uni0653;
layers = (
{
layerId = m01;
shapes = (
{
closed = 1;
nodes = (
(181,606,o),
(197,615,o),
(206,634,cs),
(214,652,o),
(210,674,o),
(200,690,cs),
(195,699,o),
(188,692,o),
(182,683,cs),
(176,674,o),
(167,664,o),
(154,664,cs),
(132,664,o),
(85,696,o),
(57,696,cs),
(34,697,o),
(18,688,o),
(9,669,cs),
(1,651,o),
(5,628,o),
(15,613,c),
(20,603,o),
(27,611,o),
(33,619,cs),
(39,628,o),
(48,638,o),
(61,638,cs),
(84,638,o),
(130,607,o),
(159,607,cs)
);
}
);
width = 0;
}
);
note = uni0653;
unicode = 1619;
},
{
glyphname = uni0654;
layers = (
{
layerId = m01;
shapes = (
{
closed = 1;
nodes = (
(123,668,o),
(108,682,o),
(108,701,cs),
(108,721,o),
(120,732,o),
(141,732,cs),
(154,732,o),
(164,729,o),
(179,722,cs),
(187,718,o),
(189,717,o),
(190,717,cs),
(195,717,o),
(195,721,o),
(195,731,cs),
(195,765,o),
(168,788,o),
(130,788,cs),
(82,787,o),
(49,750,o),
(49,701,cs),
(49,693,o),
(52,677,o),
(59,663,c),
(37,657,o),
(26,642,o),
(26,621,cs),
(26,614,o),
(28,608,o),
(30,603,cs),
(32,600,o),
(34,599,o),
(35,599,cs),
(37,599,o),
(38,599,o),
(42,602,c),
(45,603,o),
(57,612,o),
(79,612,cs),
(205,612,ls),
(214,612,o),
(216,613,o),
(216,621,cs),
(216,627,ls),
(216,653,o),
(198,668,o),
(169,668,cs),
(141,668,ls)
);
}
);
width = 0;
}
);
note = uni0654;
unicode = 1620;
},
{
glyphname = uni0655;
layers = (
{
layerId = m01;
shapes = (
{
closed = 1;
nodes = (
(113,-178,o),
(98,-165,o),
(98,-146,cs),
(98,-126,o),
(110,-114,o),
(131,-114,cs),
(144,-114,o),
(154,-119,o),
(169,-125,cs),
(177,-128,o),
(179,-129,o),
(180,-129,cs),
(185,-129,o),
(185,-126,o),
(185,-116,cs),
(185,-82,o),
(158,-58,o),
(120,-59,cs),
(72,-59,o),
(39,-97,o),
(39,-146,cs),
(39,-154,o),
(42,-169,o),
(49,-183,c),
(27,-190,o),
(16,-204,o),
(16,-226,cs),
(16,-233,o),
(18,-238,o),
(20,-243,cs),
(22,-247,o),
(24,-248,o),
(25,-248,cs),
(27,-248,o),
(28,-248,o),
(32,-245,cs),
(35,-243,o),
(47,-235,o),
(69,-235,cs),
(195,-235,ls),
(204,-235,o),
(206,-234,o),
(206,-226,cs),
(206,-219,ls),
(206,-194,o),
(188,-178,o),
(159,-178,cs),
(131,-178,ls)
);
}
);
width = 0;
}
);
note = uni0655;
unicode = 1621;
},
{
glyphname = zero.ar;
layers = (
{
layerId = m01;
shapes = (
{
closed = 1;
nodes = (
(214,115,o),
(169,159,o),
(169,279,cs),
(169,398,o),
(215,442,o),
(271,442,cs),
(326,442,o),
(373,398,o),
(373,279,cs),
(373,159,o),
(328,115,o),
(271,115,cs)
);
},
{
closed = 1;
nodes = (
(413,-10,o),
(510,92,o),
(510,279,cs),
(510,466,o),
(411,566,o),
(271,566,cs),
(130,566,o),
(32,466,o),
(32,279,cs),
(32,92,o),
(129,-10,o),
(271,-10,cs)
);
}
);
width = 542;
}
);
note = zero.ar;
unicode = 1632;
},
{
glyphname = one.ar;
layers = (
{
layerId = m01;
shapes = (
{
closed = 1;
nodes = (
(35,123,ls),
(26,123,o),
(22,119,o),
(22,110,cs),
(22,13,ls),
(22,4,o),
(26,0,o),
(35,0,cs),
(351,0,ls),
(361,0,o),
(368,7,o),
(368,17,cs),
(368,57,ls),
(368,99,o),
(344,123,o),
(298,123,cs),
(255,123,l),
(255,488,ls),
(255,531,o),
(231,556,o),
(185,556,cs),
(146,556,ls),
(128,556,o),
(106,551,o),
(93,546,cs),
(38,526,ls),
(28,522,o),
(23,516,o),
(23,506,cs),
(23,403,ls),
(23,394,o),
(30,391,o),
(38,393,c),
(121,424,l),
(121,123,l)
);
}
);
width = 378;
}
);
note = one.ar;
unicode = 1633;
},
